<?xml version="1.0" encoding="utf-8"?>
<!-- Generator: Adobe Illustrator 23.0.2, SVG Export Plug-In . SVG Version: 6.00 Build 0)  -->
<svg version="1.1" id="Layer_1" xmlns="http://www.w3.org/2000/svg" xmlns:xlink="http://www.w3.org/1999/xlink" x="0px" y="0px"
	 viewBox="0 0 366.15 267.5" style="enable-background:new 0 0 366.15 267.5;" xml:space="preserve">
<style type="text/css">
	.st0{opacity:0.25;fill:#091D7B;}
	.st1{fill:#E34899;}
	.st2{fill:#FFFFFF;}
	.st3{fill:url(#SVGID_1_);}
	.st4{fill:url(#SVGID_2_);}
	.st5{fill:url(#SVGID_3_);}
	.st6{fill:#091D7B;}
	.st7{fill:url(#SVGID_4_);}
	.st8{fill:url(#SVGID_5_);}
	.st9{fill:url(#SVGID_6_);}
	.st10{fill:url(#SVGID_7_);}
	.st11{fill:#A9E1F2;}
	.st12{opacity:0.31;fill:#5574D8;}
	.st13{fill:#202952;}
	.st14{fill:url(#SVGID_8_);}
	.st15{fill:none;stroke:#FFFFFF;stroke-width:0.4263;stroke-miterlimit:10;}
	.st16{opacity:0.23;fill:#091D7B;}
	.st17{fill:url(#SVGID_9_);}
	.st18{opacity:0.08;fill:#091D7B;}
	.st19{fill:url(#SVGID_10_);}
	.st20{fill:#D69136;}
	.st21{fill:#FFB600;}
	.st22{fill:#FDD1B1;}
	.st23{fill:url(#SVGID_11_);}
	.st24{fill:url(#SVGID_12_);}
	.st25{fill:#728EFC;}
	.st26{opacity:0.66;fill:#202952;}
	.st27{fill:#57ABEC;}
	.st28{opacity:0.16;fill:url(#SVGID_13_);}
	.st29{opacity:0.16;fill:url(#SVGID_14_);}
	.st30{opacity:0.48;fill:#FFFFFF;}
	.st31{opacity:0.16;fill:url(#SVGID_15_);}
	.st32{opacity:0.16;fill:url(#SVGID_16_);}
	.st33{opacity:0.16;fill:url(#SVGID_17_);}
</style>
<g>
	<g>
		<path class="st0" d="M272.62,57.27c0.37,2.36,0.57,4.72,0.6,7.04c0.35,24.2-17.14,45.61-41.74,49.48
			c-26.97,4.25-52.27-14.17-56.52-41.14c-4.25-26.97,14.17-52.27,41.14-56.52c22.84-3.6,44.49,9.07,53.16,29.41
			C270.83,49.22,271.97,53.15,272.62,57.27z"/>
		<path class="st1" d="M269.6,57.75c0.37,2.36,0.57,4.72,0.6,7.04c0.35,24.2-17.14,45.61-41.74,49.48
			c-26.97,4.25-52.27-14.17-56.52-41.14c-4.25-26.97,14.17-52.27,41.14-56.52c22.84-3.6,44.49,9.07,53.16,29.41
			C267.81,49.7,268.95,53.63,269.6,57.75z"/>
		
			<ellipse transform="matrix(0.5885 -0.8085 0.8085 0.5885 37.9376 205.4196)" class="st2" cx="220.77" cy="65.44" rx="42.8" ry="42.8"/>
		
			<ellipse transform="matrix(0.9037 -0.4282 0.4282 0.9037 -6.7591 100.8307)" class="st1" cx="220.77" cy="65.44" rx="36.17" ry="36.17"/>
		<circle class="st2" cx="220.77" cy="65.44" r="25.61"/>
		<path class="st1" d="M235.6,63.11c1.29,8.19-4.3,15.88-12.5,17.17c-8.19,1.29-15.88-4.3-17.17-12.5
			c-1.29-8.19,4.3-15.88,12.5-17.17C226.62,49.32,234.31,54.91,235.6,63.11z"/>
		
			<ellipse transform="matrix(0.9878 -0.1559 0.1559 0.9878 -7.5111 35.1908)" class="st2" cx="220.56" cy="65.47" rx="13.14" ry="13.14"/>
		<path class="st1" d="M224,64.93c0.3,1.9-1,3.68-2.9,3.98c-1.9,0.3-3.68-1-3.98-2.9c-0.3-1.9,1-3.68,2.9-3.98
			C221.92,61.74,223.7,63.03,224,64.93z"/>
		<path class="st0" d="M269.6,57.75c0.37,2.36,0.57,4.72,0.6,7.04c-4.66,0.23-9.3-1.26-12.98-4.25l-0.84-0.69
			c-0.26-0.18-0.51-0.37-0.76-0.57l-9.14,2.38c-0.1,0.45-0.45,0.83-0.93,0.96l-13.61,3.53c-0.65,0.17-1.33,0.07-1.91-0.28
			c-0.24-0.15-0.45-0.33-0.62-0.54l-8.57,0.8l8.08-2.97c0.04-0.14,0.08-0.29,0.14-0.42c0.35-0.74,1-1.25,1.78-1.4l13.8-2.67
			c0.49-0.1,0.96,0.1,1.25,0.47l9.33-1.8c0.16-0.33,0.34-0.66,0.52-0.98l0.48-0.98c2.09-4.28,5.67-7.59,10.02-9.35
			C267.81,49.7,268.95,53.63,269.6,57.75z"/>
		<g>
			<g>
				<g>
					
						<linearGradient id="SVGID_1_" gradientUnits="userSpaceOnUse" x1="3142.5344" y1="-178.9905" x2="3156.4333" y2="-178.9905" gradientTransform="matrix(-0.9878 0.1556 0.1556 0.9878 3390.2212 -282.158)">
						<stop  offset="0" style="stop-color:#A1D5E0"/>
						<stop  offset="1" style="stop-color:#28B5C8"/>
					</linearGradient>
					<path class="st3" d="M245.83,40.94l11.74-10.58l-0.19-4.09l-0.08-1.7c-0.12-2.57-3.2-3.82-5.08-2.06l-0.63,0.59
						c-4.29,4.03-6.49,9.81-5.96,15.67l0.1,1.08l0.1,1.07L245.83,40.94z"/>
					<path class="st0" d="M245.83,40.94l11.74-10.58l-0.19-4.09l-0.08-1.7c-0.12-2.57-3.2-3.82-5.08-2.06l-0.63,0.59
						c-4.29,4.03-6.49,9.81-5.96,15.67l0.1,1.08l0.1,1.07L245.83,40.94z"/>
					
						<linearGradient id="SVGID_2_" gradientUnits="userSpaceOnUse" x1="3142.7268" y1="-177.8375" x2="3156.4719" y2="-177.8375" gradientTransform="matrix(-0.9878 0.1556 0.1556 0.9878 3390.2212 -282.158)">
						<stop  offset="0" style="stop-color:#A1D5E0"/>
						<stop  offset="1" style="stop-color:#28B5C8"/>
					</linearGradient>
					<path class="st4" d="M245.82,40.92l0,0.01l11.74-10.58l-0.11-3.49c-0.01-0.21-0.04-0.41-0.09-0.6
						c-0.52-2.16-3.27-3.08-4.99-1.46l-0.63,0.59c-3.99,3.75-6.17,9.02-6.03,14.45c0.01,0.37,0.03,0.74,0.06,1.1L245.82,40.92z"/>
				</g>
				
					<linearGradient id="SVGID_3_" gradientUnits="userSpaceOnUse" x1="3143.1841" y1="-174.4351" x2="3156.4333" y2="-174.4351" gradientTransform="matrix(-0.9878 0.1556 0.1556 0.9878 3390.2212 -282.158)">
					<stop  offset="0" style="stop-color:#A1D5E0"/>
					<stop  offset="1" style="stop-color:#28B5C8"/>
				</linearGradient>
				<polygon class="st5" points="245.83,40.94 257.57,30.35 245.82,40.92 				"/>
			</g>
			<polygon class="st6" points="228.41,60.73 226.73,58.99 220.9,66.28 			"/>
			<g>
				<g>
					
						<linearGradient id="SVGID_4_" gradientUnits="userSpaceOnUse" x1="-1912.6996" y1="7122.8828" x2="-1898.8003" y2="7122.8828" gradientTransform="matrix(-0.2027 0.9792 -0.9792 -0.2027 6845.5225 3347.2878)">
						<stop  offset="0" style="stop-color:#A1D5E0"/>
						<stop  offset="1" style="stop-color:#28B5C8"/>
					</linearGradient>
					<path class="st7" d="M247,42.38l11.13-11.22l4.07,0.39l1.69,0.16c2.56,0.25,3.66,3.38,1.81,5.17l-0.62,0.6
						c-4.23,4.09-10.11,6.01-15.93,5.2l-1.08-0.15l-1.07-0.15L247,42.38z"/>
					<path class="st0" d="M247,42.38l11.13-11.22l4.07,0.39l1.69,0.16c2.56,0.25,3.66,3.38,1.81,5.17l-0.62,0.6
						c-4.23,4.09-10.11,6.01-15.93,5.2l-1.08-0.15l-1.07-0.15L247,42.38z"/>
					
						<linearGradient id="SVGID_5_" gradientUnits="userSpaceOnUse" x1="-1912.5072" y1="7124.0356" x2="-1898.7616" y2="7124.0356" gradientTransform="matrix(-0.2027 0.9792 -0.9792 -0.2027 6845.5225 3347.2878)">
						<stop  offset="0" style="stop-color:#A1D5E0"/>
						<stop  offset="1" style="stop-color:#28B5C8"/>
					</linearGradient>
					<path class="st8" d="M247.01,42.38l-0.01,0l11.13-11.22l-0.04-0.06l3.52,0.34c0.21,0.02,0.4,0.06,0.59,0.11
						c2.13,0.63,2.92,3.41,1.22,5.06l-0.62,0.6c-3.94,3.81-9.3,5.73-14.73,5.33c-0.37-0.03-0.73-0.06-1.1-0.11L247.01,42.38z"/>
				</g>
				
					<linearGradient id="SVGID_6_" gradientUnits="userSpaceOnUse" x1="-1912.0497" y1="7127.4385" x2="-1898.8003" y2="7127.4385" gradientTransform="matrix(-0.2027 0.9792 -0.9792 -0.2027 6845.5225 3347.2878)">
					<stop  offset="0" style="stop-color:#A1D5E0"/>
					<stop  offset="1" style="stop-color:#28B5C8"/>
				</linearGradient>
				<polygon class="st9" points="247,42.38 258.13,31.15 247.01,42.38 				"/>
			</g>
			<path class="st6" d="M227.21,60.21L227.21,60.21c0.7,0.73,1.86,0.73,2.56,0.01l28.64-29.35c0.18-0.19,0.18-0.49,0-0.68l0,0
				c-0.18-0.19-0.48-0.2-0.68-0.02L227.3,57.65C226.55,58.32,226.51,59.48,227.21,60.21z"/>
			
				<linearGradient id="SVGID_7_" gradientUnits="userSpaceOnUse" x1="3162.9299" y1="-158.8654" x2="3178.6658" y2="-158.8654" gradientTransform="matrix(-0.9878 0.1556 0.1556 0.9878 3390.2212 -282.158)">
				<stop  offset="0" style="stop-color:#84D5E0"/>
				<stop  offset="1" style="stop-color:#57ABEC"/>
			</linearGradient>
			<path class="st10" d="M226.99,56.99c-0.59,0.54-0.89,1.31-0.8,2.12c0.05,0.42,0.2,0.82,0.45,1.16c0.48,0.65,1.21,1.02,2,1.02
				c0.67,0,1.31-0.26,1.78-0.75l9.82-10.06c0.49-0.5,0.49-1.29,0.01-1.79l-1.03-1.07c-0.48-0.5-1.27-0.53-1.79-0.06L226.99,56.99z"
				/>
		</g>
	</g>
	<path class="st11" d="M266.79,168.99c0-0.55-0.03-1.08-0.09-1.62l2.85-1.58c-0.18-1.03-0.45-2.02-0.79-2.98l-3.26,0.05
		c-0.44-0.99-0.98-1.93-1.61-2.79l1.67-2.79c-0.66-0.79-1.4-1.52-2.18-2.18l-2.79,1.67c-0.87-0.63-1.8-1.18-2.79-1.61l0.05-3.26
		c-0.96-0.35-1.96-0.61-2.98-0.79l-1.58,2.85c-0.53-0.06-1.07-0.09-1.62-0.09c-0.55,0-1.08,0.03-1.61,0.09l-1.58-2.85
		c-1.03,0.18-2.02,0.45-2.98,0.79l0.05,3.26c-0.99,0.44-1.93,0.98-2.8,1.61l-2.79-1.67c-0.79,0.66-1.52,1.4-2.18,2.18l1.67,2.79
		c-0.64,0.87-1.18,1.8-1.61,2.79l-3.26-0.05c-0.35,0.96-0.61,1.96-0.79,2.98l2.85,1.58c-0.06,0.53-0.09,1.07-0.09,1.62
		c0,0.55,0.03,1.08,0.09,1.61l-2.85,1.58c0.18,1.03,0.45,2.02,0.79,2.98l3.26-0.05c0.44,0.99,0.98,1.93,1.61,2.8l-1.67,2.79
		c0.66,0.79,1.4,1.52,2.18,2.18l2.79-1.67c0.87,0.63,1.8,1.18,2.8,1.61l-0.05,3.26c0.96,0.35,1.96,0.61,2.98,0.79l1.58-2.85
		c0.53,0.06,1.07,0.09,1.61,0.09c0.55,0,1.08-0.03,1.62-0.09l1.58,2.85c1.03-0.18,2.02-0.45,2.98-0.79l-0.05-3.26
		c0.99-0.44,1.93-0.98,2.79-1.61l2.79,1.67c0.79-0.66,1.52-1.4,2.18-2.18l-1.67-2.79c0.63-0.87,1.18-1.8,1.61-2.8l3.26,0.05
		c0.35-0.96,0.61-1.96,0.79-2.98l-2.85-1.58C266.76,170.07,266.79,169.54,266.79,168.99z M251.65,176.81c-4.32,0-7.82-3.5-7.82-7.82
		c0-4.32,3.5-7.83,7.82-7.83c4.32,0,7.83,3.5,7.83,7.83C259.48,173.31,255.98,176.81,251.65,176.81z"/>
	<path class="st12" d="M251.65,156.88c-6.69,0-12.11,5.42-12.11,12.11c0,6.69,5.42,12.11,12.11,12.11c6.69,0,12.11-5.42,12.11-12.11
		C263.77,162.3,258.35,156.88,251.65,156.88z M251.65,176.81c-4.32,0-7.82-3.5-7.82-7.82c0-4.32,3.5-7.83,7.82-7.83
		c4.32,0,7.83,3.5,7.83,7.83C259.48,173.31,255.98,176.81,251.65,176.81z"/>
	<path class="st13" d="M209.51,88.77c0,0,3.36-1.31,2.17-4.78c-1.18-3.45-6.74-2.84-9.71-0.79c-1.64,1.13-4.4,0.41-7.18,2.83
		c-2.45,2.13-1.33,7.12,0.93,10.88s3.52,3.65,3.42,4.46C199.03,102.19,209.51,88.77,209.51,88.77z"/>
	<path class="st13" d="M92.28,103c0,0,1.07-0.7,1.71-2.87c0.86-2.87-4.67-4.46-7.77-3.47c-3.09,0.99-6.01-0.92-7.54,1.89
		c-1.52,2.8,0.59,3.67-1.42,6.37c-2.66,3.59,3.34,8.03,4.7,8.04C83.33,112.98,92.28,103,92.28,103z"/>
	<g>
		<linearGradient id="SVGID_8_" gradientUnits="userSpaceOnUse" x1="420.9875" y1="92.7869" x2="327.9815" y2="183.8791">
			<stop  offset="0" style="stop-color:#84D5E0"/>
			<stop  offset="1" style="stop-color:#57ABEC"/>
		</linearGradient>
		<path class="st14" d="M318.05,217.58c8.38-2.86,10.61-9.81,6.18-12.05c-3.13-1.59-2.48-4.7,9.49-10.05
			c11.96-5.35,10.88-11.38,8.96-12.94c-1.92-1.56-8.33-3.35-0.85-8.42s11.65-13.36,9.52-15.54c-2.13-2.17-9.96,1.5-15.92,7.15
			c-5.96,5.65-13.55,12.52-13.36,7.29c0.2-5.23-4.64-6.46-9.1-0.41c-4.45,6.05-9.27,21.54-11.24,18.5
			c-1.83-2.83-5.44-4.11-8.13,5.13c-2.25,7.73-2.27,20.98-2.27,20.98S309.67,220.44,318.05,217.58z"/>
		<path class="st15" d="M348.82,160.34c0,0-37.81,28.58-57.5,56.87"/>
		<path class="st15" d="M336.89,187.11c0,0-10.03-2.51-21.53,2.41"/>
		<path class="st15" d="M319.77,211.77c0,0-10.08-6.2-23.66-1.01"/>
		<path class="st15" d="M316.96,175.78c0,0-0.03,12.13-2.73,14.85"/>
	</g>
	<g>
		<path class="st6" d="M284.04,144.38c-2.43,0.89,2.68,8.77,2.68,8.77S287.94,142.95,284.04,144.38z"/>
		<path class="st6" d="M282.67,153.35c1.26-0.63,4.13,2.72,4.97,7.29c0,0-2.36-1.9-3.94-2.82
			C282.11,156.89,280.75,154.31,282.67,153.35z"/>
		<g>
			<path class="st6" d="M282.49,184.09c7.15-18.76,3.93-31.82,3.88-31.96l0.32-0.1c0.04,0.13,4,13.42-3.18,32.29L282.49,184.09z"/>
		</g>
		<path class="st6" d="M293.13,153.71c-1.66-0.39-5.46,7.76-5.46,7.76s3.26-1,5.26-2.62C294.94,157.22,294.75,154.08,293.13,153.71z
			"/>
		<path class="st6" d="M287.33,168.16c0,0-2.02-6.45-5.86-6.97C277.64,160.68,281.35,166.1,287.33,168.16z"/>
		<path class="st6" d="M285.88,175.05c0,0-2.91-8.34-6.91-6.82S285.88,175.05,285.88,175.05z"/>
		<path class="st6" d="M285.24,178.62c0,0,7.49-1.56,7.77-6.18C293.29,167.82,285.83,174.65,285.24,178.62z"/>
		<path class="st6" d="M286.71,168.99c0,0,7.58-1.09,8.14-5.68C295.42,158.72,287.55,165.06,286.71,168.99z"/>
	</g>
	<path class="st16" d="M328.92,65.2l-6.39,7.55l-23.09,27.29l-33.94,40.11l35.43,5.6c-4.35,18.95-14.72,35.91-29.1,48.33
		c-13.81,11.94-31.22,18.92-49.43,20.24l-11.66,0.84l-74.91,5.42L2.98,230.19l66.59,37.3l154.89-11.21
		c14.49-1.05,27.74-4.57,39.65-10.06c-0.46,2.55-0.42,4.8,1.47,3.96c1.92-0.86,1.97-3.22,1.52-5.4c0.76-0.38,1.52-0.77,2.27-1.16
		c0.65,0.46,1.27,0.92,1.86,1.38c-2.36,5.5-1.17,11.34,1.09,8.39c1.63-2.14,0.62-5.69-0.15-7.65c1.9,1.53,3.51,3,4.84,4.33
		c-0.12,0.98-0.39,2.88-0.72,4.14c-0.47,1.77,0.39,4.56,2.43,3.88c1.13-0.37,1.06-3.56-0.57-6.84c1.91,2.05,3.1,3.66,3.66,4.48
		c0.39,1.69,2.15,8.69,4.21,7.73c3.14-1.45-1.94-6.11-3.72-7.62c-0.54-0.91-2.24-3.58-5.47-6.92c1.53,0.54,8.23,2.8,9.03,1.52
		c0.88-1.41-1.2-3.77-3.77-3.5c-2.25,0.24-4.83,1.48-5.44,1.79c-1.16-1.19-2.51-2.46-4.07-3.77c4.19,0.99,10.77-0.15,7.71-2.54
		c-2.97-2.32-7.59,0.29-9.2,1.34c-0.27-0.21-0.54-0.43-0.83-0.64c10.97-5.92,20.68-13.56,29.02-22.49
		c17.7-18.95,29.23-43.66,33.58-69.86l33.27,5.26L328.92,65.2z"/>
	<linearGradient id="SVGID_9_" gradientUnits="userSpaceOnUse" x1="-31.034" y1="343.1469" x2="385.7511" y2="60.698">
		<stop  offset="0" style="stop-color:#E974FE"/>
		<stop  offset="1" style="stop-color:#F0F3F5"/>
	</linearGradient>
	<path class="st17" d="M325.94,59.74l-6.39,7.55l-23.09,27.29l-33.94,40.11l35.43,5.6c-4.35,18.95-14.72,35.91-29.1,48.33
		c-13.81,11.94-31.22,18.92-49.43,20.24l-11.66,0.84l-74.91,5.42L0,224.73l66.59,37.3l154.89-11.21
		c30.94-2.24,56.27-15.77,74.83-35.64c17.7-18.95,29.23-43.66,33.58-69.86l33.27,5.26L325.94,59.74z"/>
	<ellipse class="st18" cx="212.45" cy="228.74" rx="30.18" ry="3.24"/>
	<ellipse class="st18" cx="116.94" cy="234.37" rx="30.18" ry="3.24"/>
	<g>
		<path class="st6" d="M356.61,198.73c0.08,2.58-9.13,0.8-9.13,0.8S356.48,194.59,356.61,198.73z"/>
		<path class="st6" d="M348.81,203.36c0.12-1.41-4.07-2.81-8.62-1.88c0,0,2.65,1.48,4.09,2.6
			C345.74,205.21,348.64,205.5,348.81,203.36z"/>
		<g>
			<path class="st6" d="M320.38,215.04c14.72-13.65,28.04-15.56,28.17-15.57l-0.03-0.33c-0.14,0.01-13.94,1.31-28.75,15.05
				L320.38,215.04z"/>
		</g>
		<path class="st6" d="M344.56,193.8c0.98,1.4-5.15,7.97-5.15,7.97s-0.29-3.39,0.46-5.86C340.63,193.44,343.61,192.44,344.56,193.8z
			"/>
		<path class="st6" d="M333.33,204.59c0,0,6.74-0.54,8.65,2.82C343.9,210.78,337.48,209.36,333.33,204.59z"/>
		<path class="st6" d="M327.49,208.52c0,0,8.83-0.43,8.91,3.85C336.49,216.65,327.49,208.52,327.49,208.52z"/>
		<path class="st6" d="M324.42,210.45c0,0-1.36-7.53,2.82-9.52C331.41,198.94,327.88,208.41,324.42,210.45z"/>
		<path class="st6" d="M332.8,205.48c0,0-1.83-7.43,2.22-9.68C339.06,193.56,336.12,203.23,332.8,205.48z"/>
	</g>
	<g>
		<linearGradient id="SVGID_10_" gradientUnits="userSpaceOnUse" x1="337.8598" y1="208.1835" x2="283.5016" y2="256.8398">
			<stop  offset="0" style="stop-color:#84D5E0"/>
			<stop  offset="0.4665" style="stop-color:#6FC1E6"/>
			<stop  offset="1" style="stop-color:#57ABEC"/>
		</linearGradient>
		<path class="st19" d="M277.92,223.06c4.7-7.17,12.75-17.61,19.84-17.6c7.09,0.01,7.16,4.97,6.34,7.01s3.43-0.57,12.73-2.15
			s15.55,1,17.71,2.88c3.71,3.24,2.02,4.67,0.09,7.74c-1.93,3.07,17.45,6.98,19.44,11.71s-5.91,8.15-13.38,5.54
			c-7.47-2.6-10.02-1.9-8.57,1.2c1.45,3.1-1.85,9.88-13.65,2.62c-11.8-7.26-17.27-8.46-15.98-4.4c1.29,4.06,2.01,8.46-7.74,5.73
			c-9.74-2.73-23.69-7.62-23.69-7.62S273.3,230.11,277.92,223.06z"/>
		<path class="st15" d="M351.27,233.53c0,0-57.64-23.61-79.76,2.19"/>
		<path class="st15" d="M324.87,237.55c0,0-4.86-10.9-14.64-13.68"/>
		<path class="st15" d="M327.73,215.65c0,0-10.86,8.03-19.67,8.1"/>
		<path class="st15" d="M295.32,212.3c0,0-0.71,7.93-9.87,14.17"/>
	</g>
	<g>
		<g>
			<g>
				<path class="st20" d="M152.31,155.22c-0.43-5.7-5.4-9.98-11.12-9.55c-5.71,0.43-10,5.4-9.57,11.1c0.43,5.7,5.4,9.98,11.12,9.55
					C148.46,165.89,152.74,160.92,152.31,155.22z"/>
			</g>
		</g>
		<g>
			<g>
				<path class="st21" d="M151.74,155.26c-0.4-5.39-5.1-9.42-10.5-9.02c-5.39,0.4-9.44,5.1-9.04,10.48c0.4,5.39,5.1,9.42,10.5,9.02
					C148.1,165.34,152.14,160.65,151.74,155.26z"/>
			</g>
		</g>
		<g>
			<g>
				<path class="st2" d="M149.87,157.53l-0.3-0.06c0.13-0.67,0.17-1.36,0.12-2.06c-0.32-4.25-4.04-7.45-8.3-7.13
					c-1.42,0.11-2.78,0.6-3.93,1.42l-0.18-0.25c1.2-0.86,2.61-1.37,4.09-1.48c4.43-0.33,8.3,2.99,8.63,7.41
					C150.05,156.11,150.01,156.83,149.87,157.53z"/>
			</g>
		</g>
		<g>
			<g>
				<path class="st2" d="M142.57,164.01c-4.43,0.33-8.3-2.99-8.63-7.41c-0.13-1.69,0.27-3.34,1.15-4.78l0.26,0.16
					c-0.85,1.39-1.23,2.98-1.11,4.6c0.32,4.25,4.04,7.45,8.3,7.13c2.67-0.2,5.02-1.73,6.27-4.1l0.27,0.14
					C147.79,162.2,145.35,163.8,142.57,164.01z"/>
			</g>
		</g>
		<g>
			<g>
				<g>
					<path class="st2" d="M143.08,161.54l-1.18,0.09l-0.09-1.26c-0.77,0.03-1.52-0.1-2.22-0.4l-0.09-0.04l-0.15-2.06l0.26,0.18
						c0.23,0.16,0.57,0.3,1.02,0.42c0.38,0.1,0.73,0.16,1.04,0.17l-0.14-1.9c-0.94-0.28-1.58-0.6-1.96-0.99
						c-0.39-0.4-0.62-0.92-0.66-1.53c-0.05-0.66,0.15-1.25,0.58-1.76c0.4-0.47,0.96-0.78,1.65-0.92l-0.08-1.13l1.18-0.09l0.08,1.09
						c0.79-0.01,1.41,0.08,1.83,0.28l0.08,0.04l0.15,1.97l-0.24-0.12c-0.51-0.26-1.08-0.41-1.69-0.45l0.15,1.98
						c0.86,0.25,1.51,0.57,1.91,0.94c0.44,0.4,0.68,0.91,0.73,1.52c0.05,0.7-0.13,1.29-0.55,1.76c-0.39,0.43-0.96,0.73-1.7,0.89
						L143.08,161.54z M142.19,161.3l0.57-0.04l-0.1-1.28l0.13-0.03c0.74-0.14,1.3-0.42,1.67-0.82c0.37-0.41,0.52-0.91,0.47-1.53
						c-0.04-0.54-0.25-0.97-0.63-1.32c-0.39-0.36-1.02-0.66-1.89-0.9l-0.1-0.03l-0.19-2.54l0.17,0.01c0.63,0.02,1.21,0.15,1.75,0.38
						l-0.09-1.26c-0.41-0.16-1-0.24-1.76-0.22l-0.15,0l-0.08-1.08l-0.57,0.04l0.08,1.09l-0.14,0.02c-0.68,0.12-1.22,0.4-1.61,0.85
						c-0.38,0.44-0.55,0.95-0.51,1.53c0.04,0.54,0.23,0.99,0.58,1.34c0.35,0.36,1,0.67,1.92,0.94l0.1,0.03l0.18,2.44l-0.16,0
						c-0.37,0-0.8-0.06-1.28-0.19c-0.34-0.09-0.63-0.19-0.86-0.31l0.09,1.27c0.67,0.27,1.39,0.38,2.14,0.33l0.15-0.01L142.19,161.3z
						 M142.58,158.9l-0.17-2.22l0.22,0.08c0.65,0.22,0.99,0.57,1.03,1.02c0.03,0.39-0.1,0.89-0.91,1.08L142.58,158.9z
						 M142.75,157.14l0.1,1.38c0.48-0.17,0.52-0.48,0.5-0.71C143.33,157.53,143.14,157.31,142.75,157.14z M141.73,155.19l-0.23-0.09
						c-0.63-0.26-0.97-0.62-1-1.09c-0.03-0.38,0.1-0.88,0.88-1.09l0.18-0.05L141.73,155.19z M141.28,153.27
						c-0.46,0.18-0.49,0.48-0.47,0.71c0.02,0.29,0.21,0.53,0.58,0.73L141.28,153.27z"/>
				</g>
			</g>
		</g>
		<path class="st2" d="M147.8,154.62c-0.64,0.2-0.75,0.34-0.86,1c-0.2-0.64-0.34-0.75-1-0.86c0.64-0.2,0.75-0.34,0.86-1
			C147.01,154.4,147.14,154.52,147.8,154.62z"/>
	</g>
	<g>
		<g>
			<g>
				
					<ellipse transform="matrix(0.9973 -0.0737 0.0737 0.9973 -6.0395 9.3971)" class="st20" cx="124.29" cy="86.52" rx="7.36" ry="7.35"/>
			</g>
		</g>
		<g>
			<g>
				<path class="st21" d="M131.22,86c-0.29-3.82-3.62-6.69-7.45-6.4c-3.83,0.29-6.7,3.62-6.41,7.44c0.29,3.82,3.62,6.69,7.45,6.4
					C128.64,93.16,131.51,89.83,131.22,86z"/>
			</g>
		</g>
		<g>
			<g>
				<path class="st2" d="M129.9,87.61l-0.21-0.04c0.09-0.48,0.12-0.97,0.08-1.46c-0.23-3.02-2.87-5.29-5.89-5.06
					c-1.01,0.08-1.97,0.43-2.79,1.01l-0.13-0.18c0.85-0.61,1.85-0.97,2.9-1.05c3.14-0.24,5.89,2.12,6.12,5.26
					C130.03,86.61,130,87.12,129.9,87.61z"/>
			</g>
		</g>
		<g>
			<g>
				<path class="st2" d="M124.72,92.21c-3.14,0.24-5.89-2.12-6.12-5.26c-0.09-1.2,0.19-2.37,0.82-3.39l0.19,0.11
					c-0.6,0.98-0.87,2.11-0.79,3.26c0.23,3.02,2.87,5.29,5.89,5.06c1.9-0.14,3.56-1.23,4.45-2.91l0.19,0.1
					C128.42,90.93,126.69,92.06,124.72,92.21z"/>
			</g>
		</g>
		<g>
			<g>
				<g>
					<path class="st2" d="M125.08,90.46l-0.83,0.06l-0.07-0.89c-0.55,0.02-1.08-0.07-1.57-0.28l-0.06-0.03l-0.11-1.46l0.19,0.13
						c0.16,0.11,0.41,0.21,0.73,0.3c0.27,0.07,0.52,0.11,0.74,0.12l-0.1-1.35c-0.66-0.2-1.12-0.43-1.39-0.7
						c-0.28-0.29-0.44-0.65-0.47-1.09c-0.04-0.47,0.1-0.89,0.41-1.25c0.29-0.33,0.68-0.55,1.17-0.65l-0.06-0.8l0.83-0.06l0.06,0.78
						c0.56-0.01,1,0.06,1.3,0.2l0.06,0.03l0.1,1.4l-0.17-0.09c-0.36-0.18-0.77-0.29-1.2-0.32l0.11,1.4c0.61,0.18,1.07,0.4,1.36,0.67
						c0.31,0.28,0.48,0.65,0.51,1.08c0.04,0.5-0.09,0.92-0.39,1.25c-0.28,0.31-0.68,0.52-1.21,0.63L125.08,90.46z M124.45,90.29
						l0.4-0.03l-0.07-0.91l0.1-0.02c0.53-0.1,0.92-0.3,1.18-0.58c0.26-0.29,0.37-0.64,0.34-1.08c-0.03-0.38-0.17-0.69-0.45-0.94
						c-0.28-0.25-0.73-0.47-1.34-0.64l-0.07-0.02l-0.13-1.8l0.12,0c0.44,0.01,0.86,0.11,1.24,0.27l-0.07-0.89
						c-0.29-0.12-0.71-0.17-1.25-0.15l-0.1,0l-0.06-0.76l-0.4,0.03l0.06,0.78l-0.1,0.02c-0.49,0.08-0.87,0.29-1.14,0.6
						c-0.27,0.32-0.39,0.67-0.36,1.09c0.03,0.38,0.17,0.7,0.41,0.95c0.25,0.25,0.71,0.48,1.37,0.67l0.07,0.02l0.13,1.73l-0.12,0
						c-0.26,0-0.57-0.04-0.91-0.13c-0.24-0.06-0.45-0.14-0.61-0.22l0.07,0.9c0.48,0.19,0.99,0.27,1.52,0.24l0.11-0.01L124.45,90.29z
						 M124.73,88.59l-0.12-1.57l0.16,0.05c0.46,0.16,0.7,0.4,0.73,0.73c0.02,0.28-0.07,0.63-0.64,0.76L124.73,88.59z M124.85,87.34
						 M124.12,85.96l-0.16-0.07c-0.45-0.18-0.69-0.44-0.71-0.78c-0.02-0.27,0.07-0.63,0.62-0.77l0.13-0.03L124.12,85.96z
						 M123.8,84.59c-0.32,0.13-0.35,0.34-0.34,0.5c0.02,0.21,0.15,0.38,0.41,0.52L123.8,84.59z"/>
				</g>
			</g>
		</g>
		<path class="st2" d="M128.43,85.55c-0.45,0.14-0.54,0.24-0.61,0.71c-0.14-0.45-0.24-0.54-0.71-0.61c0.45-0.14,0.54-0.24,0.61-0.71
			C127.87,85.39,127.96,85.48,128.43,85.55z"/>
	</g>
	<g>
		<g>
			<g>
				<path class="st20" d="M53.97,199.79c-0.3-4.05-3.83-7.08-7.89-6.78c-4.05,0.3-7.09,3.83-6.79,7.88c0.3,4.05,3.83,7.08,7.89,6.78
					C51.24,207.37,54.28,203.84,53.97,199.79z"/>
			</g>
		</g>
		<g>
			<g>
				<path class="st21" d="M53.57,199.83c-0.29-3.82-3.62-6.69-7.45-6.4c-3.83,0.29-6.7,3.62-6.41,7.44c0.29,3.82,3.62,6.69,7.45,6.4
					C50.98,206.98,53.85,203.65,53.57,199.83z"/>
			</g>
		</g>
		<g>
			<g>
				<path class="st2" d="M52.24,201.43l-0.21-0.04c0.09-0.48,0.12-0.97,0.08-1.46c-0.23-3.02-2.87-5.29-5.89-5.06
					c-1.01,0.08-1.97,0.43-2.79,1.01l-0.13-0.18c0.85-0.61,1.85-0.97,2.9-1.05c3.14-0.24,5.89,2.12,6.12,5.26
					C52.37,200.43,52.34,200.94,52.24,201.43z"/>
			</g>
		</g>
		<g>
			<g>
				<path class="st2" d="M47.06,206.03c-3.14,0.24-5.89-2.12-6.12-5.26c-0.09-1.2,0.19-2.37,0.82-3.39l0.19,0.11
					c-0.6,0.98-0.87,2.11-0.79,3.26c0.23,3.02,2.87,5.29,5.89,5.06c1.9-0.14,3.56-1.23,4.45-2.91l0.19,0.1
					C50.76,204.75,49.03,205.88,47.06,206.03z"/>
			</g>
		</g>
		<g>
			<g>
				<g>
					<path class="st2" d="M47.42,204.28l-0.83,0.06l-0.07-0.89c-0.55,0.02-1.08-0.07-1.57-0.28l-0.06-0.03l-0.11-1.46l0.19,0.13
						c0.16,0.11,0.41,0.21,0.73,0.3c0.27,0.07,0.52,0.11,0.74,0.12l-0.1-1.35c-0.66-0.2-1.12-0.43-1.39-0.7
						c-0.28-0.29-0.44-0.65-0.47-1.09c-0.04-0.47,0.1-0.89,0.41-1.25c0.29-0.33,0.68-0.55,1.17-0.65l-0.06-0.8l0.83-0.06l0.06,0.78
						c0.56-0.01,1,0.06,1.3,0.2l0.06,0.03l0.1,1.4l-0.17-0.09c-0.36-0.18-0.77-0.29-1.2-0.32l0.11,1.4c0.61,0.18,1.07,0.4,1.36,0.67
						c0.31,0.28,0.48,0.65,0.51,1.08c0.04,0.5-0.09,0.92-0.39,1.25c-0.28,0.31-0.68,0.52-1.21,0.63L47.42,204.28z M46.79,204.11
						l0.4-0.03l-0.07-0.91l0.1-0.02c0.52-0.1,0.92-0.3,1.18-0.58c0.26-0.29,0.37-0.64,0.34-1.08c-0.03-0.38-0.17-0.69-0.45-0.94
						c-0.28-0.25-0.73-0.47-1.34-0.64l-0.07-0.02l-0.13-1.8l0.12,0c0.44,0.01,0.86,0.11,1.24,0.27l-0.07-0.89
						c-0.29-0.12-0.71-0.17-1.25-0.15l-0.1,0l-0.06-0.76l-0.4,0.03l0.06,0.78l-0.1,0.02c-0.49,0.08-0.87,0.29-1.14,0.6
						c-0.27,0.32-0.39,0.67-0.36,1.09c0.03,0.38,0.17,0.7,0.41,0.95c0.25,0.25,0.71,0.48,1.37,0.67l0.07,0.02l0.13,1.73l-0.12,0
						c-0.26,0-0.57-0.04-0.91-0.13c-0.24-0.06-0.45-0.14-0.61-0.22l0.07,0.9c0.48,0.19,0.99,0.27,1.52,0.24l0.11-0.01L46.79,204.11z
						 M47.07,202.41l-0.12-1.57l0.16,0.05c0.46,0.16,0.7,0.4,0.73,0.73c0.02,0.28-0.07,0.63-0.64,0.76L47.07,202.41z M47.19,201.16
						l0.07,0.98c0.34-0.12,0.37-0.34,0.35-0.5C47.6,201.44,47.46,201.28,47.19,201.16z M46.47,199.78l-0.16-0.07
						c-0.45-0.18-0.69-0.44-0.71-0.78c-0.02-0.27,0.07-0.63,0.62-0.77l0.13-0.03L46.47,199.78z M46.15,198.42
						c-0.32,0.13-0.35,0.34-0.34,0.5c0.02,0.21,0.15,0.38,0.41,0.52L46.15,198.42z"/>
				</g>
			</g>
		</g>
		<path class="st2" d="M50.77,199.37c-0.45,0.14-0.54,0.24-0.61,0.71c-0.14-0.45-0.24-0.54-0.71-0.61c0.45-0.14,0.54-0.24,0.61-0.71
			C50.21,199.22,50.3,199.3,50.77,199.37z"/>
	</g>
	<g>
		<path class="st22" d="M226.47,227.65c0.67,0.26,9.31,0.15,12.9,0.09c0.74-0.01,1.08-0.9,0.55-1.41c-0.88-0.86-2.47-1.86-5.17-2.13
			c-1.18-0.12-1.89-0.51-2.32-1.14c-0.59-0.88-0.42-4.32-0.29-6.09c0.03-0.38-5.54,0.14-5.57,0.89c-0.04,1.08,0.07,3.82-0.24,5.08
			c-0.05,0.18-0.09,0.36-0.15,0.53C225.49,225.58,225.62,227.31,226.47,227.65z"/>
		<path class="st13" d="M226.47,227.65c0.73,0.28,10.79,0.13,13.69,0.08c0.37-0.01,0.52-0.39,0.36-0.73c-0.57-1.16-2.2-3-5.66-3.34
			c-1.17-0.12-2.29-0.59-2.71-1.22c-1.21,0.07-2.18,0.6-2.16,1.71c0.01,0.65-2.05,0.83-3.64-1.2c-0.05,0.18-0.09,0.36-0.15,0.53
			C225.49,225.58,225.62,227.31,226.47,227.65z"/>
	</g>
	<g>
		<path class="st22" d="M184.47,227.99c0.66,0.29,9.29,0.62,12.88,0.75c0.73,0.03,1.12-0.85,0.62-1.38
			c-0.84-0.91-2.37-1.98-5.06-2.38c-1.17-0.18-1.87-0.6-2.26-1.25c-0.55-0.91-0.2-4.34,0.01-6.09c0.05-0.38-5.55-0.14-5.61,0.61
			c-0.09,1.08-0.12,3.82-0.5,5.06c-0.05,0.18-0.11,0.36-0.18,0.52C183.6,225.88,183.64,227.62,184.47,227.99z"/>
		<path class="st13" d="M184.47,227.99c0.71,0.32,10.77,0.68,13.67,0.77c0.37,0.01,0.54-0.37,0.39-0.71
			c-0.51-1.19-2.05-3.11-5.49-3.63c-1.17-0.18-2.26-0.7-2.64-1.35c-1.22,0.01-2.21,0.49-2.25,1.6c-0.02,0.65-2.09,0.72-3.58-1.38
			c-0.05,0.18-0.11,0.36-0.18,0.52C183.6,225.88,183.64,227.62,184.47,227.99z"/>
	</g>
	<path class="st13" d="M186.48,144.03c0,0-3.7,7.18-1.85,16.89s6.29,24.49,6.37,27.43c0.08,2.94-6.71,32.32-6.71,32.32l6.13,0.72
		c0,0,12.07-28.76,12.21-32.1c0.14-3.34-0.47-30.15-0.47-30.15l-7.11-13.3L186.48,144.03z"/>
	<path class="st13" d="M190.49,146.43c0,0-3.82,7.31,4.44,17.2c8.26,9.89,23.43,19.79,24.09,21.79c0.66,2,7.11,34.66,7.11,34.66
		l6.36-0.46c0,0-0.73-31.29-2.83-39.06c-2.1-7.78-25.98-33.81-25.98-33.81S191.18,144.16,190.49,146.43z"/>
	<g>
		<path class="st22" d="M137.2,234.37c0.69,0.12,8.85-1.67,12.25-2.42c0.69-0.15,0.85-1.06,0.25-1.45c-1.01-0.65-2.7-1.28-5.31-1.01
			c-1.14,0.12-1.89-0.11-2.42-0.63c-0.73-0.72-1.24-4.01-1.46-5.71c-0.05-0.37-5.23,1.21-5.11,1.93c0.17,1.03,0.81,3.61,0.76,4.86
			c-0.01,0.18-0.02,0.36-0.04,0.53C135.87,232.6,136.33,234.22,137.2,234.37z"/>
		<path class="st13" d="M137.2,234.37c0.74,0.12,10.26-1.97,12.99-2.58c0.35-0.08,0.42-0.47,0.2-0.76
			c-0.77-0.99-2.67-2.42-6.02-2.07c-1.14,0.12-2.28-0.11-2.8-0.63c-1.14,0.3-1.95,0.99-1.72,2.04c0.14,0.62-1.78,1.18-3.69-0.43
			c-0.01,0.18-0.02,0.36-0.04,0.53C135.87,232.6,136.33,234.22,137.2,234.37z"/>
	</g>
	<g>
		<path class="st22" d="M72.4,235.88c0.37,0.59,7.14,5.49,9.97,7.52c0.58,0.42,1.36-0.08,1.24-0.78c-0.19-1.18-0.84-2.87-2.79-4.64
			c-0.84-0.77-1.18-1.49-1.14-2.22c0.05-1.03,2.17-3.6,3.29-4.9c0.24-0.28-4.39-3.09-4.84-2.52c-0.66,0.82-2.15,3.01-3.12,3.81
			c-0.14,0.12-0.28,0.23-0.42,0.32C72.83,233.71,71.93,235.13,72.4,235.88z"/>
		<path class="st13" d="M72.4,235.88c0.4,0.64,8.3,6.33,10.58,7.97c0.29,0.21,0.63-0.01,0.7-0.36c0.23-1.23,0.02-3.6-2.47-5.87
			c-0.84-0.77-1.44-1.78-1.4-2.51c-0.98-0.65-2.04-0.8-2.67,0.08c-0.37,0.51-2.07-0.54-2.14-3.03c-0.14,0.12-0.28,0.23-0.42,0.32
			C72.83,233.71,71.93,235.13,72.4,235.88z"/>
	</g>
	
		<linearGradient id="SVGID_11_" gradientUnits="userSpaceOnUse" x1="318.1595" y1="371.6162" x2="288.6832" y2="371.3684" gradientTransform="matrix(0.9974 -0.0722 0.0722 0.9974 -104.9818 -241.5004)">
		<stop  offset="0" style="stop-color:#5E74CF"/>
		<stop  offset="1" style="stop-color:#728EFC"/>
	</linearGradient>
	<path class="st23" d="M204.73,107.47c0,0,14.04,0.07,21.18-0.43c7.15-0.5,17.76-10.85,17.76-10.85l2.81,3.01
		c0,0-11.6,13.3-20.33,15.62c-8.73,2.32-15.36,2.87-15.36,2.87L204.73,107.47z"/>
	
		<linearGradient id="SVGID_12_" gradientUnits="userSpaceOnUse" x1="292.2838" y1="406.1423" x2="271.6797" y2="388.2688" gradientTransform="matrix(0.9974 -0.0722 0.0722 0.9974 -104.9818 -241.5004)">
		<stop  offset="0" style="stop-color:#5E74CF"/>
		<stop  offset="1" style="stop-color:#728EFC"/>
	</linearGradient>
	<path class="st24" d="M201.28,106.78c-2.65-0.25-10.26,0.05-13.02,5.8c-4.81,10.03-3.22,35.52-3.22,35.52s10.51,1.72,20.55,0.73
		c0,0,4.77-21.25,5.94-29.91C212.69,110.28,210.99,107.72,201.28,106.78z"/>
	<path class="st25" d="M195.68,109.47c3.79-1,18.61,8.3,21.03,8.71c2.43,0.41,14.73-16.9,14.73-16.9l3.62,2.38
		c0,0-6.84,18.96-16,22.14C211.38,128.48,182.38,112.99,195.68,109.47z"/>
	<path class="st22" d="M198.32,107.52c0,0,3.62,4.48,7.65,1.39l0.56-6.82l-6.86-4.66L198.32,107.52z"/>
	<path class="st22" d="M209.95,88.55c0,0,1.18,12.48-1.81,13.88c-2.99,1.4-7.39-2.41-7.59-3.13c-0.2-0.72-2.42-0.79-2.56-2.8
		c-0.15-2.01,1.72-2.73,2.52-1.76c0.81,0.97,1.49-1.88,2.06-4.13C203.14,88.35,208.8,89.07,209.95,88.55z"/>
	<path class="st6" d="M81.61,160.73c0,0-0.02,0.69,0.16,1.85c0.53,3.46,3.22,9.67,13.09,14.95c5.91,3.16,12.85,7.59,17.84,10.93
		c3.31,2.21,5.92,3.85,6.26,4.68c0.91,2.19,16.54,33.95,16.54,33.95l6.01-1.25c0,0-6.64-32.2-10.91-39.87
		c-4.27-7.67-31.99-26.46-31.99-26.46L81.61,160.73z"/>
	<polygon class="st26" points="98.46,173.74 118.97,192.58 101.67,181.21 97.5,175.96 	"/>
	<path class="st6" d="M81.61,160.73c0,0-1.78,6.38,2.87,16.94c5.9,13.42,7.96,21.49,7.71,23.18c-0.25,1.69-15.98,28.61-15.98,28.61
		l4.96,4.39c0,0,22.26-24.24,23.79-31.22c1.54-6.98-5.53-31.46-5.53-31.46L81.61,160.73z"/>
	<path class="st27" d="M134.82,129.43c0,0-11.75,10.77-16.2,12.91c-0.14,0.07-0.31,0.12-0.5,0.15h0c-3.29,0.58-13.06-4.1-17.55-6.37
		c-1.41-0.72-2.31-1.19-2.31-1.19S90.3,120.41,94,120.73c1.97,0.16,6.17,2.44,10.8,6.45c4.64,4.01,10.8,8.88,12.92,8.21
		c2.12-0.66,13.87-9.27,13.87-9.27L134.82,129.43z"/>
	<polygon class="st2" points="134.82,129.43 131.52,126.17 130.05,127.23 133.41,130.71 	"/>
	<linearGradient id="SVGID_13_" gradientUnits="userSpaceOnUse" x1="106.6146" y1="145.4439" x2="114.4742" y2="118.1196">
		<stop  offset="0" style="stop-color:#FFFFFF"/>
		<stop  offset="0.6599" style="stop-color:#6E6B6C"/>
		<stop  offset="1" style="stop-color:#231F20"/>
	</linearGradient>
	<path class="st28" d="M118.11,142.5c-3.29,0.58-13.06-4.1-17.55-6.37c-0.02-0.2-0.47-4.9-0.48-5.01
		C100.2,131.12,111.3,141.29,118.11,142.5z"/>
	<path class="st27" d="M102.95,162.52c0,0-3.09,1.54-5.73,2.09h0c-1.89,0.39-4.14,0.82-6.33,1.16c-4.16,0.63-9.5,0.58-9.5,0.58
		s-7.04-32.59-7.35-36.23c-0.13-1.5,0.31-3.42,1.48-5.15c1.6-2.38,4.55-4.44,9.23-4.65c13.39-0.62,14.5,1.41,15.64,13.61
		C101.51,146.12,102.95,162.52,102.95,162.52z"/>
	<linearGradient id="SVGID_14_" gradientUnits="userSpaceOnUse" x1="87.2119" y1="154.1319" x2="94.6718" y2="130.3084">
		<stop  offset="0" style="stop-color:#FFFFFF"/>
		<stop  offset="0.6599" style="stop-color:#6E6B6C"/>
		<stop  offset="1" style="stop-color:#231F20"/>
	</linearGradient>
	<path class="st29" d="M79.84,134.66c0,0,13.41,15.68,22.03,15.68l-0.72-5.98L79.84,134.66z"/>
	<path class="st22" d="M82.52,120.54c0,0,2.29,1.14,4.39,1.08c2.11-0.06,2.68-1.4,2.68-1.4l-0.47-6.53l-7.42-4.46L82.52,120.54z"/>
	<path class="st22" d="M92.28,103c0,0,1.83,13.41-2.97,13.42c-4.79,0.01-6.24-4.14-7.45-4.92c-1.21-0.78-2.35-1.49-2.47-3.21
		c-0.12-1.72,1.86-1.69,2.51-0.63c0.65,1.06,1.87,0.89,0.94-1.92C81.92,102.93,92.28,103,92.28,103z"/>
	<path class="st22" d="M131.52,126.17c0,0,4.14-4.18,5.36-1.94c1.22,2.24-2.4,4.92-2.4,4.92L131.52,126.17z"/>
	<path class="st22" d="M244.72,95.22c0,0,2.05-1.4,4.2-1.37c2.15,0.04,2.81,0.79,2.73,1.05c-0.08,0.26-3.97,2.99-3.97,2.99
		L244.72,95.22z"/>
	<polygon class="st2" points="198.56,105.73 204.94,109.56 203.9,112.26 196.9,107.08 	"/>
	<polygon class="st2" points="206.26,106.36 204.94,109.56 206.92,111.5 207.79,107.47 	"/>
	<path class="st21" d="M57.25,212.84c-0.23,0-0.43-0.16-0.47-0.4c-0.05-0.26,0.13-0.51,0.39-0.56c0.24-0.04,23.87-4.46,21.67-22.3
		c-0.25-2.02-0.63-4.07-1.03-6.24c-1.59-8.61-3.4-18.36,3.23-28.32c7.54-11.32,24.89-21.11,53.06-29.93
		c66.75-20.9,170.66-41.93,171.7-42.14l0.05-0.01l0.06,0l23.26,0.68l-20.2-3.45l0.1-0.96l25.45,0.92c0.27,0.01,0.47,0.23,0.46,0.5
		c-0.01,0.27-0.23,0.49-0.5,0.46l-18.25-0.66l19.86,3.4l-0.1,0.96l-30.06-0.88c-2.87,0.58-105.45,21.41-171.55,42.1
		c-27.95,8.75-45.14,18.41-52.55,29.55c-6.41,9.63-4.72,18.77-3.09,27.61c0.4,2.18,0.79,4.25,1.04,6.29
		c2.31,18.75-22.21,23.32-22.45,23.36C57.3,212.83,57.27,212.84,57.25,212.84z"/>
	<path class="st22" d="M233.22,97.89c-0.43,0.22-1.78,3.39-1.78,3.39l3.62,2.38c0,0,0.93-1.97,1.48-3.71
		c0.3-0.95,1.59-1.44,2.21-1.86C239.38,97.67,235.44,96.77,233.22,97.89z"/>
	<polygon class="st2" points="231.45,101.28 235.06,103.67 234.49,105.15 230.44,102.68 	"/>
	<path class="st27" d="M77.95,125.73c-3.6,2.56,0.53,8.72,5.84,12.3c5.31,3.58,13.11,8.1,16.29,7.78
		c3.18-0.33,20.9-13.38,20.9-13.38l-2.36-3.6c0,0-17.69,9.44-19.57,8.81C97.18,137,84.15,121.32,77.95,125.73z"/>
	<path class="st22" d="M118.62,128.82c0,0,4.99-1.23,5.93-0.05c0.95,1.18-0.29,1.09-1.62,2.27c-1.45,1.3-1.95,1.38-1.95,1.38
		L118.62,128.82z"/>
	<polygon class="st2" points="82.41,119.02 88.35,121.33 89.5,119.02 90.55,120.27 90.4,123.14 88.6,122.01 87.6,124.1 
		81.56,120.73 	"/>
	<path class="st11" d="M246.43,137.34c-0.06-0.38-0.13-0.76-0.23-1.12l1.84-1.41c-0.24-0.7-0.52-1.38-0.86-2.01l-2.29,0.37
		c-0.41-0.65-0.89-1.25-1.42-1.8l0.89-2.13c-0.55-0.49-1.14-0.93-1.76-1.31l-1.79,1.46c-0.68-0.36-1.39-0.64-2.13-0.85l-0.3-2.3
		c-0.71-0.15-1.44-0.23-2.18-0.25l-0.82,2.16c-0.38,0.02-0.76,0.05-1.15,0.1c-0.38,0.06-0.76,0.13-1.12,0.23l-1.4-1.84
		c-0.71,0.23-1.38,0.52-2.02,0.87l0.37,2.28c-0.65,0.41-1.26,0.89-1.8,1.42l-2.13-0.89c-0.49,0.55-0.93,1.14-1.31,1.76l1.46,1.79
		c-0.36,0.68-0.64,1.39-0.85,2.13l-2.3,0.3c-0.15,0.71-0.23,1.44-0.25,2.18l2.16,0.82c0.02,0.38,0.05,0.76,0.1,1.14
		c0.06,0.38,0.13,0.76,0.23,1.13l-1.84,1.4c0.24,0.7,0.52,1.38,0.87,2.02l2.29-0.37c0.41,0.65,0.89,1.26,1.42,1.8l-0.89,2.14
		c0.55,0.48,1.14,0.93,1.76,1.31l1.79-1.47c0.68,0.36,1.39,0.64,2.13,0.85l0.3,2.3c0.71,0.15,1.44,0.23,2.18,0.25l0.82-2.16
		c0.38-0.02,0.76-0.05,1.14-0.11c0.39-0.06,0.76-0.13,1.13-0.22l1.4,1.84c0.7-0.24,1.38-0.52,2.02-0.87l-0.37-2.29
		c0.65-0.41,1.26-0.89,1.8-1.42l2.13,0.89c0.49-0.55,0.92-1.14,1.31-1.76l-1.47-1.79c0.36-0.67,0.64-1.39,0.85-2.13l2.3-0.3
		c0.14-0.71,0.23-1.44,0.25-2.18l-2.16-0.82C246.52,138.11,246.48,137.73,246.43,137.34z M236.48,143.63
		c-2.61,0.38-5.04-1.43-5.42-4.04c-0.38-2.61,1.42-5.04,4.04-5.42s5.04,1.43,5.42,4.04C240.9,140.82,239.09,143.25,236.48,143.63z"
		/>
	<path class="st12" d="M234.52,130.11c-4.76,0.7-8.06,5.12-7.36,9.89c0.7,4.77,5.12,8.06,9.89,7.37c4.77-0.7,8.06-5.12,7.37-9.89
		C243.71,132.71,239.29,129.41,234.52,130.11z M236.48,143.47c-2.61,0.38-5.04-1.43-5.42-4.04c-0.38-2.61,1.42-5.04,4.04-5.42
		c2.61-0.38,5.04,1.43,5.42,4.04C240.9,140.66,239.09,143.09,236.48,143.47z"/>
	<path class="st11" d="M177.13,194.95c-0.06-0.38-0.13-0.76-0.23-1.12l1.84-1.41c-0.24-0.7-0.52-1.38-0.87-2.01l-2.29,0.37
		c-0.41-0.65-0.89-1.25-1.42-1.8l0.89-2.13c-0.55-0.49-1.14-0.93-1.76-1.31l-1.79,1.46c-0.68-0.36-1.39-0.64-2.13-0.85l-0.3-2.3
		c-0.71-0.15-1.44-0.23-2.18-0.25l-0.82,2.16c-0.38,0.02-0.76,0.05-1.15,0.1c-0.38,0.06-0.76,0.13-1.12,0.23l-1.4-1.84
		c-0.71,0.23-1.38,0.52-2.02,0.87l0.37,2.28c-0.65,0.41-1.26,0.89-1.8,1.42l-2.13-0.89c-0.49,0.55-0.93,1.14-1.31,1.76l1.46,1.79
		c-0.36,0.68-0.64,1.39-0.85,2.13l-2.3,0.3c-0.15,0.71-0.23,1.44-0.25,2.18l2.16,0.82c0.02,0.38,0.05,0.76,0.1,1.14
		c0.06,0.38,0.13,0.76,0.23,1.13l-1.84,1.4c0.24,0.7,0.52,1.38,0.87,2.02l2.29-0.37c0.41,0.65,0.89,1.26,1.42,1.8l-0.89,2.14
		c0.55,0.48,1.14,0.93,1.76,1.31l1.79-1.47c0.68,0.36,1.39,0.64,2.13,0.85l0.3,2.3c0.71,0.15,1.44,0.23,2.18,0.25l0.82-2.16
		c0.38-0.02,0.76-0.05,1.14-0.11c0.39-0.06,0.76-0.13,1.13-0.22l1.4,1.84c0.7-0.24,1.38-0.52,2.02-0.87l-0.37-2.29
		c0.65-0.41,1.26-0.89,1.8-1.42l2.13,0.89c0.49-0.55,0.92-1.14,1.31-1.76l-1.47-1.79c0.36-0.67,0.64-1.39,0.85-2.13l2.3-0.3
		c0.14-0.71,0.23-1.44,0.25-2.18l-2.16-0.82C177.22,195.71,177.19,195.33,177.13,194.95z M167.18,201.23
		c-2.61,0.38-5.04-1.43-5.42-4.04c-0.38-2.61,1.42-5.04,4.04-5.42c2.61-0.38,5.04,1.43,5.42,4.04
		C171.6,198.42,169.79,200.85,167.18,201.23z"/>
	<path class="st12" d="M165.23,187.71c-4.76,0.7-8.06,5.12-7.36,9.89c0.7,4.77,5.12,8.06,9.89,7.37c4.77-0.7,8.06-5.12,7.37-9.89
		C174.42,190.31,169.99,187.02,165.23,187.71z M167.18,201.07c-2.61,0.38-5.04-1.43-5.42-4.04c-0.38-2.61,1.42-5.04,4.04-5.42
		c2.61-0.38,5.04,1.43,5.42,4.04C171.6,198.26,169.79,200.69,167.18,201.07z"/>
	<g>
		<path class="st11" d="M123.77,21.83h34.63c0,0,6.59-0.05,7.88-4.27c0.81-2.64-1.18-5.68-5.41-6.46c-4.78-0.89-5.43-0.94-6.41-5.11
			c-0.98-4.17-2.86-5.58-5.43-5.93c-2.85-0.39-5.42,1.39-7.87,4.45c-1.18,1.48-5.13-1.37-6.88-2.99c-2.21-2.04-7.38-2.1-9.41,2.26
			c-2.3,4.93,1.25,7.11-2.99,9.1c-2.99,1.41-4.23,3.14-4.16,5.11C117.77,19.96,120.95,21.83,123.77,21.83z"/>
		<path class="st30" d="M129.12,21.83c0,0-4.02-0.53-2-4.1c2.08-3.68,7.24,1.09,8.78-4.16c1.59-5.42,7.65-6.97,9.78-2.17
			c1.75,3.95,3.94,4.85,9.51,3.9s5.56,6.01,2.48,6.54C154.58,22.36,129.12,21.83,129.12,21.83z"/>
	</g>
	<g>
		<path class="st11" d="M63.43,71.32h29.12c0,0,4.53,0.01,5.61-3.53c0.68-2.22,0.02-4.83-3.54-5.49c-4.02-0.75-4.56-0.67-5.6-3.85
			c-0.95-2.92-2.75-4.34-4.91-4.64c-2.39-0.33-4.08,0.72-6.71,3.27c-1.14,1.11-3.26-0.88-4.91-2.01c-1.86-1.28-5.68-0.63-7.48,1.72
			c-2.77,3.64,0.39,5.34-3.17,7.02c-2.51,1.18-3.11,2.82-3.06,4.47C58.83,69.93,61.06,71.32,63.43,71.32z"/>
		<path class="st30" d="M69.29,71.34c-1.34-0.03-2.6-0.76-3.18-1.98c-0.38-0.8-0.49-1.81,0.18-2.99c0.97-1.72,3.48-2.64,5.09-1.84
			c1.36,0.68,2.89,2.23,3.46,0.28c1.34-4.56,5.61-4.11,7.02-2.27c1.18,1.54,0.87,2.76,3.05,3.28c1.23,0.3,1.33-0.75,3.29-1.28
			c5.88-1.59,6.32,6.33,3.73,6.78C89.73,71.7,74.04,71.43,69.29,71.34z"/>
	</g>
	<polygon class="st2" points="118.62,128.82 120.98,132.43 119.8,133.29 117.2,129.57 	"/>
	<linearGradient id="SVGID_15_" gradientUnits="userSpaceOnUse" x1="82.6891" y1="117.299" x2="96.2853" y2="112.2756">
		<stop  offset="0" style="stop-color:#FFFFFF"/>
		<stop  offset="0.6599" style="stop-color:#6E6B6C"/>
		<stop  offset="1" style="stop-color:#231F20"/>
	</linearGradient>
	<path class="st31" d="M89.31,116.42c0,0-2.83,0.2-5.04-2.14c-2.21-2.34-0.51,3.89,5.16,3.77L89.31,116.42z"/>
	<linearGradient id="SVGID_16_" gradientUnits="userSpaceOnUse" x1="199.9194" y1="136.0208" x2="204.5689" y2="106.2797">
		<stop  offset="0" style="stop-color:#FFFFFF"/>
		<stop  offset="0.6599" style="stop-color:#6E6B6C"/>
		<stop  offset="1" style="stop-color:#231F20"/>
	</linearGradient>
	<path class="st32" d="M194.17,115.91c0,0,3.9,9.32,15.34,14.42l1.03-5.37c0,0-3.94-1.06-8.64-3.62
		C199.38,119.96,196.66,117.89,194.17,115.91z"/>
	<linearGradient id="SVGID_17_" gradientUnits="userSpaceOnUse" x1="204.5288" y1="97.1562" x2="202.26" y2="112.0716">
		<stop  offset="0" style="stop-color:#FFFFFF"/>
		<stop  offset="0.6599" style="stop-color:#6E6B6C"/>
		<stop  offset="1" style="stop-color:#231F20"/>
	</linearGradient>
	<path class="st33" d="M206.26,104.6c0,0-3.98-0.63-4.95-3.1c-0.97-2.47,1.68,1.26,5.17,1.24L206.26,104.6z"/>
</g>
</svg>
