<?xml version="1.0" encoding="utf-8"?>
<!-- Generator: Adobe Illustrator 23.0.2, SVG Export Plug-In . SVG Version: 6.00 Build 0)  -->
<svg version="1.1" id="Layer_1" xmlns="http://www.w3.org/2000/svg" xmlns:xlink="http://www.w3.org/1999/xlink" x="0px" y="0px"
	 viewBox="0 0 845 697" style="enable-background:new 0 0 845 697;" xml:space="preserve">
<style type="text/css">
	.st0{opacity:0.41;fill:url(#SVGID_1_);}
	.st1{opacity:0.59;fill:#ADD2E5;}
	.st2{opacity:0.59;}
	.st3{fill:#B2DEEA;}
	.st4{fill:#D1EBF2;}
	.st5{fill:#E4EFF3;}
	.st6{fill:#96D0D2;}
	.st7{fill:#C8E1ED;}
	.st8{fill:#CADFEA;}
	.st9{fill:#08416B;}
	.st10{fill:#FFFFFF;}
	.st11{fill:#E34899;}
	.st12{fill:#194876;}
	.st13{fill:#D0E2F3;}
	.st14{fill:#FFD16E;}
	.st15{fill:#FFB535;}
	.st16{fill:#FFCB5B;}
	.st17{fill:#FFE8B5;}
	.st18{fill:#FFB691;}
	.st19{fill:#145182;}
	.st20{fill:#002144;}
	.st21{fill:#EB9D76;}
	.st22{fill:#1E2D35;}
	.st23{fill:#ADD2E5;}
	.st24{fill:#0D243B;}
	.st25{fill:#FE99B7;}
	.st26{opacity:0.54;fill:#FFB600;}
	.st27{opacity:0.38;fill:#F4FBFE;}
	.st28{fill:#FFB600;}
	.st29{fill:#D0EBF5;}
	.st30{opacity:0.29;fill:#FFFFFF;}
</style>
<linearGradient id="SVGID_1_" gradientUnits="userSpaceOnUse" x1="547.6694" y1="311.4931" x2="59.845" y2="416.6874">
	<stop  offset="0" style="stop-color:#C5E7E8"/>
	<stop  offset="1" style="stop-color:#FFF5FE"/>
</linearGradient>
<path class="st0" d="M252.21,131.55c-86.87,22.33-168.84,65.82-208.54,102.82c-56.1,52.29-65.56,117.81,19.27,155.65
	c87.48,39.02-1.26,108.27,54.55,171.06c91.76,103.22,343.49,18.27,448-44.97c181.2-109.63,230.48-266.47,157.93-337.12
	C647.38,104.96,442.86,82.54,252.21,131.55z"/>
<path class="st1" d="M680.74,240.94c-0.15-1-0.37-1.97-0.66-2.91l3.24-3.94c-0.79-1.77-1.79-3.42-2.95-4.91l-5.01,1.01
	c-1.4-1.42-3.02-2.61-4.78-3.54l-0.5-5.09c-1.77-0.68-3.64-1.15-5.56-1.39l-2.83,4.26c-0.98-0.01-1.98,0.06-2.98,0.21
	c-1,0.15-1.97,0.37-2.91,0.67l-3.95-3.24c-1.77,0.79-3.42,1.79-4.91,2.95l1.01,5.01c-1.42,1.4-2.61,3.02-3.54,4.79l-5.08,0.5
	c-0.68,1.77-1.16,3.63-1.39,5.56l4.26,2.82c-0.01,0.99,0.07,1.98,0.22,2.98c0.15,1,0.37,1.98,0.67,2.91l-3.24,3.94
	c0.79,1.77,1.79,3.42,2.96,4.92l5-1.01c1.4,1.41,3.02,2.61,4.79,3.53l0.5,5.09c1.77,0.68,3.63,1.15,5.56,1.39l2.83-4.26
	c0.98,0.01,1.98-0.07,2.97-0.21c1-0.15,1.98-0.37,2.91-0.67l3.95,3.24c1.77-0.79,3.41-1.79,4.91-2.95l-1.01-5.01
	c1.41-1.4,2.61-3.02,3.54-4.78l5.09-0.5c0.68-1.77,1.15-3.64,1.39-5.57l-4.25-2.82C680.97,242.94,680.89,241.94,680.74,240.94z
	 M663.31,255.34c-6.37,0.95-12.3-3.44-13.26-9.81c-0.95-6.37,3.44-12.3,9.81-13.26c6.37-0.95,12.31,3.43,13.26,9.81
	C674.07,248.45,669.68,254.39,663.31,255.34z"/>
<g class="st2">
	<path class="st3" d="M335.36,522.92c-0.36-2.43-0.9-4.78-1.6-7.07l7.86-9.56c-1.92-4.3-4.34-8.3-7.17-11.92l-12.16,2.46
		c-3.41-3.44-7.33-6.34-11.6-8.6l-1.21-12.34c-4.31-1.64-8.83-2.79-13.49-3.36l-6.86,10.33c-2.38-0.02-4.8,0.16-7.23,0.52
		c-2.42,0.36-4.78,0.9-7.05,1.62l-9.58-7.87c-4.3,1.92-8.3,4.34-11.92,7.17l2.46,12.16c-3.44,3.41-6.34,7.33-8.59,11.61l-12.33,1.21
		c-1.66,4.29-2.8,8.82-3.38,13.5l10.33,6.84c-0.01,2.4,0.16,4.8,0.52,7.23c0.36,2.43,0.9,4.8,1.62,7.07l-7.87,9.56
		c1.92,4.3,4.34,8.3,7.18,11.93l12.14-2.45c3.41,3.43,7.32,6.33,11.61,8.58l1.21,12.34c4.29,1.65,8.82,2.79,13.49,3.36l6.86-10.33
		c2.38,0.02,4.8-0.16,7.22-0.52c2.43-0.36,4.8-0.9,7.07-1.62l9.58,7.87c4.29-1.92,8.28-4.33,11.92-7.17l-2.46-12.16
		c3.43-3.41,6.33-7.32,8.58-11.6l12.34-1.21c1.64-4.31,2.79-8.83,3.36-13.51l-10.31-6.84C335.9,527.77,335.73,525.35,335.36,522.92z
		 M293.05,557.87c-15.46,2.31-29.86-8.35-32.17-23.81c-2.31-15.46,8.34-29.86,23.8-32.17c15.46-2.31,29.87,8.34,32.18,23.8
		C319.17,541.14,308.51,555.56,293.05,557.87z"/>
	
		<ellipse transform="matrix(0.9388 -0.3445 0.3445 0.9388 -164.8688 131.9607)" class="st3" cx="288.86" cy="529.87" rx="13.83" ry="13.83"/>
</g>
<g>
	<path class="st4" d="M413.27,499.32c-0.19-1.3-0.48-2.55-0.86-3.77l4.19-5.1c-1.02-2.3-2.31-4.43-3.82-6.36l-6.49,1.31
		c-1.82-1.84-3.91-3.38-6.19-4.59l-0.65-6.59c-2.3-0.88-4.71-1.49-7.2-1.8l-3.66,5.51c-1.27-0.01-2.56,0.08-3.86,0.28
		c-1.29,0.19-2.55,0.48-3.77,0.86l-5.11-4.2c-2.3,1.02-4.43,2.31-6.36,3.82l1.31,6.49c-1.84,1.82-3.38,3.91-4.59,6.2l-6.58,0.64
		c-0.89,2.29-1.5,4.71-1.8,7.2l5.51,3.65c-0.01,1.28,0.08,2.56,0.28,3.86c0.19,1.3,0.48,2.56,0.86,3.77l-4.2,5.1
		c1.02,2.3,2.31,4.43,3.83,6.37l6.48-1.31c1.82,1.83,3.91,3.38,6.2,4.58l0.64,6.59c2.29,0.88,4.71,1.49,7.2,1.8l3.66-5.51
		c1.27,0.01,2.56-0.08,3.85-0.28c1.3-0.19,2.56-0.48,3.77-0.86l5.11,4.2c2.29-1.02,4.42-2.31,6.36-3.82l-1.31-6.49
		c1.83-1.82,3.38-3.91,4.58-6.19l6.59-0.64c0.88-2.3,1.49-4.71,1.79-7.21l-5.5-3.65C413.55,501.91,413.46,500.62,413.27,499.32z
		 M390.68,517.98c-8.25,1.23-15.94-4.46-17.17-12.71c-1.23-8.25,4.45-15.93,12.7-17.17c8.25-1.23,15.94,4.45,17.18,12.7
		C404.62,509.05,398.93,516.74,390.68,517.98z"/>
	<circle class="st4" cx="388.45" cy="503.04" r="7.38"/>
</g>
<path class="st5" d="M602.11,192.69H312.19V96.94c0-14.65,11.88-26.52,26.52-26.52h263.39V192.69z"/>
<g>
	<g>
		<path class="st6" d="M540.4,147.27H349.09c-1.16,0-2.11-0.94-2.11-2.11v0c0-1.16,0.94-2.11,2.11-2.11H540.4
			c1.16,0,2.11,0.94,2.11,2.11v0C542.51,146.32,541.56,147.27,540.4,147.27z"/>
	</g>
	<g>
		<path class="st7" d="M540.4,107.96H349.09c-1.16,0-2.11-0.94-2.11-2.11v0c0-1.16,0.94-2.11,2.11-2.11H540.4
			c1.16,0,2.11,0.94,2.11,2.11v0C542.51,107.02,541.56,107.96,540.4,107.96z"/>
	</g>
</g>
<path class="st8" d="M602.11,215.42L602.11,215.42c-10.27,0-18.59-8.32-18.59-18.59V88.74c0-10.27,8.32-18.59,18.59-18.59h0
	c10.27,0,18.59,8.32,18.59,18.59v108.08C620.7,207.1,612.38,215.42,602.11,215.42z"/>
<path class="st9" d="M590.87,496.54H248.35c-27.94,0-50.58-22.65-50.58-50.58V233.23c0-27.94,22.65-50.58,50.58-50.58h342.51
	c27.94,0,50.58,22.65,50.58,50.58v212.73C641.45,473.9,618.8,496.54,590.87,496.54z"/>
<path class="st10" d="M634.47,200.94v277.32c0,6.23-5.07,11.31-11.31,11.31h-407.1c-6.23,0-11.31-5.07-11.31-11.31V200.94
	c0-6.23,5.07-11.31,11.31-11.31h407.1C629.39,189.63,634.47,194.71,634.47,200.94z"/>
<path class="st1" d="M592.57,189.63v76.9c0,5.13-2.08,9.78-5.44,13.14c-3.36,3.36-8.01,5.44-13.14,5.44h-55.78V489.9H240V189.63
	H592.57z"/>
<polygon class="st10" points="509.15,138.51 527.74,138.51 564.93,285.78 488.73,285.78 "/>
<rect x="439.79" y="132.46" class="st5" width="122.53" height="128.43"/>
<polygon class="st10" points="526.83,139.51 500.87,180.93 507.42,139.51 "/>
<path class="st8" d="M527.74,284.78L527.74,284.78c-10.27,0-18.59-8.32-18.59-18.59V158.1c0-10.27,8.32-18.59,18.59-18.59l0,0
	c10.27,0,18.59,8.32,18.59,18.59v108.08C546.34,276.46,538.01,284.78,527.74,284.78z"/>
<path class="st5" d="M564.93,284.78L564.93,284.78c-10.27,0-18.59-8.32-18.59-18.59V158.1c0-10.27,8.32-18.59,18.59-18.59l0,0
	c10.27,0,18.59,8.32,18.59,18.59v108.08C583.52,276.46,575.2,284.78,564.93,284.78z"/>
<path class="st10" d="M509.15,489.56H230.94v-299.7c0-27.8,22.54-50.35,50.35-50.35h227.86V489.56z"/>
<path class="st7" d="M468.09,432.93v-2.03h7.26l0.04,1.81l0,0.22L468.09,432.93z M460.82,432.93h-7.26v-2.03h7.26V432.93z
	 M446.29,432.93h-7.26v-2.03h7.26V432.93z M431.76,432.93h-7.26v-2.03h7.26V432.93z M417.23,432.93h-7.26v-2.03h7.26V432.93z
	 M402.71,432.93h-7.26v-2.03h7.26V432.93z M387.74,432.24c-1.37-0.85-2.19-2.33-2.19-3.94v-3.59h2.03v3.59
	c0,0.91,0.46,1.73,1.23,2.21L387.74,432.24z M479.99,426.68h-2.03v-7.27h2.03V426.68z M387.58,417.45h-2.03v-7.27h2.03V417.45z
	 M479.99,412.15h-2.03v-7.26h2.03V412.15z M387.58,402.92h-2.03v-7.26h2.03V402.92z M479.99,397.62h-2.03v-7.27h2.03V397.62z
	 M387.58,388.39h-2.03v-7.27h2.03V388.39z M479.99,383.09h-2.03v-7.26h2.03V383.09z M387.58,373.86h-2.03v-1.59
	c0-2.54,2.07-4.63,4.61-4.64l0.01,2.03c-1.43,0.01-2.59,1.18-2.59,2.6V373.86z M476.71,370.04c-0.41-0.25-0.88-0.38-1.36-0.38h-5.27
	v-2.03h5.27c0.86,0,1.7,0.24,2.42,0.68L476.71,370.04z M462.81,369.66h-7.26v-2.03h7.26V369.66z M448.28,369.66h-7.26v-2.03h7.26
	V369.66z M433.75,369.66h-7.26v-2.03h7.26V369.66z M419.23,369.66h-7.27v-2.03h7.27V369.66z M404.7,369.66h-7.26v-2.03h7.26V369.66z
	"/>
<g>
	<path class="st11" d="M633.04,377.45h-35.23c-9.37,0-16.97-7.6-16.97-16.97v0c0-9.37,7.6-16.97,16.97-16.97h35.23
		c9.37,0,16.97,7.6,16.97,16.97v0C650.01,369.85,642.41,377.45,633.04,377.45z"/>
	<polygon class="st11" points="590.55,374.88 585.22,388.93 611.06,372.78 	"/>
	<path class="st11" d="M638.85,361.85h-46.83c-0.75,0-1.37-0.61-1.37-1.37l0,0c0-0.75,0.61-1.37,1.37-1.37h46.83
		c0.75,0,1.37,0.61,1.37,1.37l0,0C640.21,361.23,639.6,361.85,638.85,361.85z"/>
	<path class="st11" d="M621.2,369.74h-29.19c-0.75,0-1.37-0.61-1.37-1.37l0,0c0-0.75,0.61-1.37,1.37-1.37h29.19
		c0.75,0,1.37,0.61,1.37,1.37l0,0C622.56,369.13,621.95,369.74,621.2,369.74z"/>
	<path class="st11" d="M638.85,354h-46.83c-0.75,0-1.37-0.61-1.37-1.37l0,0c0-0.75,0.61-1.37,1.37-1.37h46.83
		c0.75,0,1.37,0.61,1.37,1.37l0,0C640.21,353.38,639.6,354,638.85,354z"/>
</g>
<g>
	<g>
		<path class="st12" d="M119.77,244.09h22.08c9.27,0,16.79-7.52,16.79-16.79v-0.36c0-9.27-7.52-16.79-16.79-16.79h-22.08
			c-9.27,0-16.79,7.52-16.79,16.79v0.36C102.98,236.57,110.5,244.09,119.77,244.09z"/>
		<polygon class="st12" points="148.94,241.52 154.27,255.57 128.43,239.42 		"/>
		<g>
			<path class="st12" d="M110.51,228.49h38.69c0.75,0,1.37-0.61,1.37-1.37l0,0c0-0.75-0.61-1.37-1.37-1.37h-38.69
				c-0.75,0-1.37,0.61-1.37,1.37l0,0C109.15,227.87,109.76,228.49,110.51,228.49z"/>
		</g>
		<g>
			<path class="st12" d="M110.51,236.38h38.69c0.75,0,1.37-0.61,1.37-1.37l0,0c0-0.75-0.61-1.37-1.37-1.37h-38.69
				c-0.75,0-1.37,0.61-1.37,1.37l0,0C109.15,235.77,109.76,236.38,110.51,236.38z"/>
		</g>
		<g>
			<path class="st12" d="M110.51,220.64h38.69c0.75,0,1.37-0.61,1.37-1.37v0c0-0.75-0.61-1.37-1.37-1.37h-38.69
				c-0.75,0-1.37,0.61-1.37,1.37v0C109.15,220.02,109.76,220.64,110.51,220.64z"/>
		</g>
	</g>
</g>
<g>
	<polygon class="st13" points="689.42,62.56 688.52,80.79 749.72,26.37 	"/>
	<polygon class="st5" points="668.06,40.81 718.53,79.07 755.06,21 	"/>
	<polygon class="st12" points="755.06,21 686.32,54.65 688.52,80.79 696.64,62.48 	"/>
</g>
<g>
	<path class="st14" d="M811.12,613.94c0,0-30.21,2.4-57.11,4.45c-3.66,0.29-7.26,0.55-10.72,0.82c-3.79,0.28-7.4,0.55-10.73,0.79
		c-6.46,0.47-11.85,0.86-15.33,1.06c-0.17,0.01-0.34,0.02-0.5,0.03c-1.78,0.1-2.98,0.16-3.5,0.16c-0.87,0-2.95-0.84-5.87-2.28h-0.01
		c-8.39-4.12-23.66-13.09-36.69-20.95c-7.04-4.24-13.43-8.16-17.73-10.81c-3.47-2.14-5.58-3.46-5.58-3.46l-8.47-0.76
		c0,0-3.35-6.32-6.24-14.01c-2.34-6.21-4.36-13.31-4.06-18.7c0.23-4.42,2.02-7.69,6.45-8.42c5.31-0.87,10.06-0.77,14.62,0.21
		c9.7,2.05,18.55,8.09,30.07,17.52c13.76,11.26,35.38,30.88,48.81,38.21c3.12,1.7,5.8,2.74,7.84,2.86c2.5,0.14,7.14-1.11,13.29-2.01
		c3.33-0.49,7.11-0.88,11.21-0.88h0.01c1.06,0,2.13,0.01,3.21,0.02c20.5,0.25,44.71,2.87,44.71,2.87L811.12,613.94z"/>
	<path class="st15" d="M764.1,597.8l-10.08,20.59c-3.66,0.29-7.26,0.55-10.72,0.82c-3.79,0.28-7.4,0.55-10.73,0.79l17.09-21.34
		c3.33-0.49,7.11-0.88,11.21-0.88h0.01C761.95,597.78,763.01,597.79,764.1,597.8z"/>
	<path class="st15" d="M717.49,621.26l-0.74-0.16l-9.37-2.12c-12.91-6.32-42.16-24.18-54.43-31.75l-7.7-24.98l72.01,58.82
		L717.49,621.26z"/>
	<polygon class="st12" points="522.13,470.04 539.27,506.76 569.81,515.14 550.16,464.56 	"/>
	<g>
		<path class="st16" d="M505.3,453.17h-74.69c-7.89,0-14.29-6.4-14.29-14.29v-47.02c0-7.89,6.4-14.29,14.29-14.29h74.69
			c7.89,0,14.29,6.4,14.29,14.29v47.02C519.59,446.77,513.19,453.17,505.3,453.17z"/>
		<path class="st10" d="M423.05,438.83V391.9c0-4.2,3.41-7.61,7.61-7.61h74.6c4.2,0,7.61,3.41,7.61,7.61v46.93
			c0,4.2-3.41,7.61-7.61,7.61h-74.6C426.45,446.44,423.05,443.03,423.05,438.83z"/>
		<g>
			<polygon class="st16" points="428.73,446.46 455.28,400.48 481.83,446.46 			"/>
			<polygon class="st16" points="463.33,446.53 483.46,411.67 503.59,446.53 			"/>
			<polygon class="st16" points="487.5,411.67 483.46,411.67 483.24,417.9 489.73,421.89 			"/>
			<polygon class="st16" points="459.27,400.48 455.23,400.48 455.01,406.71 461.5,410.7 			"/>
			<circle class="st16" cx="474.31" cy="398.49" r="4.37"/>
		</g>
		<g>
			<polygon class="st17" points="432.77,446.46 459.32,400.48 485.86,446.46 			"/>
			<polygon class="st17" points="467.37,446.53 487.5,411.67 507.63,446.53 			"/>
			<rect x="474.31" y="394.12" class="st16" width="4.04" height="8.75"/>
			<circle class="st17" cx="478.35" cy="398.49" r="4.37"/>
		</g>
	</g>
	<path class="st14" d="M772.97,582.73c0,0-4.96,6.23-12.09,15.05h-0.01c-5.07,6.28-11.27,13.86-17.57,21.43
		c-13.57,16.26-27.64,32.48-32.37,35.57c-10.01,6.55-25.13,10.92-65.12-25.81c-17.41-16-28.48-26.99-35.5-34.41
		c-10.38-10.97-11.9-14.14-11.9-14.14s14.22-24.44,30.16-30.12c3.2-1.14,6.49-1.53,9.72-0.8c1.48,0.34,2.87,0.8,4.16,1.38
		c15.69,6.99,18.55,30.68,20.69,36.29c0.65,1.69,3.59,5.81,7.51,10.88c10.16,13.14,26.88,32.67,26.88,32.67s4.33-5.36,9.81-11.72
		c6.12-7.09,13.65-15.41,18.22-18.91c0.83-0.64,1.83-1.4,2.95-2.25c10.62-8.02,32.6-24.33,32.6-24.33L772.97,582.73z"/>
	<path class="st15" d="M649.65,542.08c-1.91,1.92-4.43,4.79-7.19,8.79c-3.06,4.43-6.44,10.24-9.65,17.73
		c-0.06,0.13-0.12,0.27-0.17,0.39c-6.05,13.83-15.88,21.66-22.32,25.56c-10.38-10.97-11.9-14.14-11.9-14.14s14.22-24.44,30.16-30.12
		c0.23-4.42,2.02-7.69,6.45-8.42C640.34,541.01,645.09,541.1,649.65,542.08z"/>
	<path class="st18" d="M556.61,468.47c0,0-8.67,33.52-17.34,19.27c-2.8-4.59-5.13-7.39-7.01-9.06c-2.42-2.15-4.08-2.46-5.02-2.38
		h-0.01c-0.58,0.06-0.87,0.27-0.87,0.27s-10.22,3.47-15.61-8.47c-5.4-11.94-5.5-26.59-5.5-26.59l13.98-5.98L556.61,468.47z"/>
	<path class="st19" d="M649.48,539.76c-4.05,5.01-14.07,19.65-23.51,32.17c-9.43,12.53-28.9,15.22-28.9,15.22
		s-9.83-19.07-19.84-30.44c-9.99-11.34-19.02-10.6-31.29-16.32c-0.02-0.02-0.07-0.03-0.12-0.06c-0.32-0.15-0.64-0.3-0.94-0.45
		c-0.03-0.02-0.06-0.03-0.08-0.05c-11.44-5.81-13.62-14.91-19.99-21.47c-6.54-6.74-16.95-8.09-30.44-12.33
		c-3.54-1.11-7.21-2.31-10.85-3.64h-0.01c-10.24-3.71-20.15-8.36-25.55-14.46c-7.32-8.29-28.9-35.07-28.9-35.07l8.29-7.32
		c0,0,35.64,31.79,39.11,33.52s32.75,8.47,42.19,10.21c9.44,1.73,15.99-1.16,18.88-3.65c2.08-1.8,8.85-6.3,12.48-8.68h0.01
		c1.41-0.94,2.35-1.54,2.35-1.54s8.17-9.11,21.54-3.92c1.43,0.55,2.92,1.27,4.47,2.18c11.11,6.57,18.31,23.27,25.36,35.63
		c3.1,5.42,6.15,10.01,9.5,12.54C624.23,530.13,649.48,539.76,649.48,539.76z"/>
	<path class="st12" d="M603.75,509.3c-11.74-0.17-28.28,3.49-36.16-3.32c-11.17-9.63-17.57-29.04-17.57-29.04h0.01l23.88-5.46
		c1.43,0.55,2.92,1.27,4.47,2.18C589.5,480.24,596.7,496.94,603.75,509.3z"/>
	<path class="st20" d="M507.68,430.97c-5.26,9.99-2.14,24.96,11.27,30.63c15.03,6.36,22.64-0.19,33.43,19.27
		c10.79,19.46,33.04,19.46,47.49,10.79c14.45-8.67,19.07-13.29,41.9-8.96c22.83,4.33,27.17-13,19.94-26.3
		c-7.22-13.29-28.61-21.96-45.66-15.32s-30.92,10.11-44.22,1.44c-13.29-8.67-26.01-21.1-40.17-21.67S510.57,425.48,507.68,430.97z"
		/>
	<path class="st18" d="M437.35,445.55c0,0-3.52-5.88-6.84-8.04c-3.32-2.17-8.81-6.79-9.83-4.77c-1.01,2.02,4.48,7.08,4.48,7.08
		s-7.22-1.88-8.09-5.49c-0.87-3.61-2.6-1.13-2.31,4.57c0.29,5.69,0.43,7.86,4.19,9.45c3.76,1.59,10.11,4.53,10.11,4.53
		L437.35,445.55z"/>
	<path class="st20" d="M808.81,600.67c0,0,10.55-3.93,14.02-2.63c3.47,1.3,14.59,19.94,18.21,28.9c3.61,8.96,4.16,8.95,2.17,9.97
		c-3.66,1.88-12.43-2.17-18.5-10.11s-11.56-13.02-13.58-12.86L808.81,600.67z"/>
	<path class="st20" d="M761.13,573.48c0,0,2.46-3.76,3.47-6.79s2.75-9.25,8.38-6.36c5.64,2.89,21.24,16.62,26.44,19.22
		c5.2,2.6,11.16,6.9,11.16,6.9s-5.52,3.21-16.65-0.11c-11.13-3.32-20.95-3.61-20.95-3.61L761.13,573.48z"/>
	<path class="st20" d="M820.37,599.78c-1.74,4.44,1.19,8.67,5.65,14.59c4.46,5.92,6.92,10.69,10.97,16.91
		c4.05,6.21,7.08,7.66,7.95,3.32c0.87-4.33-5.69-12.11-8.41-16.93C833.81,612.84,823.55,591.68,820.37,599.78z"/>
	<path class="st20" d="M768.64,563.22c1.63,1.57,8.24,6.65,14.02,9.54c5.78,2.89,13.52,11.46,20.95,13.15
		c6.36,1.44,7.8,1.3,7.51-1.59s-7.37-8.53-16.04-12.43s-16.62-11.42-20.81-12.28S765.63,560.33,768.64,563.22z"/>
	<path class="st21" d="M532.26,478.68c-2.42-2.15-4.08-2.46-5.02-2.38c1.83-0.66,5.88-2.68,6.64-7.88
		C533.88,468.41,535.15,474.48,532.26,478.68z"/>
	<path class="st12" d="M544.81,539.84c-11.44-5.81-13.62-14.91-19.99-21.47c-6.54-6.74-16.95-8.09-30.44-12.33
		c-3.54-1.11-7.21-2.31-10.85-3.64c1.43,0.35,24.53,5.83,32.1,6.67c7.79,0.87,17.13,4.33,18.53,13
		C535.47,530.16,540.12,537.22,544.81,539.84z"/>
	<path class="st20" d="M589.56,444.16c-8.96,0-17.54-4.79-29.61-11.54l-2.27-1.27c-19.81-11.03-32.99-8.36-33.12-8.33l-0.24-1.13
		c0.55-0.12,13.74-2.8,33.93,8.45l2.27,1.27c18.99,10.61,28.52,15.93,44.36,6.65c16.79-9.84,35.35-4.17,35.53-4.11l-0.35,1.1
		c-0.18-0.06-18.26-5.57-34.6,4.01C599.61,442.69,594.53,444.16,589.56,444.16z"/>
	<path class="st22" d="M600.43,481.85"/>
</g>
<g>
	<path class="st7" d="M338.53,229.33h-77.49c-3.17,0-5.74-2.57-5.74-5.74v-53.65c0-3.17,2.57-5.74,5.74-5.74h77.49
		c3.17,0,5.74,2.57,5.74,5.74v53.65C344.27,226.76,341.7,229.33,338.53,229.33z"/>
	<path class="st10" d="M261.1,219.73V173.8c0-2.1,1.7-3.81,3.81-3.81h69.76c2.1,0,3.81,1.7,3.81,3.81v45.92
		c0,2.1-1.7,3.81-3.81,3.81h-69.76C262.8,223.53,261.1,221.83,261.1,219.73z"/>
	<g>
		<polygon class="st23" points="265.99,223.55 288.86,183.94 311.73,223.55 		"/>
		<polygon class="st6" points="295.8,223.62 313.14,193.58 330.48,223.62 		"/>
		<polygon class="st6" points="316.62,193.58 313.14,193.58 312.95,198.95 318.54,202.38 		"/>
		<polygon class="st6" points="292.3,183.94 288.82,183.94 288.63,189.31 294.22,192.74 		"/>
		
			<ellipse transform="matrix(0.9239 -0.3827 0.3827 0.9239 -46.5 130.6878)" class="st6" cx="305.26" cy="182.23" rx="3.77" ry="3.77"/>
	</g>
	<g>
		<polygon class="st7" points="269.47,223.55 292.34,183.94 315.21,223.55 		"/>
		<polygon class="st7" points="299.28,223.62 316.62,193.58 333.96,223.62 		"/>
		<rect x="305.26" y="178.46" class="st6" width="3.48" height="7.53"/>
		
			<ellipse transform="matrix(0.9239 -0.3827 0.3827 0.9239 -46.2352 132.0192)" class="st7" cx="308.73" cy="182.23" rx="3.77" ry="3.77"/>
	</g>
</g>
<g>
	<g>
		<path class="st7" d="M486.62,227.37H362.13c-1.16,0-2.11-0.94-2.11-2.11l0,0c0-1.16,0.94-2.11,2.11-2.11h124.49
			c1.16,0,2.11,0.94,2.11,2.11l0,0C488.73,226.42,487.79,227.37,486.62,227.37z"/>
	</g>
	<g>
		<path class="st7" d="M486.62,207.71H362.13c-1.16,0-2.11-0.94-2.11-2.11l0,0c0-1.16,0.94-2.11,2.11-2.11h124.49
			c1.16,0,2.11,0.94,2.11,2.11l0,0C488.73,206.77,487.79,207.71,486.62,207.71z"/>
	</g>
	<g>
		<path class="st7" d="M486.62,188.06H362.13c-1.16,0-2.11-0.94-2.11-2.11l0,0c0-1.16,0.94-2.11,2.11-2.11h124.49
			c1.16,0,2.11,0.94,2.11,2.11l0,0C488.73,187.12,487.79,188.06,486.62,188.06z"/>
	</g>
	<g>
		<path class="st7" d="M486.62,168.41H362.13c-1.16,0-2.11-0.94-2.11-2.11l0,0c0-1.16,0.94-2.11,2.11-2.11h124.49
			c1.16,0,2.11,0.94,2.11,2.11l0,0C488.73,167.47,487.79,168.41,486.62,168.41z"/>
	</g>
</g>
<g>
	<g>
		<path class="st7" d="M363.52,431.57H254.12c-1.02,0-1.85-0.94-1.85-2.11l0,0c0-1.16,0.83-2.11,1.85-2.11h109.39
			c1.02,0,1.85,0.94,1.85,2.11l0,0C365.37,430.62,364.54,431.57,363.52,431.57z"/>
	</g>
	<g>
		<path class="st7" d="M363.52,411.91H254.12c-1.02,0-1.85-0.94-1.85-2.11l0,0c0-1.16,0.83-2.11,1.85-2.11h109.39
			c1.02,0,1.85,0.94,1.85,2.11l0,0C365.37,410.97,364.54,411.91,363.52,411.91z"/>
	</g>
	<g>
		<path class="st7" d="M363.52,392.26H254.12c-1.02,0-1.85-0.94-1.85-2.11l0,0c0-1.16,0.83-2.11,1.85-2.11h109.39
			c1.02,0,1.85,0.94,1.85,2.11l0,0C365.37,391.32,364.54,392.26,363.52,392.26z"/>
	</g>
	<g>
		<path class="st7" d="M363.52,372.61H254.12c-1.02,0-1.85-0.94-1.85-2.11l0,0c0-1.16,0.83-2.11,1.85-2.11h109.39
			c1.02,0,1.85,0.94,1.85,2.11l0,0C365.37,371.67,364.54,372.61,363.52,372.61z"/>
	</g>
</g>
<g>
	<g>
		<path class="st7" d="M465.7,320.89H274.4c-1.16,0-2.11-0.94-2.11-2.11v0c0-1.16,0.94-2.11,2.11-2.11H465.7
			c1.16,0,2.11,0.94,2.11,2.11v0C467.81,319.95,466.86,320.89,465.7,320.89z"/>
	</g>
	<g>
		<path class="st7" d="M465.7,301.24H274.4c-1.16,0-2.11-0.94-2.11-2.11v0c0-1.16,0.94-2.11,2.11-2.11H465.7
			c1.16,0,2.11,0.94,2.11,2.11v0C467.81,300.3,466.86,301.24,465.7,301.24z"/>
	</g>
	<g>
		<path class="st7" d="M465.7,281.59H274.4c-1.16,0-2.11-0.94-2.11-2.11v0c0-1.16,0.94-2.11,2.11-2.11H465.7
			c1.16,0,2.11,0.94,2.11,2.11v0C467.81,280.65,466.86,281.59,465.7,281.59z"/>
	</g>
</g>
<g>
	<path class="st24" d="M679.12,93.03l-0.58-0.5c1.56-1.83,2.54-2.87,2.55-2.88l0.56,0.53C681.63,90.19,680.66,91.22,679.12,93.03z"
		/>
	<path class="st24" d="M680.85,180.46c-2.22,0-4.41-0.3-6.53-0.89l0.21-0.74c2.45,0.69,5.02,0.97,7.62,0.83l0.04,0.76
		C681.75,180.45,681.3,180.46,680.85,180.46z M689.93,178.77l-0.27-0.71c2.4-0.92,4.65-2.19,6.69-3.78l0.47,0.6
		C694.72,176.52,692.4,177.83,689.93,178.77z M667.16,176.2c-2.12-1.46-4.07-3.27-5.78-5.4l0.6-0.48c1.66,2.07,3.55,3.83,5.61,5.25
		L667.16,176.2z M702.28,169.15l-0.62-0.44c1.48-2.08,2.65-4.39,3.51-6.85l0.72,0.25C705.01,164.64,703.79,167.01,702.28,169.15z
		 M657.22,164.1c-0.56-1.19-1.09-2.45-1.56-3.74c-0.43-1.2-0.81-2.43-1.11-3.68l0.74-0.18c0.3,1.22,0.66,2.43,1.09,3.6
		c0.46,1.27,0.97,2.51,1.53,3.68L657.22,164.1z M606.9,163.99l-0.69-0.34c1.17-2.37,2.46-4.68,3.83-6.87l0.65,0.41
		C609.34,159.36,608.06,161.64,606.9,163.99z M707.46,154.37l-0.76-0.06c0.06-0.82,0.09-1.65,0.09-2.48c0-0.66-0.02-1.33-0.06-1.98
		c-0.06-1.09-0.21-2.17-0.43-3.22l0.75-0.16c0.23,1.08,0.38,2.2,0.44,3.33c0.04,0.67,0.06,1.36,0.06,2.03
		C707.56,152.69,707.53,153.54,707.46,154.37z M615.16,150.82l-0.6-0.47c1.62-2.07,3.37-4.05,5.19-5.91l0.55,0.54
		C618.49,146.81,616.76,148.78,615.16,150.82z M653.49,148.85c-0.02-0.52-0.03-1.05-0.03-1.57c0-2.04,0.15-4.16,0.43-6.31l0.76,0.1
		c-0.28,2.11-0.42,4.2-0.42,6.21c0,0.51,0.01,1.03,0.03,1.54L653.49,148.85z M626.05,139.75l-0.48-0.59
		c2.03-1.64,4.18-3.19,6.39-4.59l0.41,0.65C630.18,136.59,628.06,138.12,626.05,139.75z M703.39,139.58c-1.33-2.08-3.05-4-5.11-5.73
		l0.49-0.59c2.12,1.78,3.89,3.76,5.26,5.9L703.39,139.58z M656.21,133.47l-0.74-0.2c0.66-2.43,1.5-4.94,2.49-7.46l0.71,0.28
		C657.7,128.58,656.87,131.07,656.21,133.47z M639.16,131.42l-0.33-0.69c2.35-1.14,4.79-2.16,7.26-3.02l0.25,0.72
		C643.9,129.29,641.48,130.29,639.16,131.42z M691.81,129.64c-2.22-1.12-4.64-2.07-7.21-2.83l0.22-0.73
		c2.61,0.77,5.08,1.74,7.34,2.88L691.81,129.64z M653.82,126.27l-0.17-0.75c2.56-0.58,5.17-1.02,7.76-1.31l0.08,0.76
		C658.93,125.26,656.35,125.69,653.82,126.27z M677.01,125.17c-2.51-0.36-5.12-0.55-7.75-0.58l0.01-0.77
		c2.66,0.03,5.3,0.23,7.85,0.59L677.01,125.17z M661.84,118.96l-0.69-0.34c1.12-2.27,2.38-4.6,3.74-6.91l0.66,0.39
		C664.21,114.39,662.96,116.7,661.84,118.96z M669.71,105.49l-0.64-0.43c1.44-2.14,2.97-4.29,4.56-6.39l0.61,0.46
		C672.67,101.22,671.14,103.35,669.71,105.49z"/>
	<path class="st24" d="M602.47,174.8l-0.73-0.24c0.41-1.21,0.84-2.43,1.29-3.62l0.72,0.27C603.31,172.38,602.88,173.59,602.47,174.8
		z"/>
</g>
<g>
	<g>
		<path class="st18" d="M229.78,291.18c0,0,1.32-4.98,2.74-7.89c1.42-2.91,3.26-8.39,4.38-8.51c1.12-0.11,1.25,1.74,0.67,5.37
			c-0.59,3.63,1.71,2.11,3.83-1.94c2.12-4.05,2.26,1.81,4.15,5.35c5.16,9.69-3.17,13.46-5.34,14.65
			C238.03,299.39,229.78,291.18,229.78,291.18z"/>
		<path class="st18" d="M126.15,597.31l-7.58,7.99l10.32,13.08c0,0,1.44-4.75,8.88-9.68S126.15,597.31,126.15,597.31z"/>
		<path class="st19" d="M208.79,539.61c-2.56,3.95-16.55,18.36-31.61,33.27c-9.55,9.48-19.53,19.16-27.29,26.49
			c-7.88,7.46-13.45,12.48-13.94,12.4c-1.71-0.28-12.26-12.81-12.26-12.81s0.98-1.33,2.65-3.65c3.34-4.59,9.45-13.04,16.15-22.47
			c8.88-12.52,18.8-26.77,24.64-36.09c3.24-5.17,5.22-8.82,5.08-9.81c-0.33-2.26-9.32-13.28-18.73-24.29
			c-6.27-7.33-12.73-14.67-16.93-19.41c0-0.01-0.01-0.01-0.02-0.01c-2.86-3.22-4.67-5.24-4.67-5.24l-4.5-7.44l-7.27-12.02l5.39-3.87
			l8.03-5.76l18.85-13.53c0,0,3.32,4.4,8.31,11.04c0.57,0.75,1.16,1.54,1.79,2.36c10.97,14.56,28.19,37.4,37.71,49.93
			C214.91,518.07,214.63,530.6,208.79,539.61z"/>
		<path class="st12" d="M178.94,533.31c-8.01,14.21,1.05,20.59-20.04,37.02c-16.08,12.54-27.87,21.46-32.55,24.98
			c10.23-14.07,46.46-64.24,45.87-68.36c-0.54-3.77-25.14-31.83-35.66-43.7c7.34,4.18,18.28,10.31,28.89,15.83
			C183.81,508.64,186.95,519.09,178.94,533.31z"/>
		<path class="st20" d="M110,609.3c0,0-5.1,3.84-4.07,6.97c1.03,3.13,4.85,8.68,5.29,12.05c0.44,3.36,6.09,24.9,10.01,25.65
			c3.92,0.75,4.77-1.11,4.77-1.11s-4.18-29.29-4.04-29.71C122.11,622.73,110,609.3,110,609.3z"/>
		<path class="st20" d="M119.65,603.13c-3.01,1.41-11.35,5.04-10.73,9.38s5.93,8.57,7.18,17.99c1.25,9.42,5.56,21.67,9.03,22.82
			c3.47,1.15,3.63-13.6,3.53-20.2c-0.1-6.6,1.86-16.67,2.26-17.33c0.4-0.67-3.81-3.54-6.54-7.5
			C121.65,604.34,119.65,603.13,119.65,603.13z"/>
		<path class="st18" d="M167.02,651.18c0,0,1.41,12.96,0.93,16.83c-0.48,3.87,15.08,0.83,15.08,0.83l-0.81-16.66L167.02,651.18z"/>
		<path class="st19" d="M183.53,655.76c-9.48,2.55-15.14-0.41-17.38-1.06c-1.38-0.41-9.56-30.72-16.26-55.33
			c-3.01-11.08-5.73-21-7.39-26.53c-0.6-1.96-1.05-3.37-1.34-4.07c-2.94-7.17-6.63-9.6-34.73-48.38
			c-10.87-15.01-17.01-27.78-20.45-37.77c-5.43-15.82-4.1-24.72-4.1-24.72c5.91-6.55,31.44-4.59,43.62-3.23
			c3.97,0.44,6.51,0.82,6.51,0.82s1.96,4,5.08,10.64c4.08,8.68,10.14,21.88,16.4,36.53c4.69,10.98,9.49,22.79,13.65,34.1
			c1.34,3.66,2.62,7.25,3.8,10.76c2.57,7.64,4.62,16.32,6.25,25.36C184.08,611.09,183.53,655.76,183.53,655.76z"/>
		<path class="st12" d="M160.69,446.43l-27.16,2.48l-8.03,5.76c-12.17-1.36-37.7-3.32-43.62,3.23c0,0-1.34,8.9,4.1,24.72
			c4.3-1.88,11.85-4.31,25.14-7.11c5.76-1.22,11.21-2.93,16.26-4.96c3.42-1.36,6.67-2.86,9.71-4.42
			c12.12-6.23,21.03-13.47,25.39-17.35L160.69,446.43z"/>
		<path class="st20" d="M165.86,677.43c0,0-1.09,3.66,0.26,5.14c1.35,1.48,6.82,3.3,10.58,4.79c3.76,1.49,12.36,7.65,16.47,8.7
			c4.11,1.05,13.05,2.32,14.02-2.81L165.86,677.43z"/>
		<path class="st20" d="M167.07,667.54c-0.1,2.27-2.75,10.2-0.08,12.71c2.66,2.52,8.38,3.33,11.72,5.3
			c3.34,1.97,12.6,7.09,17.34,8.29c4.74,1.21,10.67,0.46,11.14-0.59c1.09-2.46-10.05-10.21-15.41-14.36
			c-5.36-4.16-7.92-11.38-8.32-12.32c-0.4-0.94-3.61-0.04-9.21-0.72C168.66,665.16,167.2,664.7,167.07,667.54z"/>
		<path class="st14" d="M241.59,297.26c-0.44,1.28-14.33,25.48-22.05,38.85l0,0.01c-2.28,3.95-4.02,6.96-4.72,8.15
			c-3.35,5.75-14.95,12.4-27.24,18.2c-12.52,5.91-35.04,8.34-35.32,29.95c-0.2,15.88,3.37,31.66,6.26,43.41
			c1.78,7.3,3.31,12.11,3.49,12.36c0.28,0.36-7.74,6.01-17.03,10.81c-7.15,3.7-15.05,6.89-20.5,6.79
			c-12.54-0.23-42.81,9.64-45.15,7.79c-2.34-1.84-12.63-62.84-7.56-94.2c5.89-36.5,33.79-37.01,33.79-37.01s10.99,1.39,21.95,2.58
			c5.65,0.61,11.29,1.16,15.43,1.43c12.16,0.79,51.64-14.66,57.48-18.93c7-5.12,28.43-37.37,29.24-36.95
			C230.48,290.92,242.15,295.6,241.59,297.26z"/>
		<path class="st15" d="M162.01,448.18c0.28,0.36-7.74,6.01-17.03,10.81c-19.41,0.97-45.82-7.18-51.07-18.22
			c-6.89-14.46-15.88-71.07-15.88-71.07l17.84,1.82l13.11,52.74l49.54,11.56C160.31,443.12,161.84,447.94,162.01,448.18z"/>
		<path class="st10" d="M125.4,379.48c-3.58-13.75-19.84-37.11-19.84-37.11s10.99,1.39,21.95,2.58
			C129.75,355.81,125.4,379.48,125.4,379.48z"/>
		<path class="st18" d="M110.94,321.37c0,0-2.53,14.29-5.38,21c0,0,4.4,3.56,11.67,4.74c7.27,1.18,10.3-2.16,10.3-2.16l2.86-17.65
			L110.94,321.37z"/>
		<g>
			<g>
				<path class="st18" d="M145.04,297.18l-3.84,23.73l-18.84-0.55l-3.16-3.51l-3.45-3.83l-4.86-14.7c0,0,1.92-10.13,2.39-10.47
					c0.27-0.2,10.29,0.03,18.73,0.25c6.19,0.17,11.52,0.33,11.52,0.33L145.04,297.18z"/>
				<g>
					<path class="st20" d="M157.92,291.99c-0.2,1.13-0.59,2.29-1.3,3.33c0,0,0,0.01-0.01,0.01c-1.12,1.64-3.01,3.01-6.13,3.56
						c-6.99,1.24-14.07-0.79-18.79-2.6c-4.72-1.8-6.64-1.73-8.27-1.13c-0.67,0.25-0.98,1.39-1.25,2.83
						c-0.23,1.21-0.45,2.61-0.83,3.89c-0.85,2.79-2.59,0.57-3.1-2.12c-0.5-2.69-6.49-3.76-5.62,2.43c0.87,6.2,3.94,5.34,5.35,6.92
						c1.42,1.59,1.13,3.69,4.5,6.06c3.61,2.54,7.09,1.18,8.48,0.26c2.03-1.34,7.03-0.67,8.76-0.39c1.73,0.28,3.53,0.78,3.18,2.39
						c-0.35,1.62-1.58,10.92-3.24,13.04c-0.53,0.68-1.2,1.38-2.1,1.99c-1.95,1.32-5.01,2.28-10.18,1.86
						c-7.57-0.59-11.69-3.67-14.55-7.26c-1.82-2.28-2.91-6.12-3.66-10.12c-0.43-2.31-0.74-4.67-1.01-6.81
						c-0.67-5.5-3.37-8.75-2.82-16.15c0.03-0.4,0.07-0.8,0.12-1.22c0.01-0.1,0.01-0.2,0.03-0.29c1.06-8.49,7.35-14.47,11.58-16.71
						c4.22-2.24,10.66,0.58,13.02,0.85c2.35,0.28,5.2-6.36,13.87-3.18c8.67,3.18,4.86,7.36,7.12,9.5c1.22,1.15,3.06,1.78,4.56,2.65
						c1.28,0.74,2.3,1.67,2.42,3.28C158.12,289.82,158.11,290.9,157.92,291.99z"/>
				</g>
			</g>
		</g>
		<path class="st15" d="M219.54,336.12c-2.28,3.95-4.02,6.96-4.72,8.15c-3.35,5.75-14.95,12.4-27.24,18.2
			c-12.52,5.91-35.04,8.34-35.32,29.95c0,0-1.89-21.43,9.52-28.65C173.19,356.55,192.79,362.35,219.54,336.12z"/>
		<g>
			
				<rect x="182" y="235.33" transform="matrix(0.9312 0.3645 -0.3645 0.9312 148.006 -46.2557)" class="st11" width="29.05" height="267.16"/>
			
				<rect x="190.64" y="235.33" transform="matrix(0.9312 0.3645 -0.3645 0.9312 148.0058 -46.2557)" class="st25" width="11.77" height="267.16"/>
			<polygon class="st17" points="258.75,249.82 231.69,239.23 251.27,212.68 264.92,194.19 262.39,217.04 			"/>
			<polygon class="st19" points="262.39,217.04 251.27,212.68 264.92,194.19 			"/>
			<path class="st20" d="M153.49,502.03l-15.75-6.17c-3.12-1.22-4.66-4.74-3.44-7.87v0l27.05,10.59l0,0
				C160.14,501.71,156.61,503.25,153.49,502.03z"/>
		</g>
		<path class="st18" d="M170.38,431.72c0,0,3.67-1.45,5.72-1.93c2.05-0.47,12.45-3.13,13.2-2.03c1,1.48-4.01,2.64-5.65,3.69
			c-1.63,1.05,5.06,0.01,6.14,1c1.08,0.98-0.85,8.74-1.77,9.47c-0.92,0.73-11.66,0.64-16.35-0.19
			C166.99,440.89,170.38,431.72,170.38,431.72z"/>
		<path class="st16" d="M172.99,442.05c0,0-47.29,3.57-60.95-1.5c-2.04-0.75-4.19-2.53-6.37-5.04c-0.01-0.01-0.01,0-0.01,0
			c-12.45-14.28-26.09-52.22-27.36-59.81c-1.49-8.93,1.91-18.56,10.44-21.13c3.74-1.12,12.87,1.82,18.52,23.83
			c5.65,22,12.27,43.48,14.12,44.21c1.86,0.74,48.65,8.03,50.57,8.34c0.84,0.14,1.15,2.3,1.22,4.67
			C173.27,438.66,172.99,442.05,172.99,442.05z"/>
		<path class="st15" d="M172.99,442.05c0,0-47.29,3.57-60.95-1.5c-2.04-0.75-4.19-2.53-6.37-5.04c0.37,0.3,13.35,10.4,67.51,0.11
			C173.27,438.66,172.99,442.05,172.99,442.05z"/>
		<path class="st18" d="M245.54,283.56c0,0-6.86-2-8.86,2.99c-2,4.98-3.83,12.9,3.52,11.66L245.54,283.56z"/>
	</g>
</g>
<g>
	<path class="st12" d="M255.19,95.27l-20.93,10.75c-1.49,0.77-3.32,0.18-4.09-1.31l-12.14-23.63l26.33-13.52l12.14,23.63
		C257.27,92.68,256.68,94.51,255.19,95.27z"/>
	<path class="st26" d="M242.7,38.95L242.7,38.95c0,0,0,0.01,0,0.01c-0.08,1.4-0.25,2.78-0.52,4.15
		c-1.03,12.74,2.85,25.74,2.85,25.74L218.7,82.37c-2.49-4.85-7.08-9.1-11.49-12.37c-2.56-1.89-5.05-3.46-7.06-4.62
		c-6.34-2.7-11.81-7.55-15.21-14.16c-7.72-15.03-1.79-33.48,13.24-41.19c13.38-6.87,29.47-2.93,38.29,8.63
		c1.09,1.42,2.06,2.96,2.91,4.61C241.95,28.28,243,33.69,242.7,38.95z"/>
	<path class="st27" d="M236.69,18.98c3.39,19.4-6.13,39.52-24.67,48.73c-1.73,0.86-3.49,1.6-5.28,2.22c-2.53-1.93-5.01-3.53-7-4.72
		c-6.31-2.79-11.71-7.71-15.02-14.36c-7.52-15.13-1.34-33.5,13.79-41.01C212,3.15,228.03,7.31,236.69,18.98z"/>
	<g>
		<path class="st28" d="M236.34,86.29l-1.2,0.62l-21.11-41.1c-1.71,0.72-4.08,1.5-6.58,1.61c-3.21,0.14-5.34-2.1-5.97-4.24
			c-0.68-2.33,0.23-4.56,2.4-5.81c1.86-1.08,4.37-0.75,5.89,0.14c1.42,0.83,2.59,2.08,3.38,3.61l1.5,2.91
			c0.81-0.4,1.3-0.69,1.32-0.7l0.71,1.15c-0.06,0.04-0.57,0.35-1.41,0.76L236.34,86.29z M204.7,38.46c-0.05,0.03-0.1,0.05-0.15,0.08
			c-1.62,0.94-2.28,2.53-1.78,4.26c0.48,1.65,2.13,3.38,4.61,3.27c2.25-0.1,4.42-0.8,6.02-1.47l-1.46-2.85
			c-0.67-1.3-1.66-2.36-2.86-3.06C207.97,38.03,206.08,37.75,204.7,38.46z"/>
		<path class="st28" d="M239.14,84.85l-1.2,0.62l-21.08-41.04c-0.82,0.44-1.37,0.67-1.43,0.7l-0.52-1.25
			c0.02-0.01,0.54-0.23,1.34-0.66l-1.5-2.91c-0.79-1.53-1.12-3.21-0.97-4.85c0.16-1.75,1.35-3.99,3.32-4.87
			c2.28-1.03,4.62-0.47,6.12,1.44c1.37,1.76,1.95,4.8-0.03,7.32c-1.55,1.97-3.56,3.44-5.14,4.41L239.14,84.85z M217.5,31.89
			c-1.39,0.71-2.26,2.41-2.38,3.69c-0.13,1.39,0.16,2.81,0.82,4.11l1.46,2.85c1.47-0.91,3.31-2.27,4.7-4.04
			c1.53-1.95,1.09-4.3,0.03-5.65c-1.11-1.42-2.79-1.81-4.5-1.04C217.6,31.84,217.55,31.86,217.5,31.89z"/>
	</g>
	<path class="st29" d="M248.64,70.64l-30.58,15.71c-0.32,0.16-0.7,0.04-0.87-0.28l-1.79-3.49c-0.16-0.32-0.04-0.7,0.28-0.87
		L246.25,66c0.32-0.16,0.7-0.04,0.87,0.28l1.79,3.49C249.08,70.09,248.95,70.48,248.64,70.64z"/>
	<path class="st29" d="M250.84,74.93l-30.58,15.71c-0.32,0.16-0.7,0.04-0.87-0.28l-1.79-3.49c-0.16-0.32-0.04-0.7,0.28-0.87
		l30.58-15.71c0.32-0.16,0.7-0.04,0.87,0.28l1.79,3.49C251.28,74.38,251.16,74.77,250.84,74.93z"/>
	<path class="st29" d="M253,79.14l-30.58,15.71c-0.32,0.16-0.7,0.04-0.87-0.28l-1.79-3.49c-0.16-0.32-0.04-0.7,0.28-0.87
		l30.58-15.71c0.32-0.16,0.7-0.04,0.87,0.28l1.79,3.49C253.44,78.59,253.32,78.98,253,79.14z"/>
	<path class="st30" d="M191.04,40.83c3.1,6.21,8.99,9.56,13.15,7.48c4.16-2.08,5.01-8.8,1.91-15c-3.1-6.21-8.99-9.56-13.15-7.48
		C188.79,27.91,187.94,34.62,191.04,40.83z"/>
	<path class="st30" d="M199.55,19.9c1.06,2.13,3.65,2.99,5.78,1.93c2.13-1.06,2.99-3.65,1.93-5.78s-3.65-2.99-5.78-1.93
		C199.35,15.18,198.49,17.77,199.55,19.9z"/>
</g>
</svg>
