<?xml version="1.0" encoding="utf-8"?>
<!-- Generator: Adobe Illustrator 23.0.2, SVG Export Plug-In . SVG Version: 6.00 Build 0)  -->
<svg version="1.1" id="Layer_1" xmlns="http://www.w3.org/2000/svg" xmlns:xlink="http://www.w3.org/1999/xlink" x="0px" y="0px"
	 viewBox="0 0 288 359" style="enable-background:new 0 0 288 359;" xml:space="preserve;">
<style type="text/css">
	.st0{fill:#1C95BC;}
	.st1{opacity:0.54;fill:#FFB600;}
	.st2{opacity:0.38;fill:#F4FBFE;}
	.st3{fill:#FFB600;}
	.st4{fill:#D0EBF5;}
	.st5{opacity:0.29;fill:#FFFFFF;}
	.st6{fill:#091D7B;}
	.st7{fill:#C7E1EB;}
	.st8{opacity:0.22;fill:#9FAAD4;}
	.st9{fill:#A9E1F2;}
	.st10{opacity:0.31;fill:#5574D8;}
	.st11{opacity:0.48;fill:#FFFFFF;}
	.st12{fill:url(#SVGID_1_);}
	.st13{fill:#FFFFFF;}
	.st14{fill:none;stroke:#FFFFFF;stroke-width:0.8525;stroke-linecap:round;stroke-miterlimit:10;}
	.st15{fill:url(#SVGID_2_);}
	.st16{fill:#57ABEC;}
	.st17{opacity:0.24;fill:#57ABEC;}
	.st18{fill:#FDD1B1;}
	.st19{fill:#202952;}
	.st20{fill:url(#SVGID_3_);}
	.st21{opacity:0.16;fill:url(#SVGID_4_);}
	.st22{opacity:0.16;fill:url(#SVGID_5_);}
	.st23{fill:#E34862;}
	.st24{fill:url(#SVGID_6_);}
	.st25{opacity:0.15;fill:url(#SVGID_7_);}
	.st26{fill:#728EFC;}
	.st27{fill:url(#SVGID_8_);}
	.st28{fill:#212B53;}
	.st29{fill:url(#SVGID_9_);}
	.st30{opacity:0.15;fill:url(#SVGID_10_);}
</style>
<g>
	<g>
		<path class="st0" d="M198.98,51.08l-8.61,0.36c-1.64,0.07-3.03-1.23-3.1-2.91l-0.48-11.82l14.56-0.61l0.48,11.82
			C201.89,49.59,200.62,51.01,198.98,51.08z"/>
		<path class="st1" d="M206.51,22.7L206.51,22.7C206.51,22.7,206.51,22.7,206.51,22.7c-0.33,0.63-0.69,1.22-1.09,1.79
			c-3.09,5.59-4.04,12.34-4.04,12.34l-14.56,0.61c-0.11-2.73-1.28-5.64-2.58-8.07c-0.75-1.4-1.54-2.64-2.2-3.6
			c-2.28-2.57-3.72-5.93-3.87-9.66c-0.34-8.48,6.12-15.64,14.43-15.99C200-0.19,206.37,5,207.92,12.13
			c0.19,0.88,0.31,1.78,0.35,2.71C208.38,17.68,207.74,20.37,206.51,22.7z"/>
		<path class="st2" d="M207.95,12.33c-2.49,9.56-10.9,16.73-21.09,17.02c-0.95,0.03-1.89-0.01-2.82-0.1
			c-0.73-1.41-1.51-2.66-2.15-3.63c-2.24-2.6-3.64-5.98-3.74-9.72c-0.23-8.49,6.32-15.56,14.63-15.79
			C200.19-0.1,206.5,5.18,207.95,12.33z"/>
		<g>
			<path class="st3" d="M193.89,42.94l-0.66,0.03l-0.94-23.19c-0.91-0.03-2.13-0.18-3.27-0.65c-1.46-0.61-1.95-2.08-1.79-3.19
				c0.18-1.21,1.05-2.03,2.27-2.14c1.06-0.1,2.11,0.58,2.6,1.31c0.46,0.68,0.73,1.5,0.76,2.36l0.07,1.64
				c0.45-0.01,0.73-0.04,0.73-0.04l0.08,0.67c-0.03,0-0.33,0.04-0.78,0.05L193.89,42.94z M189.63,14.47c-0.03,0-0.05,0-0.08,0.01
				c-0.92,0.09-1.54,0.67-1.67,1.57c-0.12,0.86,0.26,1.99,1.39,2.46c1.02,0.43,2.14,0.57,2.99,0.6l-0.07-1.61
				c-0.03-0.73-0.25-1.42-0.64-2C191.18,14.96,190.4,14.43,189.63,14.47z"/>
			<path class="st3" d="M195.44,42.88l-0.66,0.03l-0.94-23.16c-0.46,0.03-0.75,0.02-0.79,0.02l0.02-0.68c0.01,0,0.29,0.01,0.73-0.02
				l-0.07-1.64c-0.03-0.86,0.16-1.7,0.57-2.41c0.43-0.76,1.43-1.53,2.49-1.52c1.23,0.01,2.16,0.76,2.44,1.95
				c0.25,1.09-0.12,2.6-1.53,3.33c-1.1,0.57-2.3,0.82-3.21,0.93L195.44,42.88z M196.71,14.17c-0.77,0.03-1.51,0.62-1.82,1.18
				c-0.34,0.61-0.51,1.31-0.48,2.05l0.07,1.61c0.85-0.1,1.95-0.34,2.94-0.85c1.09-0.57,1.38-1.73,1.18-2.57
				c-0.2-0.88-0.87-1.41-1.8-1.42C196.77,14.17,196.74,14.17,196.71,14.17z"/>
		</g>
		<path class="st4" d="M202.3,38.41l-16.28,0.69c-0.35,0.01-0.64-0.26-0.66-0.62l-0.05-1.33c-0.01-0.36,0.26-0.66,0.6-0.67
			l16.28-0.69c0.35-0.01,0.64,0.26,0.66,0.62l0.05,1.33C202.92,38.1,202.65,38.4,202.3,38.41z"/>
		<path class="st4" d="M202.4,40.84l-16.28,0.69c-0.35,0.01-0.64-0.26-0.66-0.62l-0.05-1.33c-0.01-0.36,0.26-0.66,0.6-0.67
			l16.28-0.69c0.35-0.01,0.64,0.26,0.66,0.62l0.05,1.33C203.02,40.52,202.75,40.82,202.4,40.84z"/>
		<path class="st4" d="M202.5,43.21l-16.28,0.69c-0.35,0.01-0.64-0.26-0.66-0.62l-0.05-1.33c-0.01-0.36,0.26-0.66,0.6-0.67
			l16.28-0.69c0.35-0.01,0.64,0.26,0.66,0.62l0.05,1.33C203.12,42.9,202.85,43.2,202.5,43.21z"/>
		<path class="st5" d="M183.04,12.67c0.1,3.49,2.04,6.25,4.33,6.18c2.29-0.07,4.06-2.95,3.95-6.44c-0.1-3.49-2.04-6.25-4.33-6.18
			C184.71,6.3,182.94,9.18,183.04,12.67z"/>
		<path class="st5" d="M191.17,4.92c0.04,1.2,1.01,2.14,2.19,2.1c1.17-0.04,2.09-1.03,2.06-2.23c-0.04-1.2-1.01-2.14-2.19-2.1
			C192.06,2.72,191.13,3.72,191.17,4.92z"/>
	</g>
	<g>
		<path class="st6" d="M196.57,287.65c-0.04,2.61-9.07,0.37-9.07,0.37S196.63,283.46,196.57,287.65z"/>
		<path class="st6" d="M188.64,291.95c0.18-1.41-3.9-3.03-8.43-2.31c0,0,2.55,1.62,3.93,2.82
			C185.51,293.67,188.37,294.11,188.64,291.95z"/>
		<g>
			<path class="st6" d="M159.98,302.38c15.2-13.08,28.46-14.36,28.59-14.36l-0.01-0.34c-0.14,0.01-13.85,0.66-29.13,13.81
				L159.98,302.38z"/>
		</g>
		<path class="st6" d="M184.89,282.1c0.9,1.46-5.47,7.79-5.47,7.79s-0.13-3.44,0.73-5.89C181.01,281.54,184.01,280.68,184.89,282.1z
			"/>
		<path class="st6" d="M173.28,292.45c0,0,6.69-0.22,8.42,3.26C183.44,299.2,177.16,297.47,173.28,292.45z"/>
		<path class="st6" d="M167.32,296.13c0,0,8.75-0.01,8.63,4.31C175.83,304.77,167.32,296.13,167.32,296.13z"/>
		<path class="st6" d="M164.19,297.93c0,0-0.99-7.67,3.23-9.47C171.65,286.66,167.7,296.05,164.19,297.93z"/>
		<path class="st6" d="M172.71,293.32c0,0-1.46-7.59,2.65-9.66C179.46,281.59,176.1,291.21,172.71,293.32z"/>
	</g>
	<g>
		<path class="st7" d="M225.5,348.83c-1.63,2.72-9.76-5.37-9.76-5.37S228.12,344.46,225.5,348.83z"/>
		<path class="st7" d="M214.54,348.32c1.05-1.37-2.25-5.66-7.47-7.78c0,0,1.69,3.32,2.41,5.46
			C210.2,348.14,212.94,350.41,214.54,348.32z"/>
		<g>
			<path class="st7" d="M178.02,341.09c23.96-4.11,38.69,2.96,38.84,3.04l0.19-0.36c-0.15-0.08-14.97-8.1-39.07-3.97L178.02,341.09z
				"/>
		</g>
		<path class="st7" d="M216.59,335.57c0.06,2.11-10.5,4.73-10.5,4.73s1.96-3.7,4.36-5.74C212.85,332.53,216.53,333.52,216.59,335.57
			z"/>
		<path class="st7" d="M198.06,339.09c0,0,7.17,4.01,6.88,8.78C204.64,352.64,199.09,346.83,198.06,339.09z"/>
		<path class="st7" d="M189.55,339.18c0,0,9.21,5.55,6.45,10.02C193.25,353.67,189.55,339.18,189.55,339.18z"/>
		<path class="st7" d="M185.16,339.09c0,0,3.63-8.69,9.18-7.91C199.88,331.96,190.01,339.34,185.16,339.09z"/>
		<path class="st7" d="M196.94,339.64c0,0,3.09-8.91,8.67-8.48C211.19,331.59,201.79,339.58,196.94,339.64z"/>
	</g>
	<g>
		<path class="st7" d="M45.55,239.3c-2.01,1.61,5.21,7.58,5.21,7.58S48.78,236.71,45.55,239.3z"/>
		<path class="st7" d="M47.01,248.34c0.99-1,4.73,1.33,6.91,5.45c0,0-2.8-1.09-4.58-1.48C47.57,251.92,45.49,249.87,47.01,248.34z"
			/>
		<g>
			<path class="st7" d="M56.26,277.93c0.98-20.26-6.06-31.8-6.13-31.91l0.27-0.19c0.08,0.11,7.88,11.64,6.9,32.02L56.26,277.93z"/>
		</g>
		<path class="st7" d="M56.96,245.42c-1.68,0.15-2.76,9.16-2.76,9.16s2.76-1.98,4.15-4.17C59.75,248.23,58.6,245.27,56.96,245.42z"
			/>
		<path class="st7" d="M55.93,261.12c0,0-3.88-5.57-7.65-4.86C44.51,256.96,49.67,261.01,55.93,261.12z"/>
		<path class="st7" d="M56.67,268.18c0,0-5.3-7.11-8.59-4.39C44.78,266.51,56.67,268.18,56.67,268.18z"/>
		<path class="st7" d="M57.17,271.82c0,0,6.57-3.85,5.42-8.37C61.44,258.93,56.51,267.82,57.17,271.82z"/>
		<path class="st7" d="M55.6,262.1c0,0,6.8-3.42,5.92-8C60.65,249.52,55.19,258.07,55.6,262.1z"/>
	</g>
	
		<ellipse transform="matrix(0.0128 -0.9999 0.9999 0.0128 -257.0261 414.6169)" class="st8" cx="81.48" cy="337.48" rx="7.73" ry="38.12"/>
	<path class="st9" d="M15.52,310.01l-4.09,2.32c0.26,1.51,0.64,2.97,1.14,4.38l4.69-0.08c0.63,1.46,1.41,2.83,2.32,4.11l-2.41,4.1
		c0.96,1.16,2.01,2.23,3.14,3.21l4.02-2.46c1.25,0.93,2.59,1.73,4.02,2.37l-0.08,4.79c1.38,0.51,2.81,0.9,4.29,1.17l2.27-4.18
		c0.77,0.08,1.54,0.13,2.33,0.13c0.78,0,1.56-0.04,2.32-0.13l2.27,4.18c1.48-0.27,2.91-0.66,4.29-1.17l-0.08-4.79
		c1.43-0.64,2.78-1.44,4.03-2.37l4.02,2.46c1.13-0.98,2.19-2.05,3.14-3.21l-2.41-4.1c0.91-1.28,1.69-2.65,2.32-4.11l4.69,0.08
		c0.5-1.41,0.88-2.87,1.14-4.38l-4.09-2.32c0.08-0.78,0.12-1.57,0.12-2.37c0-0.8-0.04-1.59-0.12-2.37l4.09-2.32
		c-0.26-1.51-0.64-2.97-1.14-4.38l-4.69,0.08c-0.63-1.46-1.41-2.83-2.32-4.1l2.41-4.1c-0.96-1.16-2.01-2.23-3.14-3.21l-4.02,2.46
		c-1.25-0.93-2.59-1.73-4.03-2.37l0.08-4.79c-1.38-0.51-2.81-0.9-4.29-1.17l-2.27,4.18c-0.77-0.08-1.54-0.13-2.32-0.13
		c-0.79,0-1.56,0.04-2.33,0.13l-2.27-4.18c-1.48,0.27-2.91,0.66-4.29,1.17l0.08,4.79c-1.43,0.64-2.78,1.44-4.02,2.37l-4.02-2.46
		c-1.13,0.98-2.19,2.05-3.14,3.21l2.41,4.1c-0.91,1.27-1.69,2.64-2.32,4.1l-4.69-0.08c-0.5,1.41-0.88,2.87-1.14,4.38l4.09,2.32
		c-0.08,0.78-0.12,1.57-0.12,2.37C15.4,308.43,15.44,309.22,15.52,310.01z M25.91,307.63c0-6.35,5.04-11.49,11.26-11.49
		c6.21,0,11.26,5.15,11.26,11.49c0,6.34-5.04,11.49-11.26,11.49C30.96,319.12,25.91,313.98,25.91,307.63z"/>
	<path class="st10" d="M19.75,307.63c0,9.82,7.8,17.78,17.43,17.78c9.62,0,17.42-7.96,17.42-17.78c0-9.83-7.8-17.79-17.42-17.79
		C27.55,289.85,19.75,297.81,19.75,307.63z M25.91,307.63c0-6.35,5.04-11.49,11.26-11.49c6.21,0,11.26,5.15,11.26,11.49
		c0,6.34-5.04,11.49-11.26,11.49C30.96,319.12,25.91,313.98,25.91,307.63z"/>
	<path class="st9" d="M2.17,266.5l-2.62,1.01c0.03,0.91,0.13,1.81,0.3,2.69l2.78,0.37c0.25,0.92,0.59,1.8,1.03,2.63l-1.77,2.21
		c0.47,0.77,1,1.5,1.59,2.17l2.58-1.1c0.66,0.66,1.39,1.25,2.18,1.76l-0.45,2.82c0.77,0.42,1.59,0.78,2.44,1.07l1.7-2.27
		c0.45,0.12,0.9,0.21,1.37,0.28c0.46,0.07,0.92,0.11,1.38,0.13l0.99,2.67c0.9-0.03,1.78-0.13,2.64-0.31l0.36-2.84
		c0.9-0.26,1.77-0.61,2.58-1.05l2.17,1.81c0.75-0.48,1.47-1.02,2.13-1.62l-1.08-2.64c0.65-0.67,1.22-1.42,1.72-2.22l2.77,0.46
		c0.41-0.79,0.76-1.62,1.05-2.49l-2.22-1.73c0.11-0.45,0.21-0.92,0.28-1.39c0.07-0.47,0.11-0.94,0.13-1.41l2.62-1.01
		c-0.03-0.91-0.13-1.81-0.31-2.69l-2.78-0.37c-0.25-0.92-0.59-1.8-1.02-2.63l1.77-2.21c-0.47-0.77-1-1.5-1.59-2.17l-2.58,1.1
		c-0.66-0.66-1.39-1.25-2.18-1.76l0.45-2.82c-0.77-0.43-1.59-0.78-2.44-1.07l-1.7,2.27c-0.45-0.12-0.9-0.21-1.36-0.28
		c-0.47-0.07-0.93-0.11-1.39-0.13l-0.99-2.67c-0.9,0.03-1.78,0.13-2.64,0.31l-0.36,2.83c-0.9,0.26-1.77,0.61-2.58,1.05l-2.17-1.81
		c-0.75,0.48-1.47,1.02-2.13,1.62l1.08,2.64c-0.65,0.67-1.23,1.41-1.72,2.22l-2.77-0.46c-0.41,0.79-0.76,1.62-1.05,2.49l2.22,1.74
		c-0.11,0.45-0.21,0.92-0.28,1.39C2.23,265.56,2.19,266.03,2.17,266.5z M9.46,266.15c0.46-3.22,3.4-5.46,6.56-4.99
		c3.16,0.47,5.34,3.47,4.88,6.69c-0.46,3.22-3.4,5.46-6.56,4.99C11.18,272.38,9,269.38,9.46,266.15z"/>
	<path class="st10" d="M4.74,265.25c-0.84,5.88,3.15,11.35,8.91,12.21c5.76,0.86,11.12-3.21,11.96-9.1
		c0.84-5.88-3.15-11.35-8.91-12.21C10.94,255.29,5.58,259.37,4.74,265.25z M9.46,265.95c0.46-3.22,3.4-5.46,6.56-4.99
		c3.16,0.47,5.34,3.47,4.88,6.69c-0.46,3.23-3.4,5.46-6.56,4.99C11.18,272.18,9,269.18,9.46,265.95z"/>
	<path class="st9" d="M130.44,148.93l-2.62,1.01c0.03,0.91,0.13,1.81,0.3,2.69l2.78,0.37c0.25,0.92,0.59,1.8,1.03,2.63l-1.77,2.21
		c0.47,0.77,1,1.5,1.59,2.17l2.58-1.1c0.66,0.66,1.39,1.25,2.18,1.76l-0.45,2.82c0.77,0.42,1.59,0.78,2.44,1.07l1.7-2.27
		c0.45,0.12,0.9,0.21,1.37,0.28c0.46,0.07,0.92,0.11,1.38,0.13l0.99,2.67c0.9-0.03,1.78-0.13,2.64-0.31l0.36-2.84
		c0.9-0.26,1.77-0.61,2.58-1.05l2.17,1.81c0.75-0.48,1.47-1.02,2.13-1.62l-1.08-2.64c0.65-0.67,1.22-1.42,1.72-2.22l2.77,0.46
		c0.41-0.79,0.76-1.62,1.05-2.49l-2.22-1.73c0.11-0.45,0.21-0.92,0.28-1.39c0.07-0.47,0.11-0.94,0.13-1.41l2.62-1.01
		c-0.03-0.91-0.13-1.81-0.31-2.69l-2.78-0.37c-0.25-0.92-0.59-1.8-1.02-2.63l1.77-2.21c-0.47-0.77-1-1.5-1.59-2.17l-2.58,1.1
		c-0.66-0.66-1.39-1.25-2.18-1.76l0.45-2.82c-0.77-0.43-1.59-0.78-2.44-1.07l-1.7,2.27c-0.45-0.12-0.9-0.21-1.36-0.28
		c-0.47-0.07-0.93-0.11-1.39-0.13l-0.99-2.67c-0.9,0.03-1.78,0.13-2.64,0.31l-0.36,2.83c-0.9,0.26-1.77,0.61-2.58,1.05l-2.17-1.81
		c-0.75,0.48-1.47,1.02-2.13,1.62l1.08,2.64c-0.65,0.67-1.23,1.41-1.72,2.22l-2.77-0.46c-0.41,0.79-0.76,1.62-1.05,2.49l2.22,1.74
		c-0.11,0.45-0.21,0.92-0.28,1.39C130.49,147.99,130.45,148.46,130.44,148.93z M137.72,148.58c0.46-3.22,3.4-5.46,6.56-4.99
		c3.16,0.47,5.34,3.47,4.88,6.69c-0.46,3.23-3.4,5.46-6.56,4.99C139.45,154.8,137.26,151.81,137.72,148.58z"/>
	<path class="st10" d="M133,147.68c-0.84,5.88,3.15,11.35,8.91,12.21c5.76,0.86,11.12-3.21,11.96-9.1
		c0.84-5.88-3.15-11.35-8.91-12.21C139.2,137.72,133.85,141.79,133,147.68z M137.72,148.38c0.46-3.22,3.4-5.46,6.56-4.99
		c3.16,0.47,5.34,3.47,4.88,6.69c-0.46,3.22-3.4,5.46-6.56,4.99C139.45,154.61,137.26,151.61,137.72,148.38z"/>
	<g>
		<path class="st9" d="M281.93,119.05h-32.47c0,0-6.18-0.05-7.39-4.08c-0.76-2.52,1.11-5.43,5.08-6.18c4.48-0.85,5.09-0.9,6.01-4.89
			c0.92-3.99,2.68-5.33,5.09-5.68c2.67-0.38,5.08,1.33,7.38,4.26c1.11,1.41,4.81-1.31,6.45-2.86c2.07-1.95,6.92-2.01,8.83,2.17
			c2.16,4.71-1.17,6.8,2.8,8.71c2.8,1.35,3.96,3.01,3.9,4.89C287.56,117.26,284.58,119.05,281.93,119.05z"/>
		<path class="st11" d="M276.92,119.05c0,0,3.77-0.51,1.87-3.92c-1.95-3.52-6.79,1.04-8.23-3.98c-1.49-5.18-7.18-6.67-9.17-2.08
			c-1.64,3.78-3.69,4.64-8.91,3.73c-5.22-0.91-5.21,5.75-2.32,6.25C253.05,119.56,276.92,119.05,276.92,119.05z"/>
	</g>
	<g>
		
			<linearGradient id="SVGID_1_" gradientUnits="userSpaceOnUse" x1="-149.3936" y1="316.7104" x2="-102.2808" y2="359.8201" gradientTransform="matrix(1 0 0 1 322.9957 0)">
			<stop  offset="0" style="stop-color:#84D5E0"/>
			<stop  offset="1" style="stop-color:#28B5C8"/>
		</linearGradient>
		<path class="st12" d="M128.36,328.73c0,0,0.14-0.46,0.51-1.3c1.14-2.59,4.5-8.78,12.84-16.21c7.41-6.61,21.45-13.44,34.16-14.1
			c31.68-1.65,64.04,23.59,61.96,25.48c-2.08,1.89-17.34,0-34.45,12.03C186.28,346.66,147.09,352.09,128.36,328.73z"/>
		<g>
			<g>
				<path class="st13" d="M129.82,328.9c-0.15,0-0.31-0.08-0.39-0.22c-0.14-0.22-0.07-0.51,0.15-0.65
					c0.14-0.09,13.77-8.7,33.75-13.84c18.45-4.75,46.26-7.42,73.94,6.79c0.23,0.12,0.32,0.4,0.21,0.63
					c-0.12,0.23-0.39,0.33-0.62,0.21c-27.43-14.08-55-11.42-73.3-6.72c-19.84,5.1-33.35,13.64-33.49,13.72
					C129.99,328.88,129.9,328.9,129.82,328.9z"/>
			</g>
			<g>
				<path class="st13" d="M173.52,342.53c-0.11,0-0.23-0.04-0.32-0.13c-15.71-15.16-28.68-20.51-28.81-20.56
					c-0.24-0.1-0.35-0.37-0.26-0.61c0.09-0.24,0.36-0.36,0.6-0.27c0.13,0.05,13.27,5.47,29.11,20.75c0.19,0.18,0.19,0.48,0.02,0.67
					C173.76,342.48,173.64,342.53,173.52,342.53z"/>
			</g>
			<g>
				<path class="st13" d="M199.53,334.21c-0.12,0-0.23-0.04-0.32-0.13c-14.64-14.59-34.82-19.14-35.02-19.18
					c-0.25-0.05-0.41-0.31-0.36-0.56c0.05-0.26,0.3-0.42,0.55-0.36c0.2,0.04,20.64,4.64,35.47,19.43c0.18,0.18,0.19,0.48,0.01,0.67
					C199.77,334.16,199.65,334.21,199.53,334.21z"/>
			</g>
			<g>
				<g>
					<path class="st14" d="M221.55,321"/>
				</g>
			</g>
			<g>
				<g>
					<path class="st14" d="M201.46,311.2"/>
				</g>
			</g>
			<g>
				<path class="st13" d="M170.27,313.56c-0.14,0-0.27-0.06-0.36-0.18c-0.16-0.21-0.12-0.5,0.08-0.66
					c9.23-7.39,11.47-13,11.49-13.06c0.09-0.24,0.36-0.36,0.6-0.27c0.24,0.1,0.36,0.37,0.26,0.61c-0.09,0.24-2.32,5.88-11.78,13.46
					C170.47,313.53,170.37,313.56,170.27,313.56z"/>
			</g>
			<g>
				<path class="st13" d="M149.54,319.51c-0.12,0-0.25-0.05-0.34-0.15c-0.17-0.19-0.16-0.49,0.02-0.67c4-3.79,8.86-14.25,8.9-14.36
					c0.11-0.24,0.39-0.34,0.62-0.23c0.23,0.11,0.33,0.39,0.22,0.63c-0.2,0.44-4.98,10.73-9.11,14.65
					C149.77,319.47,149.65,319.51,149.54,319.51z"/>
			</g>
		</g>
	</g>
	<g>
		
			<linearGradient id="SVGID_2_" gradientUnits="userSpaceOnUse" x1="-1050.6564" y1="152.2668" x2="-1050.0442" y2="191.1389" gradientTransform="matrix(-0.9855 -0.1696 -0.1696 0.9855 -846.5177 -69.8659)">
			<stop  offset="0" style="stop-color:#84D5E0"/>
			<stop  offset="1" style="stop-color:#28B5C8"/>
		</linearGradient>
		<path class="st15" d="M196.36,272.91c-1.4,4.51-4.12,11.79-9,20.48c-1.06,1.89-2.23,3.86-3.51,5.87
			c-2.77,4.36-6.06,8.96-9.96,13.67c-2.24,2.69-4.74,5-7.41,6.96c-9.09,6.69-11.86,8.73-25.4,9.98
			c-17.15,1.59-27.09-1.58-27.09-1.58c0-0.2-0.08-0.43,0.02-0.62c2.49-5.01,3.7-10.64,6-16.51c2.2-5.63,5.39-11.48,11.64-17.23
			c8.97-8.25,25.95-13.31,35.72-13.45c12.56-0.18,21.96-7.8,26.25-9.97C195.17,269.74,196.88,271.23,196.36,272.91z"/>
		<g>
			<g>
				<path class="st13" d="M114.96,327.73c-0.05,0-0.11-0.02-0.15-0.06c-0.1-0.08-0.11-0.23-0.03-0.33
					c0.23-0.28,23.07-27.67,46.98-36.35c23.78-8.63,33.62-19.3,33.72-19.41c0.09-0.1,0.23-0.1,0.33-0.01
					c0.09,0.09,0.1,0.24,0.01,0.33c-0.1,0.11-10,10.86-33.9,19.53c-23.79,8.63-46.55,35.93-46.78,36.21
					C115.09,327.71,115.02,327.73,114.96,327.73z"/>
			</g>
			<g>
				<path class="st13" d="M155.8,323.76c-0.04,0-0.07-0.01-0.11-0.03c-14.34-7.57-27.79-9.4-27.93-9.42
					c-0.13-0.02-0.22-0.14-0.2-0.26c0.02-0.13,0.13-0.22,0.26-0.2c0.13,0.02,13.66,1.86,28.08,9.47c0.11,0.06,0.16,0.2,0.1,0.32
					C155.96,323.71,155.88,323.76,155.8,323.76z"/>
			</g>
			<g>
				<path class="st13" d="M176.81,302.62c-0.04,0-0.08-0.01-0.12-0.03c-8.29-5.18-27.33-4.91-27.52-4.91
					c-0.13-0.02-0.23-0.1-0.24-0.23c0-0.13,0.1-0.24,0.23-0.24c0.19,0,19.36-0.27,27.77,4.98c0.11,0.07,0.14,0.21,0.08,0.32
					C176.97,302.58,176.89,302.62,176.81,302.62z"/>
			</g>
			<g>
				<path class="st13" d="M152.17,295.87c-0.06,0-0.11-0.02-0.16-0.06c-0.09-0.09-0.1-0.24-0.01-0.33c4.1-4.5,6.05-11.92,6.07-11.99
					c0.03-0.13,0.16-0.2,0.28-0.17c0.12,0.03,0.2,0.16,0.16,0.29c-0.02,0.08-2,7.61-6.17,12.19
					C152.3,295.85,152.23,295.87,152.17,295.87z"/>
			</g>
			<g>
				<path class="st13" d="M129.37,312.85c-0.05,0-0.1-0.02-0.14-0.05c-0.1-0.08-0.12-0.23-0.04-0.33
					c4.94-6.47,6.55-19.04,6.57-19.16c0.02-0.13,0.13-0.22,0.26-0.2c0.13,0.02,0.22,0.13,0.2,0.26c-0.02,0.13-1.64,12.82-6.66,19.39
					C129.51,312.82,129.44,312.85,129.37,312.85z"/>
			</g>
			<g>
				<path class="st13" d="M173.29,286.71c-0.09,0-0.18-0.06-0.22-0.16c-0.04-0.12,0.02-0.26,0.14-0.3
					c5.17-1.92,14.13-1.21,14.22-1.2c0.13,0.01,0.22,0.12,0.21,0.25c-0.01,0.13-0.12,0.23-0.25,0.22
					c-0.09-0.01-8.95-0.71-14.02,1.18C173.34,286.7,173.31,286.71,173.29,286.71z"/>
			</g>
		</g>
	</g>
	<path class="st16" d="M63.83,326.99l-14.84-20.03c-8.16-11.01-6.03-26.69,4.76-35.01l39.16-30.22l44.38,59.9l-39.16,30.22
		C87.35,340.18,71.99,338,63.83,326.99z"/>
	<path class="st1" d="M206.65,284.99L206.65,284.99c-0.01,0-0.02,0.01-0.04,0c-3.45,0.41-6.92,0.58-10.38,0.5
		c-31.65,2.99-61.81,18.36-61.81,18.36l-44.38-59.9c10.8-8.33,19.26-21.66,25.39-34.13c3.55-7.21,6.31-14.14,8.3-19.66
		c3.9-17.03,13.44-32.82,28.18-44.19c33.51-25.86,81.21-19.1,106.55,15.1c22.56,30.45,19.78,72.38-4.75,99.46
		c-3.02,3.33-6.37,6.44-10.04,9.28C232.46,278.45,219.66,283.44,206.65,284.99z"/>
	<path class="st2" d="M252.97,261.25c-46.06,16.96-99.41,1.93-129.89-40.38c-2.85-3.95-5.42-8.03-7.7-12.21
		c3.64-7.16,6.5-14.06,8.56-19.54c4.13-16.98,13.87-32.63,28.75-43.8c33.85-25.4,81.46-17.98,106.34,16.55
		C281.18,192.61,277.86,234.5,252.97,261.25z"/>
	<g>
		<path class="st3" d="M87.98,289.75l-2.03-2.74l91.62-70.7c-2.51-3.96-5.42-9.55-6.76-15.75c-1.72-7.95,2.85-14.26,7.82-16.77
			c5.41-2.73,11.26-1.4,15.25,3.45c3.44,4.18,3.7,10.61,2.17,14.79c-1.43,3.92-3.99,7.39-7.4,10.02l-6.49,5.01
			c1.32,1.86,2.25,2.95,2.28,2.98l-2.52,2.27c-0.12-0.13-1.1-1.28-2.46-3.18L87.98,289.75z M191.57,189.79
			c-0.08-0.11-0.17-0.22-0.26-0.33c-2.99-3.64-7.18-4.6-11.19-2.58c-3.84,1.93-7.36,6.81-6.03,12.95c1.21,5.57,3.86,10.7,6.18,14.4
			l6.36-4.91c2.9-2.24,5.07-5.17,6.28-8.48C194.03,197.78,193.91,192.95,191.57,189.79z"/>
		<path class="st3" d="M92.71,296.13l-2.03-2.74l91.49-70.6c-1.42-1.85-2.24-3.13-2.33-3.28l2.83-1.85c0.02,0.04,0.8,1.25,2.19,3.05
			l6.49-5.01c3.41-2.63,7.37-4.2,11.46-4.53c4.36-0.36,10.35,1.64,13.35,6.16c3.49,5.25,3.14,11.35-0.9,15.92
			c-3.72,4.2-10.92,6.97-17.94,3.11c-5.48-3.01-9.95-7.39-13-10.93L92.71,296.13z M213.16,218.92c-2.34-3.16-6.87-4.59-10.06-4.33
			c-3.45,0.28-6.81,1.62-9.7,3.85l-6.36,4.91c2.86,3.29,6.98,7.29,11.9,10c5.43,2.98,10.99,0.85,13.85-2.39
			c3-3.39,3.23-7.76,0.62-11.69C213.32,219.15,213.24,219.03,213.16,218.92z"/>
	</g>
	<path class="st4" d="M140.29,308.23c-0.18,0.39-0.41,0.77-0.69,1.11c-0.25,0.3-0.54,0.59-0.86,0.84l-2.06,1.58
		c-2.29,1.77-5.54,1.3-7.27-1.03L82.2,247c-1.73-2.33-1.28-5.66,1.01-7.42l2.06-1.59c0.34-0.26,0.7-0.48,1.07-0.64
		c0.55-0.24,1.13-0.38,1.71-0.42c1.69-0.11,3.39,0.61,4.48,2.09l47.21,63.72C140.96,304.38,141.1,306.5,140.29,308.23z"/>
	<path class="st17" d="M140.29,308.23c-1.69,0.11-3.39-0.61-4.49-2.09l-47.21-63.72c-1.21-1.63-1.35-3.75-0.54-5.48
		c1.69-0.11,3.39,0.61,4.48,2.09l47.21,63.72C140.96,304.38,141.1,306.5,140.29,308.23z"/>
	<path class="st4" d="M119.83,318.11l-47.21-63.72c-1.73-2.33-1.28-5.66,1.01-7.42l2.05-1.59c2.29-1.77,5.54-1.3,7.27,1.03
		l47.21,63.72c1.73,2.33,1.28,5.66-1.01,7.42l-2.05,1.59C124.82,320.91,121.56,320.45,119.83,318.11z"/>
	<path class="st4" d="M110.45,325.35l-47.21-63.72c-1.73-2.33-1.28-5.66,1.01-7.42l2.05-1.59c2.29-1.77,5.55-1.3,7.27,1.03
		l47.21,63.72c1.73,2.33,1.28,5.66-1.01,7.42l-2.05,1.59C115.44,328.15,112.18,327.69,110.45,325.35z"/>
	
		<ellipse transform="matrix(0.7886 -0.6149 0.6149 0.7886 -66.2455 155.034)" class="st5" cx="192.36" cy="173.86" rx="31.48" ry="21.19"/>
	<ellipse class="st5" cx="241.21" cy="177.63" rx="10.72" ry="10.94"/>
	<g>
		<g>
			<path class="st18" d="M100.22,233.12c0.55,0.21,7.58,0.09,10.52,0.03c0.6-0.01,0.87-0.75,0.44-1.18
				c-0.72-0.71-2.02-1.53-4.22-1.75c-0.96-0.09-1.55-0.41-1.89-0.94c-0.48-0.73-0.5-1.86-0.4-3.33c0.02-0.32,0.05-0.65,0.07-0.99
				c0.25-3.06-4.27-0.06-4.27-0.06s0.01,0.42-0.01,1.05c-0.03,0.9-0.12,2.22-0.37,3.26c-0.04,0.15-0.08,0.3-0.12,0.44
				C99.42,231.41,99.53,232.85,100.22,233.12z"/>
			<path class="st19" d="M100.22,233.12c0.59,0.23,8.8,0.07,11.15,0.01c0.3-0.01,0.42-0.33,0.29-0.61c-0.47-0.97-1.8-2.49-4.63-2.76
				c-0.96-0.09-1.87-0.48-2.21-1c-0.99,0.06-1.78,0.51-1.76,1.43c0.01,0.54-1.67,0.69-2.97-0.98c-0.04,0.15-0.08,0.3-0.12,0.44
				C99.42,231.41,99.53,232.85,100.22,233.12z"/>
		</g>
		<path class="st19" d="M86.99,178.28c0,0,18.84,12.95,22.8,15.78c3.97,2.83-4.96,33.39-4.96,33.39h-4.76c0,0,1.19-27.93,0-29.14
			c-1.19-1.21-19.51-5.87-22.35-13.56C74.89,177.07,86.99,178.28,86.99,178.28z"/>
		<path class="st19" d="M83.91,186.37c0,0-5.92,29.95-6.18,32.58c-0.26,2.63-5.41,28.22-5.41,28.22h-5.55c0,0,1.19-28.31,0.99-31.7
			c-0.2-3.39,1.19-27.68,1.98-32.33c0.79-4.65,12.29-3.04,12.29-3.04L83.91,186.37z"/>
		<path class="st19" d="M66.26,256.19c1.6-0.24,3.61-3.77,4.38-4.98c0.76-1.2,1.38-4.04,1.38-4.04h-4.79c0,0-0.15,0.39-0.37,0.94
			c-0.46,1.18-1.04,3.14-1.17,3.57C65.44,252.49,64.65,256.44,66.26,256.19z"/>
		
			<linearGradient id="SVGID_3_" gradientUnits="userSpaceOnUse" x1="-1209.3811" y1="190.4574" x2="-1232.9363" y2="165.7309" gradientTransform="matrix(-1 0 0 1 -1158.4052 0)">
			<stop  offset="0" style="stop-color:#B2C9D1"/>
			<stop  offset="1" style="stop-color:#FAFDFF"/>
		</linearGradient>
		<path class="st20" d="M86,144.99c-1.78,0.1-18.44,1.21-22.16,4.1c-3.72,2.88,5.83,34.43,5.76,35.03
			c-0.07,0.6,19.19-4.61,18.67-4.96C87.75,178.8,88.39,144.86,86,144.99z"/>
		<path class="st13" d="M99.78,113.93h-3.37c0,0-2.03,15.99-2.35,17c-0.32,1.01-7.28,13.99-9.25,14.14
			c-1.97,0.15,2.83,10.44,2.83,10.44s10.17-14.46,11.26-20.03S99.78,113.93,99.78,113.93z"/>
		<path class="st13" d="M63.84,149.09c0,0-12.34,15.33-13.24,20.79c-0.89,5.46,15.47,11.69,15.47,11.69l1.98-3.36
			c0,0-8.97-7.27-9.86-7.87c-0.89-0.61,5.91-8.77,5.91-8.77L63.84,149.09z"/>
		<g>
			<path class="st19" d="M81.24,128.28c0,0,1.81-1.73,1.26-4.35c-0.55-2.62-5.72-3.14-8.26-0.68c-4.51,4.36-3.82,2.99-5.59,5.31
				c-3.42,4.46,2.04,8.98,4.52,9.05C75.63,137.67,81.24,128.28,81.24,128.28z"/>
			<path class="st18" d="M74.26,138.01l-0.01,0.34l-0.25,7.3c-0.02,0.69,0.37,1.33,0.99,1.59c0.67,0.28,1.63,0.56,2.76,0.52
				c0.98-0.03,1.75-0.35,2.29-0.67c0.57-0.34,0.89-1,0.8-1.67l-0.5-3.71l-0.15-1.1c-0.06-0.43-0.36-0.79-0.76-0.93L74.26,138.01z"/>
			
				<linearGradient id="SVGID_4_" gradientUnits="userSpaceOnUse" x1="-1655.7098" y1="254.8028" x2="-1645.6868" y2="271.232" gradientTransform="matrix(-0.9972 -0.0748 -0.0748 0.9972 -1550.7462 -242.6921)">
				<stop  offset="0" style="stop-color:#FFFFFF"/>
				<stop  offset="1" style="stop-color:#231F20"/>
			</linearGradient>
			<path class="st21" d="M74.26,138.01l-0.01,0.34c1.54,2.8,5.08,4.82,6.3,4.9l-0.45-3.35L74.26,138.01z"/>
			<path class="st18" d="M71.22,135.32c0.6,1.45,1.73,1.71,1.73,1.71s5.15,6.53,8.18,3.57c2.47-2.41,0.98-9.11,0.35-11.48
				c-0.14-0.53-0.24-0.84-0.24-0.84c-1.17,1.78-8.65,2.5-7.82,4.2c0,0.01,0.01,0.01,0.01,0.02c0.82,1.68,0.39,2.22,0.16,2.48
				c-0.24,0.27-0.64-0.93-1.09-1.21C71.5,133.15,70.71,134.1,71.22,135.32z"/>
			
				<linearGradient id="SVGID_5_" gradientUnits="userSpaceOnUse" x1="-1475.0389" y1="718.4964" x2="-1468.4027" y2="718.4964" gradientTransform="matrix(-0.9418 -0.3362 -0.3362 0.9418 -1067.0269 -1041.0294)">
				<stop  offset="0" style="stop-color:#FFFFFF"/>
				<stop  offset="1" style="stop-color:#231F20"/>
			</linearGradient>
			<path class="st22" d="M73.42,132.48c0,0.01,0.01,0.01,0.01,0.02c0.24-0.44,0.87-0.94,2.38-1.25c2.42-0.49,4.73-1.62,5.67-2.12
				c-0.14-0.53-0.24-0.84-0.24-0.84C80.07,130.07,72.59,130.78,73.42,132.48z"/>
			<path class="st19" d="M73.68,133.07c0,0,1.32,2.98,3.1,3.19c1.78,0.21,5.02-2.24,5.64-2.02c0.61,0.21,1.65,6.04-1.13,6.89
				c-2.78,0.85-5.62-0.12-6.69-3.32c-1.07-3.2-2.25-4.32-2.25-4.32L73.68,133.07z"/>
		</g>
		<path class="st18" d="M96.41,113.93c0,0,1.19-3.39,2.53-3.85c1.34-0.46,3.27-0.76,4.31-1.97c1.04-1.21,1.56,1.21,0.37,2.43
			c-1.19,1.21-3.85,2.76-3.84,3.39C99.79,114.56,96.41,113.93,96.41,113.93z"/>
		<path class="st18" d="M67.82,178.59c0,0,4.49,1.92,4.94,2.98c0.45,1.06-6.69,0-6.69,0L67.82,178.59z"/>
		<polygon class="st13" points="81.48,145.34 80.64,143.93 78.31,146.73 74.04,144.23 73.2,146.35 77.19,149.65 78.38,147.77 
			79.91,149.43 		"/>
		<path class="st23" d="M79.5,147.77c0,0-0.1,1.68-0.45,1.88c0,0,0.01,8.98-1.63,13.61c-1.8,5.06-3.08,5.77-4.64,8.75l-3.1,1.32
			l0.05-2.98c0,0,4.26-5.41,5.6-9.62c0.66-2.06,2.77-11.07,2.77-11.07s-0.62-0.4-0.77-1.12c-0.15-0.72,1.23-1.35,1.23-1.35
			L79.5,147.77z"/>
		<path class="st18" d="M66.85,248.12c0.22,0.01,0.45-0.6,1.83-0.37c1.38,0.23,0.9,0.95,1.4,1.05c0.38,0.07,0.77-0.96,1.15-1.62
			h-4.01C67.22,247.17,67.07,247.57,66.85,248.12z"/>
	</g>
	<g>
		
			<linearGradient id="SVGID_6_" gradientUnits="userSpaceOnUse" x1="-1436.0121" y1="224.7186" x2="-1420.5502" y2="224.7186" gradientTransform="matrix(-1 0 0 1 -1158.4052 0)">
			<stop  offset="0" style="stop-color:#5E74CF"/>
			<stop  offset="1" style="stop-color:#728EFC"/>
		</linearGradient>
		<path class="st24" d="M267.53,207.91c0,0,5.16,4.87,7.56,11.92c2.4,7.05,3.35,9.98,1.68,12.06c-1.68,2.08-12.71,9.64-12.71,9.64
			l-1.91-3.52c0,0,8.39-7.95,8.39-9.66c0-1.71-5.03-10.76-5.03-10.76L267.53,207.91z"/>
		<g>
			<path class="st18" d="M260.81,206.51l-6.76,0.29c0,0,0.32-3.2,0.26-4.75c-0.06-1.47,0.09-2.67,0.09-2.67s2.44-1.47,4.2-2.05
				c1.09-0.36,1.93-0.39,1.74,0.49C259.88,200.11,260.81,206.51,260.81,206.51z"/>
			<path class="st19" d="M258.47,197.63c0,0,0.92,2.23,1.84,2.51c0,0,5.49-4.62,5.49-7.6c0-3.12-2.64-3.94-2.64-3.94
				s-2.39-5.71-4.81-6.37c-2.93-0.81-6.11,0.27-4.46,6.02C255.49,193.86,258.47,197.63,258.47,197.63z"/>
			
				<linearGradient id="SVGID_7_" gradientUnits="userSpaceOnUse" x1="-1176.938" y1="170.6287" x2="-1180.3867" y2="186.0749" gradientTransform="matrix(0.989 0.1482 -0.1482 0.989 1446.5861 201.9666)">
				<stop  offset="0" style="stop-color:#FFFFFF"/>
				<stop  offset="1" style="stop-color:#000000"/>
			</linearGradient>
			<path class="st25" d="M258.62,197.33c-0.04,0.1-0.09,0.2-0.14,0.31c-1.36,2.59-3.06,3.84-4.15,4.42
				c-0.06-1.47,0.09-2.67,0.09-2.67S256.85,197.91,258.62,197.33z"/>
			<path class="st18" d="M253.84,188c0,0-4.48,6.55-3.01,10.43c1.47,3.88,6.29,0.89,6.99-0.54c0,0,1.79-0.01,2.27-1.57
				c0.47-1.56-1.58-1.65-1.58-1.65S254.31,191.38,253.84,188z"/>
		</g>
		<path class="st18" d="M224.6,201.6c0,0-1.22-2.04-1.64-3.14c-0.42-1.1-2.16-2.45-2.7-2.81c-0.54-0.37,0.36,3,0.36,3.79
			c0,0.79,1.72,3.67,1.72,3.67L224.6,201.6z"/>
		<g>
			<polygon class="st26" points="252.81,348.38 251.43,348.38 211.31,256.23 212.71,256.27 			"/>
			<polygon class="st26" points="280.38,348.38 279,348.38 238.84,256.15 240.22,256.13 			"/>
			<g>
				<polygon class="st26" points="247.58,339.55 275.84,339.55 275.22,338.13 246.96,338.13 				"/>
			</g>
			<g>
				<polygon class="st26" points="241.31,325.14 269.57,325.14 268.95,323.71 240.69,323.71 				"/>
			</g>
			<g>
				<polygon class="st26" points="235.03,310.72 263.29,310.72 262.67,309.3 234.41,309.3 				"/>
			</g>
			<g>
				<polygon class="st26" points="228.75,296.31 257.02,296.31 256.4,294.88 228.14,294.88 				"/>
			</g>
			<g>
				<polygon class="st26" points="222.48,281.89 250.74,281.89 250.12,280.47 221.86,280.47 				"/>
			</g>
			<g>
				<polygon class="st26" points="216.2,267.47 244.47,267.47 243.85,266.05 215.58,266.05 				"/>
			</g>
		</g>
		<g>
			<path class="st18" d="M237.69,295.74c-0.55,0.21-7.58,0.09-10.52,0.03c-0.6-0.01-0.87-0.75-0.44-1.18
				c0.72-0.71,2.02-1.53,4.22-1.75c0.96-0.09,1.55-0.41,1.89-0.94c0.48-0.73,0.5-1.86,0.4-3.33c-0.02-0.32-0.05-0.65-0.07-0.99
				c-0.25-3.06,4.27-0.06,4.27-0.06s-0.01,0.42,0.01,1.05c0.03,0.9,0.12,2.22,0.37,3.26c0.04,0.15,0.08,0.3,0.12,0.44
				C238.5,294.03,238.39,295.46,237.69,295.74z"/>
			<path class="st19" d="M237.69,295.74c-0.59,0.23-8.8,0.07-11.15,0.01c-0.3-0.01-0.42-0.33-0.29-0.61
				c0.47-0.97,1.8-2.49,4.63-2.76c0.96-0.09,1.87-0.48,2.21-1c0.99,0.06,1.78,0.51,1.76,1.43c-0.01,0.54,1.67,0.7,2.97-0.98
				c0.04,0.15,0.08,0.3,0.12,0.44C238.5,294.03,238.39,295.46,237.69,295.74z"/>
		</g>
		<g>
			<path class="st18" d="M264.17,309.53c-0.55,0.21-7.58,0.09-10.52,0.03c-0.6-0.01-0.87-0.75-0.44-1.18
				c0.72-0.71,2.02-1.53,4.22-1.75c0.96-0.09,1.55-0.41,1.89-0.94c0.48-0.73,0.5-1.86,0.4-3.33c-0.02-0.32-0.05-0.65-0.07-0.99
				c-0.25-3.06,4.27-0.06,4.27-0.06s-0.01,0.42,0.01,1.05c0.03,0.9,0.12,2.22,0.37,3.26c0.04,0.15,0.08,0.3,0.12,0.44
				C264.97,307.82,264.86,309.26,264.17,309.53z"/>
			<path class="st19" d="M264.17,309.53c-0.59,0.23-8.8,0.07-11.15,0.01c-0.3-0.01-0.42-0.33-0.29-0.61
				c0.47-0.97,1.8-2.49,4.63-2.76c0.96-0.09,1.87-0.48,2.21-1c0.99,0.06,1.78,0.51,1.76,1.43c-0.01,0.54,1.67,0.7,2.97-0.98
				c0.04,0.15,0.08,0.3,0.12,0.44C264.97,307.82,264.86,309.26,264.17,309.53z"/>
		</g>
		<path class="st19" d="M262.62,237.03c0,0,3.59,10.15,3.47,15.53c-0.12,5.38-2.04,22.25-2.04,23.72c0,1.47,0.36,27.14,0.36,27.14
			h-5.21c0,0-4.25-26.04-4.01-27.88c0.24-1.83-1.2-24.82-1.2-24.82l2.46-12.72L262.62,237.03z"/>
		<path class="st19" d="M260.23,238.86c0,0,0,7.95-7.67,14.18s-14.02,11.74-14.26,12.59c-0.24,0.86-0.01,22.62-0.01,22.62h-5.88
			c0,0-3.03-24.81-2.91-27.25s17.31-21.49,17.31-21.49L260.23,238.86z"/>
		
			<linearGradient id="SVGID_8_" gradientUnits="userSpaceOnUse" x1="-1388.1982" y1="259.8403" x2="-1400.7236" y2="223.3079" gradientTransform="matrix(-1 0 0 1 -1158.4052 0)">
			<stop  offset="0" style="stop-color:#5E74CF"/>
			<stop  offset="1" style="stop-color:#728EFC"/>
		</linearGradient>
		<path class="st27" d="M267.53,207.91c-2.24-2.61-15.61-2.71-19.92-2.22c-4.31,0.49-14.54,5.05-14.54,5.05l-8.47-9.14l-2.73,1.81
			c0,0,7.84,12.88,11.04,13.53c3.2,0.65,12.22-2.28,12.46-1.92c0.24,0.37,1.08,23.92,1.44,24.5c0.36,0.57,14.5,1.67,16.42,0.88
			c1.92-0.8,4.55-16.69,5.03-19.75C268.74,217.59,270.04,210.84,267.53,207.91z"/>
		<path class="st13" d="M261.23,205.91c0,0-0.33-1.55-0.7-1.67c-0.37-0.13-5.81-0.58-6.25-0.32c-0.44,0.26-0.85,1.54-0.85,1.54
			S260.08,206.07,261.23,205.91z"/>
		<polygon class="st13" points="224.14,200.79 224.6,201.6 222.16,203.22 221.63,202.33 		"/>
	</g>
	<g>
		<path class="st18" d="M205.06,123.57c0,0,9.85,25.42,10.15,27.4c0.3,1.98,3.65,32.35,3.65,32.35l-3.85,0.7
			c0,0-7.41-28.29-8.76-30.61c-1.35-2.32-7.41-9.28-7.41-9.28L205.06,123.57z"/>
		<path class="st18" d="M222.4,129.97c0,0,7.81,8.75,8.87,12.15c1.8,5.76,10.3,27.75,10.3,27.75L237.7,171
			c0,0-12.81-24.54-15.3-26.09c-2.49-1.55-8.4-6.8-8.4-6.8L222.4,129.97z"/>
		<path class="st19" d="M206.41,108.98c0,0,10.48,12.68,17.73,19.76c6.44,6.28-3.35,8.13-6.96,13c-3.61,4.87-17.92,10.2-23.51,9.04
			c-5.58-1.16-1.09-11.14-3.99-21.57c-2.9-10.42,4.53-20.11,4.53-20.11L206.41,108.98z"/>
		<path class="st28" d="M225.54,190.4c-0.19,0.25-5.3,0.58-5.79,0.35c-0.49-0.23-2.25-2.74-2.25-2.74l-0.07,2.96l-1.32,0.02
			l-1.19-7.3l3.94-0.36c0,0,2.75,4.55,3.22,5.03C222.55,188.83,225.79,190.06,225.54,190.4z"/>
		<path class="st28" d="M249.3,175.4c-0.14,0.29-5.1,1.58-5.62,1.45c-0.52-0.13-2.72-2.26-2.72-2.26l0.48,2.92l-1.29,0.27
			l-2.51-6.95l3.81-1.11c0,0,3.54,3.94,4.08,4.32C246.08,174.44,249.49,175.02,249.3,175.4z"/>
		<path class="st6" d="M205.35,76.68c0,0-0.5,3.99,2.21,6.02c3.12,2.34-0.7,4.84-4.85,5.25c-4.15,0.41-8.1-0.98-11.68-1.41
			c-3.58-0.43-5.28-1.49-3.5-4.34c1.78-2.85,3.31-6.22,3.47-8.39c0.16-2.16,0.05-5.63,4.04-6.7c3.99-1.07,3.29-2.82,5.89-3.55
			c3.53-0.98,5.73,3.44,2.72,6.13C200.71,72.33,205.35,76.68,205.35,76.68z"/>
		<path class="st18" d="M180.68,57.25c0,0-0.5-1.8-1.68-2.78c-1.18-0.99-2.26-1.54-2.35-1.24c-0.08,0.3,1.34,1.54,1.26,1.76
			c-0.08,0.21-1.79-0.53-2.32-0.73c-1.26-0.48-1.88-1.84-2.17-1.41c-0.29,0.43,0.89,2.42,1.23,2.76c0.34,0.34,2.65,2.21,3.18,2.12
			C178.35,57.64,180.68,57.25,180.68,57.25z"/>
		<path class="st18" d="M218.74,56.83c0,0,0.5-1.8,1.68-2.78c1.18-0.98,2.26-1.54,2.35-1.24c0.08,0.3-1.34,1.54-1.26,1.76
			c0.08,0.21,1.96-0.5,2.48-0.7c1.26-0.48,1.72-1.87,2.01-1.44c0.29,0.43-0.89,2.42-1.23,2.76c-0.34,0.34-2.65,2.21-3.18,2.12
			C221.07,57.22,218.74,56.83,218.74,56.83z"/>
		
			<linearGradient id="SVGID_9_" gradientUnits="userSpaceOnUse" x1="-1358.1195" y1="114.2657" x2="-1358.1195" y2="91.2839" gradientTransform="matrix(-1 0 0 1 -1158.4052 0)">
			<stop  offset="0" style="stop-color:#C73F86"/>
			<stop  offset="1" style="stop-color:#E34899"/>
		</linearGradient>
		<path class="st29" d="M202.51,86.21c1.62-0.19,3.93,0.08,5.94-1.38c2.01-1.46,8.06-9.68,8.39-10.45
			c0.34-0.77,1.93-17.47,1.93-17.47l3.02,0.43c0,0,0.17,16.78-0.08,18.67c-0.25,1.88-11.83,16.19-12.42,17.56
			c-0.59,1.37,0.55,2.67-0.67,6.4c-0.78,2.4-3.07,5.25-2.23,9.02c0.84,3.77-12.19,0.13-12.19,0.13s-1.78-9.72-2.71-13.49
			c-0.92-3.77-10.32-18.07-11.08-19.44c-0.76-1.37-2.85-18.41-2.85-18.41l3.11-0.51c0,0,4.28,16.53,4.62,17.22
			c0.34,0.69,7.81,10.96,8.81,10.71C194.11,85.17,198.44,86.7,202.51,86.21z"/>
		<path class="st18" d="M196.99,87.03c1.56,2.54,6.26,2.46,6.17,0.1c-0.04-1.17-0.3-2.82-0.56-4.2c-0.26-1.42-0.51-2.54-0.51-2.54
			s-5.46-3.84-5.23-1.7C197.1,80.83,196.99,87.03,196.99,87.03z"/>
		
			<linearGradient id="SVGID_10_" gradientUnits="userSpaceOnUse" x1="-1442.3369" y1="101.9944" x2="-1436.8063" y2="101.9944" gradientTransform="matrix(-0.9989 0.0476 0.0476 0.9989 -1243.123 47.136)">
			<stop  offset="0" style="stop-color:#FFFFFF"/>
			<stop  offset="1" style="stop-color:#000000"/>
		</linearGradient>
		<path class="st30" d="M196.87,78.69c1.06,2.95,4.4,3.95,5.74,4.24c-0.26-1.42-0.51-2.54-0.51-2.54S196.64,76.54,196.87,78.69z"/>
		<path class="st18" d="M203.47,69.86c0,0,4.75,7.54,1.85,10.42c-2.9,2.88-6.56-1.02-7.2-1.46c-0.64-0.44-2.54,0.05-3.02-1.14
			c-0.48-1.19,0.51-1.56,1.09-1.45c0.58,0.11,1.59,0.15,0.59-1.6c-1.01-1.75,2.34-1.81,3.79-2.65
			C202.03,71.13,203.47,69.86,203.47,69.86z"/>
	</g>
	<path class="st17" d="M130.72,315.61c-1.69,0.11-3.39-0.61-4.49-2.09L79.01,249.8c-1.21-1.63-1.35-3.75-0.54-5.48
		c1.69-0.11,3.39,0.61,4.48,2.09l47.21,63.72C131.39,311.76,131.53,313.88,130.72,315.61z"/>
	<path class="st17" d="M121.33,323.32c-1.69,0.11-3.39-0.61-4.49-2.09l-47.21-63.72c-1.21-1.63-1.35-3.75-0.54-5.48
		c1.69-0.11,3.39,0.61,4.48,2.09l47.21,63.72C122.01,319.47,122.14,321.59,121.33,323.32z"/>
</g>
</svg>
