<?xml version="1.0" encoding="utf-8"?>
<!-- Generator: Adobe Illustrator 23.0.2, SVG Export Plug-In . SVG Version: 6.00 Build 0)  -->
<svg version="1.1" id="Layer_1" xmlns="http://www.w3.org/2000/svg" xmlns:xlink="http://www.w3.org/1999/xlink" x="0px" y="0px"
	 viewBox="0 0 323 297" style="enable-background:new 0 0 323 297;" xml:space="preserve">
<style type="text/css">
	.st0{opacity:0.54;fill:#FFB600;}
	.st1{opacity:0.38;fill:#F4FBFE;}
	.st2{fill:#D0EBF5;}
	.st3{fill:#C7E1EB;}
	.st4{opacity:0.22;fill:#9FAAD4;}
	.st5{opacity:0.24;fill:#57ABEC;}
	.st6{opacity:0.48;fill:#FFFFFF;}
	.st7{fill:#002144;}
	.st8{fill:#FFD16E;}
	.st9{fill:#FFB600;}
	.st10{opacity:0.29;fill:#FFFFFF;}
	.st11{fill:#FDD1B1;}
	.st12{fill:#202952;}
	.st13{fill:url(#SVGID_1_);}
	.st14{fill:#FFFFFF;}
	.st15{opacity:0.16;fill:url(#SVGID_2_);}
	.st16{opacity:0.16;fill:url(#SVGID_3_);}
	.st17{fill:url(#SVGID_4_);}
	.st18{fill:#145182;}
	.st19{opacity:0.15;fill:url(#SVGID_5_);}
	.st20{fill:#212B53;}
	.st21{fill:url(#SVGID_6_);}
	.st22{opacity:0.15;fill:url(#SVGID_7_);}
	.st23{fill:#194876;}
</style>
<g>
	<path class="st0" d="M216.6-38.87c0.19,0.88,0.32,1.78,0.35,2.71"/>
	<path class="st1" d="M216.63-38.67"/>
	<path class="st2" d="M194.35-9.48c-0.36,0.01-0.66-0.26-0.67-0.62"/>
	<path class="st2" d="M194.45-7.1c-0.36,0.01-0.66-0.26-0.67-0.62l-0.06-1.33c-0.01-0.36,0.26-0.66,0.62-0.67"/>
</g>
<g>
	<path class="st3" d="M50.9,188.3c-2.05,1.61,5.32,7.58,5.32,7.58S54.2,185.71,50.9,188.3z"/>
	<path class="st3" d="M52.39,197.34c1.01-1,4.82,1.33,7.05,5.45c0,0-2.86-1.09-4.67-1.48C52.96,200.92,50.84,198.87,52.39,197.34z"
		/>
	<g>
		<path class="st3" d="M61.83,226.93c1-20.26-6.18-31.8-6.26-31.91l0.28-0.19c0.08,0.11,8.04,11.64,7.04,32.02L61.83,226.93z"/>
	</g>
	<path class="st3" d="M62.55,194.42c-1.72,0.15-2.82,9.16-2.82,9.16s2.82-1.98,4.24-4.17C65.39,197.23,64.22,194.27,62.55,194.42z"
		/>
	<path class="st3" d="M61.49,210.12c0,0-3.96-5.57-7.81-4.86C49.84,205.96,55.11,210.01,61.49,210.12z"/>
	<path class="st3" d="M62.25,217.18c0,0-5.41-7.11-8.77-4.39C50.12,215.51,62.25,217.18,62.25,217.18z"/>
	<path class="st3" d="M62.76,220.82c0,0,6.71-3.85,5.53-8.37C67.11,207.93,62.08,216.82,62.76,220.82z"/>
	<path class="st3" d="M61.16,211.1c0,0,6.94-3.42,6.05-8C66.31,198.52,60.73,207.07,61.16,211.1z"/>
</g>
<ellipse transform="matrix(0.0126 -0.9999 0.9999 0.0126 -199.998 370.4388)" class="st4" cx="87.56" cy="286.48" rx="7.73" ry="38.9"/>
<path class="st5" d="M20.26,259.01l-4.18,2.32c0.27,1.51,0.66,2.97,1.17,4.38l4.79-0.08c0.64,1.46,1.44,2.83,2.37,4.11l-2.46,4.1
	c0.98,1.16,2.05,2.23,3.21,3.21l4.1-2.46c1.27,0.93,2.64,1.73,4.1,2.37l-0.08,4.79c1.41,0.51,2.87,0.9,4.38,1.17l2.32-4.18
	c0.78,0.08,1.57,0.13,2.37,0.13c0.8,0,1.59-0.04,2.37-0.13l2.32,4.18c1.51-0.27,2.97-0.66,4.38-1.17l-0.08-4.79
	c1.46-0.64,2.83-1.44,4.11-2.37l4.1,2.46c1.16-0.98,2.23-2.05,3.21-3.21l-2.46-4.1c0.93-1.28,1.73-2.65,2.37-4.11l4.79,0.08
	c0.51-1.41,0.9-2.87,1.17-4.38l-4.18-2.32c0.08-0.78,0.13-1.57,0.13-2.37c0-0.8-0.04-1.59-0.13-2.37l4.18-2.32
	c-0.27-1.51-0.66-2.97-1.17-4.38l-4.79,0.08c-0.64-1.46-1.44-2.83-2.37-4.1l2.46-4.1c-0.98-1.16-2.05-2.23-3.21-3.21l-4.1,2.46
	c-1.28-0.93-2.65-1.73-4.11-2.37l0.08-4.79c-1.41-0.51-2.87-0.9-4.38-1.17l-2.32,4.18c-0.78-0.08-1.57-0.13-2.37-0.13
	c-0.8,0-1.59,0.04-2.37,0.13l-2.32-4.18c-1.51,0.27-2.97,0.66-4.38,1.17l0.08,4.79c-1.46,0.64-2.83,1.44-4.1,2.37l-4.1-2.46
	c-1.16,0.98-2.23,2.05-3.21,3.21l2.46,4.1c-0.93,1.27-1.73,2.64-2.37,4.1l-4.79-0.08c-0.51,1.41-0.9,2.87-1.17,4.38l4.18,2.32
	c-0.08,0.78-0.13,1.57-0.13,2.37C20.13,257.43,20.17,258.22,20.26,259.01z M30.86,256.63c0-6.35,5.15-11.49,11.49-11.49
	c6.34,0,11.49,5.15,11.49,11.49c0,6.34-5.15,11.49-11.49,11.49C36.01,268.12,30.86,262.98,30.86,256.63z"/>
<path class="st5" d="M6.64,215.5l-2.67,1.01c0.03,0.91,0.13,1.81,0.31,2.69l2.84,0.37c0.25,0.92,0.61,1.8,1.05,2.63l-1.81,2.21
	c0.48,0.77,1.02,1.5,1.62,2.17l2.64-1.1c0.67,0.66,1.42,1.25,2.23,1.76l-0.46,2.82c0.79,0.42,1.62,0.78,2.49,1.07l1.73-2.27
	c0.45,0.12,0.92,0.21,1.39,0.28c0.47,0.07,0.94,0.11,1.41,0.13l1.01,2.67c0.92-0.03,1.82-0.13,2.69-0.31l0.37-2.84
	c0.92-0.26,1.8-0.61,2.64-1.05l2.21,1.81c0.77-0.48,1.5-1.02,2.17-1.62l-1.1-2.64c0.66-0.67,1.25-1.42,1.75-2.22l2.82,0.46
	c0.42-0.79,0.78-1.62,1.07-2.49l-2.27-1.73c0.12-0.45,0.21-0.92,0.28-1.39c0.07-0.47,0.11-0.94,0.13-1.41l2.67-1.01
	c-0.03-0.91-0.13-1.81-0.31-2.69l-2.84-0.37c-0.26-0.92-0.61-1.8-1.05-2.63l1.81-2.21c-0.48-0.77-1.02-1.5-1.62-2.17l-2.64,1.1
	c-0.67-0.66-1.42-1.25-2.23-1.76l0.46-2.82c-0.79-0.43-1.62-0.78-2.49-1.07l-1.73,2.27c-0.45-0.12-0.92-0.21-1.39-0.28
	c-0.48-0.07-0.95-0.11-1.42-0.13l-1.01-2.67c-0.91,0.03-1.81,0.13-2.69,0.31l-0.37,2.83c-0.92,0.26-1.8,0.61-2.64,1.05l-2.21-1.81
	c-0.77,0.48-1.5,1.02-2.17,1.62l1.1,2.64c-0.66,0.67-1.25,1.41-1.76,2.22l-2.83-0.46c-0.42,0.79-0.78,1.62-1.07,2.49l2.27,1.74
	c-0.12,0.45-0.21,0.92-0.28,1.39C6.69,214.56,6.65,215.03,6.64,215.5z M14.07,215.15c0.47-3.22,3.47-5.46,6.69-4.99
	c3.22,0.47,5.45,3.47,4.98,6.69c-0.47,3.22-3.46,5.46-6.69,4.99C15.83,221.38,13.6,218.38,14.07,215.15z"/>
<path class="st5" d="M137.53,97.93l-2.67,1.01c0.03,0.91,0.13,1.81,0.31,2.69l2.84,0.37c0.25,0.92,0.61,1.8,1.05,2.63l-1.81,2.21
	c0.48,0.77,1.02,1.5,1.62,2.17l2.64-1.1c0.67,0.66,1.42,1.25,2.23,1.76l-0.46,2.82c0.79,0.42,1.62,0.78,2.49,1.07l1.73-2.27
	c0.45,0.12,0.92,0.21,1.39,0.28c0.47,0.07,0.94,0.11,1.41,0.13l1.01,2.67c0.92-0.03,1.82-0.13,2.69-0.31l0.37-2.84
	c0.92-0.26,1.8-0.61,2.64-1.05l2.21,1.81c0.77-0.48,1.5-1.02,2.17-1.62l-1.1-2.64c0.66-0.67,1.25-1.42,1.75-2.22l2.82,0.46
	c0.42-0.79,0.78-1.62,1.07-2.49l-2.27-1.73c0.12-0.45,0.21-0.92,0.28-1.39c0.07-0.47,0.11-0.94,0.13-1.41l2.67-1.01
	c-0.03-0.91-0.13-1.81-0.31-2.69l-2.84-0.37c-0.26-0.92-0.61-1.8-1.05-2.63l1.81-2.21c-0.48-0.77-1.02-1.5-1.62-2.17l-2.63,1.1
	c-0.67-0.66-1.42-1.25-2.23-1.76l0.46-2.82c-0.79-0.43-1.62-0.78-2.49-1.07l-1.73,2.27c-0.45-0.12-0.92-0.21-1.39-0.28
	c-0.48-0.07-0.95-0.11-1.42-0.13l-1.01-2.67c-0.91,0.03-1.81,0.13-2.69,0.31l-0.37,2.83c-0.92,0.26-1.8,0.61-2.64,1.05l-2.21-1.81
	c-0.77,0.48-1.5,1.02-2.17,1.62l1.1,2.64c-0.66,0.67-1.25,1.41-1.76,2.22l-2.83-0.46c-0.42,0.79-0.78,1.62-1.07,2.49l2.27,1.74
	c-0.12,0.45-0.21,0.92-0.28,1.39C137.59,96.99,137.55,97.46,137.53,97.93z M144.96,97.58c0.47-3.22,3.47-5.46,6.69-4.99
	c3.23,0.47,5.45,3.47,4.98,6.69c-0.47,3.22-3.46,5.46-6.69,4.99C146.72,103.8,144.49,100.81,144.96,97.58z"/>
<g>
	<path class="st5" d="M292.13,68.05H259c0,0-6.3-0.05-7.54-4.08c-0.77-2.52,1.13-5.43,5.18-6.18c4.57-0.85,5.19-0.9,6.13-4.89
		c0.94-3.99,2.74-5.33,5.2-5.68c2.73-0.38,5.18,1.33,7.53,4.26c1.13,1.41,4.9-1.31,6.59-2.86c2.12-1.95,7.06-2.01,9.01,2.17
		c2.2,4.71-1.19,6.8,2.86,8.71c2.86,1.35,4.04,3.01,3.98,4.89C297.87,66.26,294.83,68.05,292.13,68.05z"/>
	<path class="st6" d="M287.01,68.05c0,0,3.84-0.51,1.91-3.92c-1.99-3.52-6.93,1.04-8.4-3.98c-1.52-5.18-7.32-6.67-9.35-2.08
		c-1.67,3.78-3.77,4.64-9.09,3.73c-5.33-0.91-5.31,5.75-2.37,6.25C262.65,68.56,287.01,68.05,287.01,68.05z"/>
</g>
<path class="st7" d="M69.55,275.99l-15.14-20.03c-8.33-11.01-6.15-26.69,4.86-35.01l39.96-30.22l45.29,59.9l-39.96,30.22
	C93.55,289.18,77.88,287,69.55,275.99z"/>
<path class="st8" d="M215.3,233.99L215.3,233.99c-0.01,0-0.02,0.01-0.04,0c-3.52,0.41-7.06,0.58-10.59,0.5
	c-32.29,2.99-63.08,18.36-63.08,18.36l-45.29-59.9c11.02-8.33,19.65-21.66,25.91-34.13c3.62-7.21,6.44-14.14,8.47-19.66
	c3.98-17.03,13.71-32.82,28.75-44.19c34.2-25.86,82.88-19.1,108.73,15.1c23.02,30.45,20.19,72.38-4.85,99.46
	c-3.08,3.33-6.5,6.44-10.25,9.28C241.64,227.45,228.58,232.44,215.3,233.99z"/>
<path class="st1" d="M262.57,210.25c-47.01,16.96-101.45,1.93-132.56-40.38c-2.91-3.95-5.53-8.03-7.86-12.21
	c3.71-7.16,6.63-14.06,8.74-19.54c4.21-16.98,14.15-32.63,29.34-43.8c34.54-25.4,83.13-17.98,108.52,16.55
	C291.36,141.61,287.97,183.5,262.57,210.25z"/>
<g>
	<path class="st9" d="M94.2,238.75l-2.07-2.74l93.5-70.7c-2.56-3.96-5.53-9.55-6.9-15.75c-1.76-7.95,2.9-14.26,7.98-16.77
		c5.52-2.73,11.49-1.4,15.57,3.45c3.51,4.18,3.77,10.61,2.22,14.79c-1.46,3.92-4.07,7.39-7.55,10.02l-6.63,5.01
		c1.34,1.86,2.3,2.95,2.33,2.98l-2.57,2.27c-0.12-0.13-1.12-1.28-2.51-3.18L94.2,238.75z M199.91,138.79
		c-0.08-0.11-0.17-0.22-0.26-0.33c-3.06-3.64-7.33-4.6-11.42-2.58c-3.92,1.93-7.51,6.81-6.15,12.95c1.23,5.57,3.94,10.7,6.31,14.4
		l6.49-4.91c2.96-2.24,5.17-5.17,6.4-8.48C202.42,146.78,202.3,141.95,199.91,138.79z"/>
	<path class="st9" d="M99.03,245.13l-2.07-2.74l93.37-70.6c-1.45-1.85-2.28-3.13-2.38-3.28l2.89-1.85c0.02,0.04,0.81,1.25,2.24,3.05
		l6.63-5.01c3.48-2.63,7.52-4.2,11.7-4.53c4.45-0.36,10.56,1.64,13.63,6.16c3.56,5.25,3.21,11.35-0.92,15.92
		c-3.79,4.2-11.14,6.97-18.31,3.11c-5.59-3.01-10.16-7.39-13.27-10.93L99.03,245.13z M221.94,167.92
		c-2.39-3.16-7.01-4.59-10.27-4.33c-3.52,0.28-6.95,1.62-9.9,3.85l-6.49,4.91c2.92,3.29,7.12,7.29,12.14,10
		c5.54,2.98,11.21,0.85,14.14-2.39c3.06-3.39,3.3-7.76,0.63-11.69C222.11,168.15,222.03,168.03,221.94,167.92z"/>
</g>
<path class="st2" d="M147.58,257.23c-0.18,0.39-0.42,0.77-0.7,1.11c-0.26,0.3-0.55,0.59-0.88,0.84l-2.1,1.58
	c-2.33,1.77-5.66,1.3-7.42-1.03L88.3,196c-1.77-2.33-1.3-5.66,1.03-7.42l2.1-1.59c0.35-0.26,0.71-0.48,1.1-0.64
	c0.56-0.24,1.16-0.38,1.75-0.42c1.72-0.11,3.46,0.61,4.57,2.09l48.18,63.72C148.27,253.38,148.41,255.5,147.58,257.23z"/>
<path class="st5" d="M147.58,257.23c-1.72,0.11-3.46-0.61-4.58-2.09l-48.18-63.72c-1.23-1.63-1.38-3.75-0.55-5.48
	c1.72-0.11,3.46,0.61,4.57,2.09l48.18,63.72C148.27,253.38,148.41,255.5,147.58,257.23z"/>
<path class="st2" d="M126.71,267.11l-48.18-63.72c-1.77-2.33-1.3-5.66,1.03-7.42l2.1-1.59c2.33-1.77,5.66-1.3,7.42,1.03l48.18,63.72
	c1.77,2.33,1.3,5.66-1.03,7.42l-2.1,1.59C131.8,269.91,128.47,269.45,126.71,267.11z"/>
<path class="st2" d="M117.13,274.35l-48.18-63.72c-1.77-2.33-1.3-5.66,1.03-7.42l2.1-1.59c2.33-1.77,5.66-1.3,7.42,1.03l48.18,63.72
	c1.77,2.33,1.3,5.66-1.03,7.42l-2.1,1.59C122.22,277.15,118.9,276.69,117.13,274.35z"/>
<ellipse transform="matrix(0.8042 -0.5943 0.5943 0.8042 -33.7253 143.347)" class="st10" cx="200.72" cy="122.86" rx="31.88" ry="21.35"/>
<ellipse transform="matrix(0.0439 -0.999 0.999 0.0439 113.0547 371.3885)" class="st10" cx="250.57" cy="126.63" rx="10.94" ry="10.94"/>
<g>
	<g>
		<path class="st11" d="M106.7,182.12c0.56,0.21,7.74,0.09,10.73,0.03c0.61-0.01,0.89-0.75,0.45-1.18
			c-0.74-0.71-2.06-1.53-4.31-1.75c-0.98-0.09-1.58-0.41-1.93-0.94c-0.49-0.73-0.51-1.86-0.41-3.33c0.02-0.32,0.05-0.65,0.08-0.99
			c0.25-3.06-4.36-0.06-4.36-0.06s0.01,0.42-0.01,1.05c-0.03,0.9-0.12,2.22-0.37,3.26c-0.04,0.15-0.08,0.3-0.12,0.44
			C105.88,180.41,105.99,181.85,106.7,182.12z"/>
		<path class="st12" d="M106.7,182.12c0.61,0.23,8.98,0.07,11.38,0.01c0.31-0.01,0.43-0.33,0.29-0.61
			c-0.48-0.97-1.84-2.49-4.72-2.76c-0.98-0.09-1.9-0.48-2.26-1c-1.01,0.06-1.81,0.51-1.79,1.43c0.01,0.54-1.7,0.69-3.03-0.98
			c-0.04,0.15-0.08,0.3-0.12,0.44C105.88,180.41,105.99,181.85,106.7,182.12z"/>
	</g>
	<path class="st7" d="M93.19,127.28c0,0,19.22,12.95,23.27,15.78c4.05,2.83-5.06,33.39-5.06,33.39h-4.86c0,0,1.21-27.93,0-29.14
		c-1.21-1.21-19.91-5.87-22.81-13.56C80.84,126.07,93.19,127.28,93.19,127.28z"/>
	<path class="st7" d="M90.05,135.37c0,0-6.04,29.95-6.31,32.58c-0.26,2.63-5.53,28.22-5.53,28.22h-5.67c0,0,1.21-28.31,1.01-31.7
		c-0.2-3.39,1.21-27.68,2.02-32.33c0.81-4.65,12.55-3.04,12.55-3.04L90.05,135.37z"/>
	<path class="st12" d="M72.03,205.19c1.63-0.24,3.69-3.77,4.47-4.98c0.78-1.2,1.4-4.04,1.4-4.04h-4.89c0,0-0.16,0.39-0.38,0.94
		c-0.47,1.18-1.06,3.14-1.19,3.57C71.2,201.49,70.4,205.44,72.03,205.19z"/>
	
		<linearGradient id="SVGID_1_" gradientUnits="userSpaceOnUse" x1="-1219.2222" y1="139.5973" x2="-1242.9167" y2="114.7245" gradientTransform="matrix(-1 0 0 1 -1162.4052 0)">
		<stop  offset="0" style="stop-color:#B2C9D1"/>
		<stop  offset="1" style="stop-color:#FAFDFF"/>
	</linearGradient>
	<path class="st13" d="M92.18,93.99c-1.82,0.1-18.82,1.21-22.61,4.1c-3.79,2.88,5.95,34.43,5.88,35.03
		c-0.07,0.6,19.58-4.61,19.06-4.96C93.97,127.8,94.62,93.86,92.18,93.99z"/>
	<path class="st14" d="M106.24,62.93h-3.44c0,0-2.07,15.99-2.4,17c-0.33,1.01-7.43,13.99-9.44,14.14
		c-2.01,0.15,2.88,10.44,2.88,10.44s10.38-14.46,11.49-20.03S106.24,62.93,106.24,62.93z"/>
	<path class="st14" d="M69.56,98.09c0,0-12.6,15.33-13.51,20.79c-0.91,5.46,15.78,11.69,15.78,11.69l2.02-3.36
		c0,0-9.15-7.27-10.06-7.87c-0.91-0.61,6.04-8.77,6.04-8.77L69.56,98.09z"/>
	<g>
		<path class="st12" d="M87.32,77.28c0,0,1.85-1.73,1.29-4.35c-0.56-2.62-5.84-3.14-8.43-0.68c-4.61,4.36-3.9,2.99-5.71,5.31
			c-3.49,4.46,2.09,8.98,4.61,9.05C81.6,86.67,87.32,77.28,87.32,77.28z"/>
		<path class="st11" d="M80.19,87.01l-0.01,0.34l-0.26,7.3c-0.02,0.69,0.38,1.33,1.02,1.59c0.69,0.28,1.67,0.56,2.82,0.52
			c1-0.03,1.79-0.35,2.34-0.67c0.58-0.34,0.91-1,0.81-1.67l-0.51-3.71l-0.15-1.1c-0.06-0.43-0.36-0.79-0.78-0.93L80.19,87.01z"/>
		
			<linearGradient id="SVGID_2_" gradientUnits="userSpaceOnUse" x1="-1664.4611" y1="203.1833" x2="-1654.3304" y2="219.7888" gradientTransform="matrix(-0.9972 -0.0748 -0.0748 0.9972 -1557.2838 -242.9369)">
			<stop  offset="0" style="stop-color:#FFFFFF"/>
			<stop  offset="1" style="stop-color:#231F20"/>
		</linearGradient>
		<path class="st15" d="M80.19,87.01l-0.01,0.34c1.57,2.8,5.19,4.82,6.43,4.9l-0.46-3.35L80.19,87.01z"/>
		<path class="st11" d="M77.09,84.32c0.62,1.45,1.76,1.71,1.76,1.71s5.26,6.53,8.35,3.57c2.52-2.41,1-9.11,0.36-11.48
			c-0.14-0.53-0.24-0.84-0.24-0.84c-1.2,1.78-8.82,2.5-7.98,4.2c0,0.01,0.01,0.01,0.01,0.02c0.83,1.68,0.4,2.22,0.16,2.48
			c-0.25,0.27-0.65-0.93-1.11-1.21C77.38,82.15,76.58,83.1,77.09,84.32z"/>
		
			<linearGradient id="SVGID_3_" gradientUnits="userSpaceOnUse" x1="-1478.9398" y1="665.7958" x2="-1472.1475" y2="665.7958" gradientTransform="matrix(-0.9418 -0.3362 -0.3362 0.9418 -1082.3412 -1043.6805)">
			<stop  offset="0" style="stop-color:#FFFFFF"/>
			<stop  offset="1" style="stop-color:#231F20"/>
		</linearGradient>
		<path class="st16" d="M79.34,81.48c0,0.01,0.01,0.01,0.01,0.02c0.25-0.44,0.89-0.94,2.43-1.25c2.47-0.49,4.82-1.62,5.78-2.12
			c-0.14-0.53-0.24-0.84-0.24-0.84C86.12,79.07,78.5,79.78,79.34,81.48z"/>
		<path class="st12" d="M79.6,82.07c0,0,1.35,2.98,3.17,3.19c1.82,0.21,5.13-2.24,5.75-2.02c0.63,0.21,1.68,6.04-1.16,6.89
			c-2.84,0.85-5.74-0.12-6.83-3.32c-1.09-3.2-2.3-4.32-2.3-4.32L79.6,82.07z"/>
	</g>
	<path class="st11" d="M102.8,62.93c0,0,1.21-3.39,2.58-3.85c1.37-0.46,3.34-0.76,4.4-1.97c1.06-1.21,1.59,1.21,0.38,2.43
		c-1.21,1.21-3.93,2.76-3.92,3.39C106.25,63.56,102.8,62.93,102.8,62.93z"/>
	<path class="st11" d="M73.63,127.59c0,0,4.59,1.92,5.04,2.98c0.46,1.06-6.83,0-6.83,0L73.63,127.59z"/>
	<polygon class="st14" points="87.56,94.34 86.71,92.93 84.33,95.73 79.98,93.23 79.12,95.35 83.19,98.65 84.41,96.77 85.96,98.43 	
		"/>
	<linearGradient id="SVGID_4_" gradientUnits="userSpaceOnUse" x1="75.5274" y1="109.2588" x2="85.5446" y2="109.2588">
		<stop  offset="0" style="stop-color:#C73F86"/>
		<stop  offset="1" style="stop-color:#E34899"/>
	</linearGradient>
	<path class="st17" d="M85.54,96.77c0,0-0.1,1.68-0.46,1.88c0,0,0.01,8.98-1.66,13.61c-1.83,5.06-3.14,5.77-4.74,8.75l-3.16,1.32
		l0.05-2.98c0,0,4.35-5.41,5.72-9.62c0.67-2.06,2.83-11.07,2.83-11.07s-0.64-0.4-0.79-1.12c-0.15-0.72,1.25-1.35,1.25-1.35
		L85.54,96.77z"/>
	<path class="st11" d="M72.64,197.12c0.23,0.01,0.46-0.6,1.87-0.37c1.41,0.23,0.92,0.95,1.42,1.05c0.39,0.07,0.79-0.96,1.17-1.62
		h-4.09C73.01,196.17,72.86,196.57,72.64,197.12z"/>
</g>
<path class="st18" d="M277.43,156.91c0,0,5.27,4.87,7.71,11.92c2.45,7.05,3.42,9.98,1.71,12.06c-1.71,2.08-12.97,9.64-12.97,9.64
	l-1.95-3.52c0,0,8.56-7.95,8.56-9.66c0-1.71-5.14-10.76-5.14-10.76L277.43,156.91z"/>
<g>
	<path class="st11" d="M270.58,155.51l-6.89,0.29c0,0,0.33-3.2,0.27-4.75c-0.06-1.47,0.09-2.67,0.09-2.67s2.49-1.47,4.29-2.05
		c1.12-0.36,1.96-0.39,1.78,0.49C269.62,149.11,270.58,155.51,270.58,155.51z"/>
	<path class="st12" d="M268.19,146.63c0,0,0.94,2.23,1.87,2.51c0,0,5.61-4.62,5.6-7.6c0-3.12-2.7-3.94-2.7-3.94
		s-2.43-5.71-4.91-6.37c-2.99-0.81-6.23,0.27-4.55,6.02C265.14,142.86,268.19,146.63,268.19,146.63z"/>
	
		<linearGradient id="SVGID_5_" gradientUnits="userSpaceOnUse" x1="-1169.9081" y1="118.0693" x2="-1173.3751" y2="133.5978" gradientTransform="matrix(0.989 0.1482 -0.1482 0.989 1441.5253 201.889)">
		<stop  offset="0" style="stop-color:#FFFFFF"/>
		<stop  offset="1" style="stop-color:#000000"/>
	</linearGradient>
	<path class="st19" d="M268.33,146.33c-0.04,0.1-0.09,0.2-0.14,0.31c-1.38,2.59-3.12,3.84-4.24,4.42c-0.06-1.47,0.09-2.67,0.09-2.67
		S266.54,146.91,268.33,146.33z"/>
	<path class="st11" d="M263.46,137c0,0-4.57,6.55-3.07,10.43c1.5,3.88,6.42,0.89,7.13-0.54c0,0,1.83-0.01,2.31-1.57
		c0.48-1.56-1.61-1.65-1.61-1.65S263.94,140.38,263.46,137z"/>
</g>
<path class="st11" d="M233.62,150.6c0,0-1.24-2.04-1.67-3.14c-0.43-1.1-2.2-2.45-2.75-2.81c-0.55-0.37,0.37,3,0.37,3.79
	c0,0.79,1.76,3.67,1.76,3.67L233.62,150.6z"/>
<g>
	<polygon class="st7" points="262.41,297.38 261,297.38 220.06,205.23 221.49,205.27 	"/>
	<polygon class="st7" points="290.54,297.38 289.13,297.38 248.15,205.15 249.56,205.13 	"/>
	<g>
		<polygon class="st7" points="257.07,288.55 285.92,288.55 285.28,287.13 256.44,287.13 		"/>
	</g>
	<g>
		<polygon class="st7" points="250.67,274.14 279.51,274.14 278.88,272.71 250.04,272.71 		"/>
	</g>
	<g>
		<polygon class="st7" points="244.26,259.72 273.11,259.72 272.47,258.3 243.63,258.3 		"/>
	</g>
	<g>
		<polygon class="st7" points="237.86,245.31 266.7,245.31 266.07,243.88 237.23,243.88 		"/>
	</g>
	<g>
		<polygon class="st7" points="231.46,230.89 260.3,230.89 259.67,229.47 230.82,229.47 		"/>
	</g>
	<g>
		<polygon class="st7" points="225.05,216.47 253.89,216.47 253.26,215.05 224.42,215.05 		"/>
	</g>
</g>
<g>
	<path class="st11" d="M246.98,244.74c-0.56,0.21-7.74,0.09-10.73,0.03c-0.61-0.01-0.89-0.75-0.45-1.18
		c0.74-0.71,2.06-1.53,4.31-1.75c0.98-0.09,1.58-0.41,1.93-0.94c0.49-0.73,0.51-1.86,0.41-3.33c-0.02-0.32-0.05-0.65-0.08-0.99
		c-0.25-3.06,4.36-0.06,4.36-0.06s-0.01,0.42,0.01,1.05c0.03,0.9,0.12,2.22,0.37,3.26c0.04,0.15,0.08,0.3,0.12,0.44
		C247.8,243.03,247.69,244.46,246.98,244.74z"/>
	<path class="st12" d="M246.98,244.74c-0.61,0.23-8.98,0.07-11.38,0.01c-0.31-0.01-0.43-0.33-0.29-0.61
		c0.48-0.97,1.84-2.49,4.72-2.76c0.98-0.09,1.9-0.48,2.26-1c1.01,0.06,1.81,0.51,1.79,1.43c-0.01,0.54,1.7,0.7,3.03-0.98
		c0.04,0.15,0.08,0.3,0.12,0.44C247.8,243.03,247.69,244.46,246.98,244.74z"/>
</g>
<g>
	<path class="st11" d="M274,258.53c-0.56,0.21-7.74,0.09-10.73,0.03c-0.61-0.01-0.89-0.75-0.45-1.18c0.74-0.71,2.06-1.53,4.31-1.75
		c0.98-0.09,1.58-0.41,1.93-0.94c0.49-0.73,0.51-1.86,0.41-3.33c-0.02-0.32-0.05-0.65-0.08-0.99c-0.25-3.06,4.36-0.06,4.36-0.06
		s-0.01,0.42,0.01,1.05c0.03,0.9,0.12,2.22,0.37,3.26c0.04,0.15,0.08,0.3,0.12,0.44C274.82,256.82,274.7,258.26,274,258.53z"/>
	<path class="st12" d="M274,258.53c-0.61,0.23-8.98,0.07-11.38,0.01c-0.31-0.01-0.43-0.33-0.29-0.61c0.48-0.97,1.84-2.49,4.72-2.76
		c0.98-0.09,1.9-0.48,2.26-1c1.01,0.06,1.81,0.51,1.79,1.43c-0.01,0.54,1.7,0.69,3.03-0.98c0.04,0.15,0.08,0.3,0.12,0.44
		C274.82,256.82,274.7,258.26,274,258.53z"/>
</g>
<path class="st7" d="M272.42,186.03c0,0,3.67,10.15,3.55,15.53c-0.12,5.38-2.08,22.25-2.08,23.72s0.37,27.14,0.37,27.14h-5.32
	c0,0-4.34-26.04-4.1-27.88c0.24-1.83-1.22-24.82-1.22-24.82l2.51-12.72L272.42,186.03z"/>
<path class="st7" d="M269.98,187.86c0,0,0,7.95-7.83,14.18c-7.83,6.24-14.31,11.74-14.56,12.59c-0.24,0.86-0.01,22.62-0.01,22.62h-6
	c0,0-3.09-24.81-2.97-27.25s17.66-21.49,17.66-21.49L269.98,187.86z"/>
<path class="st18" d="M277.43,156.91c-2.28-2.61-15.93-2.71-20.33-2.22c-4.4,0.49-14.84,5.05-14.84,5.05l-8.64-9.14l-2.79,1.81
	c0,0,8,12.88,11.27,13.53c3.26,0.65,12.47-2.28,12.72-1.92c0.24,0.37,1.1,23.92,1.47,24.5c0.37,0.57,14.8,1.67,16.75,0.88
	c1.96-0.8,4.65-16.69,5.14-19.75C278.66,166.59,279.99,159.84,277.43,156.91z"/>
<path class="st14" d="M271,154.91c0,0-0.34-1.55-0.71-1.67c-0.37-0.13-5.93-0.58-6.37-0.32c-0.45,0.26-0.86,1.54-0.86,1.54
	S269.83,155.07,271,154.91z"/>
<polygon class="st14" points="233.15,149.79 233.62,150.6 231.13,152.22 230.59,151.33 "/>
<g>
	<path class="st11" d="M213.68,72.57c0,0,10.05,25.42,10.36,27.4c0.31,1.98,3.73,32.35,3.73,32.35l-3.93,0.7
		c0,0-7.56-28.29-8.93-30.61c-1.38-2.32-7.56-9.28-7.56-9.28L213.68,72.57z"/>
	<path class="st11" d="M231.37,78.97c0,0,7.97,8.75,9.05,12.15c1.83,5.76,10.52,27.75,10.52,27.75l-3.95,1.12
		c0,0-13.07-24.54-15.61-26.09c-2.54-1.55-8.57-6.8-8.57-6.8L231.37,78.97z"/>
	<path class="st12" d="M215.05,57.98c0,0,10.69,12.68,18.09,19.76c6.57,6.28-3.42,8.13-7.1,13c-3.68,4.87-18.29,10.2-23.99,9.04
		c-5.7-1.16-1.11-11.14-4.07-21.57c-2.96-10.42,4.62-20.11,4.62-20.11L215.05,57.98z"/>
	<path class="st20" d="M234.58,139.4c-0.2,0.25-5.41,0.58-5.91,0.35c-0.5-0.23-2.3-2.74-2.3-2.74l-0.07,2.96l-1.35,0.02l-1.21-7.3
		l4.02-0.36c0,0,2.81,4.55,3.28,5.03C231.52,137.83,234.84,139.06,234.58,139.4z"/>
	<path class="st20" d="M258.83,124.4c-0.15,0.29-5.21,1.58-5.74,1.45c-0.53-0.13-2.77-2.26-2.77-2.26l0.49,2.92l-1.32,0.27
		l-2.56-6.95l3.88-1.11c0,0,3.61,3.94,4.17,4.32C255.54,123.44,259.02,124.02,258.83,124.4z"/>
	<path class="st18" d="M213.98,25.68c0,0-0.51,3.99,2.25,6.02c3.19,2.34-0.71,4.84-4.95,5.25c-4.24,0.41-8.26-0.98-11.92-1.41
		c-3.66-0.43-5.39-1.49-3.57-4.34c1.82-2.85,3.37-6.22,3.54-8.39c0.17-2.16,0.05-5.63,4.13-6.7c4.07-1.07,3.36-2.82,6.02-3.55
		c3.6-0.98,5.85,3.44,2.78,6.13C209.24,21.33,213.98,25.68,213.98,25.68z"/>
	<path class="st11" d="M188.8,6.25c0,0-0.51-1.8-1.71-2.78c-1.2-0.99-2.31-1.54-2.4-1.24c-0.09,0.3,1.37,1.54,1.28,1.76
		c-0.09,0.21-1.83-0.53-2.37-0.73c-1.28-0.48-1.92-1.84-2.22-1.41c-0.3,0.43,0.91,2.42,1.25,2.76c0.34,0.34,2.71,2.21,3.24,2.12
		C186.42,6.64,188.8,6.25,188.8,6.25z"/>
	<path class="st11" d="M227.64,5.83c0,0,0.51-1.8,1.71-2.78c1.2-0.98,2.31-1.54,2.4-1.24c0.09,0.3-1.37,1.54-1.28,1.76
		c0.09,0.21,2-0.5,2.53-0.7c1.28-0.48,1.75-1.87,2.05-1.44c0.3,0.43-0.91,2.42-1.25,2.76c-0.34,0.34-2.71,2.21-3.24,2.12
		C230.02,6.22,227.64,5.83,227.64,5.83z"/>
	
		<linearGradient id="SVGID_6_" gradientUnits="userSpaceOnUse" x1="-1370.63" y1="63.2657" x2="-1370.63" y2="40.2839" gradientTransform="matrix(-1 0 0 1 -1162.4052 0)">
		<stop  offset="0" style="stop-color:#C73F86"/>
		<stop  offset="1" style="stop-color:#E34899"/>
	</linearGradient>
	<path class="st21" d="M211.08,35.21c1.65-0.19,4.01,0.08,6.07-1.38c2.06-1.46,8.22-9.68,8.56-10.45
		c0.34-0.77,1.97-17.47,1.97-17.47l3.08,0.43c0,0,0.17,16.78-0.09,18.67C230.42,26.89,218.6,41.2,218,42.57
		c-0.6,1.37,0.56,2.67-0.68,6.4c-0.8,2.4-3.13,5.25-2.27,9.02c0.86,3.77-12.44,0.13-12.44,0.13s-1.82-9.72-2.76-13.49
		c-0.94-3.77-10.53-18.07-11.31-19.44s-2.91-18.41-2.91-18.41l3.17-0.51c0,0,4.37,16.53,4.71,17.22c0.34,0.69,7.97,10.96,8.99,10.71
		C202.5,34.17,206.92,35.7,211.08,35.21z"/>
	<path class="st11" d="M205.44,36.03c1.59,2.54,6.39,2.46,6.3,0.1c-0.04-1.17-0.31-2.82-0.57-4.2c-0.26-1.42-0.52-2.54-0.52-2.54
		s-5.57-3.84-5.33-1.7C205.56,29.83,205.44,36.03,205.44,36.03z"/>
	
		<linearGradient id="SVGID_7_" gradientUnits="userSpaceOnUse" x1="-1455.7034" y1="51.5148" x2="-1450.0552" y2="51.5148" gradientTransform="matrix(-0.9989 0.0476 0.0476 0.9989 -1245.5024 47.1938)">
		<stop  offset="0" style="stop-color:#FFFFFF"/>
		<stop  offset="1" style="stop-color:#000000"/>
	</linearGradient>
	<path class="st22" d="M205.32,27.69c1.08,2.95,4.49,3.95,5.85,4.24c-0.26-1.42-0.52-2.54-0.52-2.54S205.08,25.54,205.32,27.69z"/>
	<path class="st11" d="M212.06,18.86c0,0,4.85,7.54,1.89,10.42c-2.96,2.88-6.69-1.02-7.34-1.46c-0.65-0.44-2.59,0.05-3.08-1.14
		c-0.49-1.19,0.52-1.56,1.11-1.45c0.59,0.11,1.62,0.15,0.6-1.6c-1.03-1.75,2.38-1.81,3.87-2.65
		C210.59,20.13,212.06,18.86,212.06,18.86z"/>
</g>
<path class="st5" d="M137.81,264.61c-1.72,0.11-3.46-0.61-4.58-2.09L85.05,198.8c-1.23-1.63-1.38-3.75-0.55-5.48
	c1.72-0.11,3.46,0.61,4.57,2.09l48.18,63.72C138.5,260.76,138.64,262.88,137.81,264.61z"/>
<path class="st5" d="M128.24,272.32c-1.72,0.11-3.46-0.61-4.58-2.09l-48.18-63.72c-1.23-1.63-1.38-3.75-0.55-5.48
	c1.72-0.11,3.46,0.61,4.57,2.09l48.18,63.72C128.92,268.47,129.06,270.59,128.24,272.32z"/>
<g>
	<path class="st23" d="M108.07,47.86l-4.84,0.99c-1.64,0.34-3.25-0.72-3.59-2.36l-1.6-7.81l10.78-2.21l1.6,7.81
		C110.77,45.92,109.72,47.53,108.07,47.86z"/>
	<path class="st0" d="M111.1,26.05L111.1,26.05C111.1,26.05,111.09,26.05,111.1,26.05c-0.17,0.5-0.37,0.98-0.6,1.44
		c-1.64,4.46-1.55,9.51-1.55,9.51l-10.79,2.21c-0.41-1.98-1.63-3.97-2.88-5.58c-0.73-0.93-1.47-1.74-2.07-2.36
		c-2-1.6-3.48-3.89-4.03-6.59c-1.26-6.16,2.7-12.17,8.86-13.44c5.48-1.13,10.85,1.9,12.86,6.92c0.25,0.62,0.44,1.27,0.58,1.94
		C111.89,22.15,111.73,24.2,111.1,26.05z"/>
	<path class="st1" d="M110.94,18.3c-0.72,7.29-6.15,13.55-13.71,14.99c-0.71,0.14-1.41,0.22-2.11,0.27
		c-0.71-0.94-1.44-1.76-2.04-2.39c-1.98-1.63-3.43-3.93-3.95-6.65c-1.18-6.17,2.87-12.14,9.04-13.32
		C103.67,10.16,109,13.25,110.94,18.3z"/>
	<g>
		<path class="st9" d="M104.08,42.38l-0.49,0.1l-3.46-16.83c-0.69,0.09-1.61,0.13-2.52-0.08c-1.16-0.27-1.7-1.28-1.72-2.11
			c-0.01-0.9,0.54-1.61,1.44-1.84c0.78-0.2,1.64,0.17,2.1,0.64c0.43,0.44,0.72,1.01,0.85,1.63l0.24,1.19
			c0.33-0.06,0.54-0.12,0.54-0.12l0.14,0.48c-0.03,0.01-0.24,0.07-0.58,0.13L104.08,42.38z M97.53,22.08
			c-0.02,0-0.04,0.01-0.06,0.01c-0.67,0.17-1.07,0.68-1.06,1.35c0.01,0.64,0.43,1.42,1.33,1.63c0.81,0.19,1.66,0.15,2.3,0.07
			l-0.24-1.17c-0.11-0.53-0.36-1.01-0.72-1.38C98.74,22.25,98.09,21.96,97.53,22.08z"/>
		<path class="st9" d="M105.23,42.14l-0.49,0.1l-3.45-16.81c-0.34,0.08-0.56,0.1-0.58,0.11l-0.06-0.5c0.01,0,0.22-0.03,0.55-0.1
			l-0.24-1.19c-0.13-0.63-0.08-1.26,0.14-1.83c0.23-0.61,0.88-1.29,1.68-1.41c0.92-0.14,1.7,0.29,2.05,1.13
			c0.32,0.77,0.22,1.91-0.74,2.62c-0.75,0.55-1.62,0.88-2.28,1.07L105.23,42.14z M102.77,21c-0.57,0.12-1.05,0.64-1.22,1.09
			c-0.18,0.48-0.22,1.02-0.12,1.55l0.24,1.17c0.62-0.18,1.41-0.48,2.09-0.98c0.74-0.54,0.82-1.43,0.58-2.02
			c-0.26-0.62-0.82-0.93-1.51-0.82C102.81,21,102.79,21,102.77,21z"/>
	</g>
	<path class="st2" d="M109.66,38.08l-11.73,2.41c-0.35,0.07-0.69-0.15-0.76-0.5l-0.13-0.64c-0.07-0.35,0.15-0.69,0.5-0.76
		l11.73-2.41c0.35-0.07,0.69,0.15,0.76,0.5l0.13,0.64C110.23,37.67,110.01,38.01,109.66,38.08z"/>
	<path class="st2" d="M110.02,39.84l-11.73,2.41c-0.35,0.07-0.69-0.15-0.76-0.5l-0.13-0.64c-0.07-0.35,0.15-0.69,0.5-0.76
		l11.73-2.41c0.35-0.07,0.69,0.15,0.76,0.5l0.13,0.64C110.59,39.43,110.37,39.77,110.02,39.84z"/>
	<path class="st2" d="M110.37,41.56l-11.73,2.41c-0.35,0.07-0.69-0.15-0.76-0.5l-0.13-0.64c-0.07-0.35,0.15-0.69,0.5-0.76
		l11.73-2.41c0.35-0.07,0.69,0.15,0.76,0.5l0.13,0.64C110.95,41.15,110.72,41.49,110.37,41.56z"/>
	<path class="st10" d="M92.4,21.56c0.49,2.53,2.27,4.32,3.96,3.99c1.7-0.33,2.67-2.65,2.18-5.18s-2.27-4.32-3.96-3.99
		C92.88,16.71,91.9,19.03,92.4,21.56z"/>
	<path class="st10" d="M97.54,14.91c0.17,0.87,1.01,1.44,1.88,1.27s1.44-1.01,1.27-1.88c-0.17-0.87-1.01-1.44-1.88-1.27
		C97.94,13.2,97.37,14.04,97.54,14.91z"/>
</g>
</svg>
