<?xml version="1.0" encoding="utf-8"?>
<!-- Generator: Adobe Illustrator 23.0.2, SVG Export Plug-In . SVG Version: 6.00 Build 0)  -->
<svg version="1.1" id="Layer_1" xmlns="http://www.w3.org/2000/svg" xmlns:xlink="http://www.w3.org/1999/xlink" x="0px" y="0px"
	 viewBox="0 0 188.44 30.13" style="enable-background:new 0 0 188.44 30.13;" xml:space="preserve">
<style type="text/css">
	.Arched_x0020_Green{fill:url(#SVGID_1_);stroke:#FFFFFF;stroke-width:0.25;stroke-miterlimit:1;}
	.st0{fill:#403C3A;}
	.st1{fill:#FFDA00;}
	.st2{fill:#FFDE00;}
</style>
<linearGradient id="SVGID_1_" gradientUnits="userSpaceOnUse" x1="-1" y1="844.999" x2="-0.2929" y2="844.2919">
	<stop  offset="0" style="stop-color:#1DA238"/>
	<stop  offset="0.9831" style="stop-color:#24391D"/>
</linearGradient>
<g>
	<g>
		<path class="st0" d="M7.02,13.81v4.77c0,0.93,0.06,1.52,0.17,1.76s0.32,0.43,0.61,0.58s0.83,0.22,1.61,0.22v0.47H0.66v-0.47
			c0.8,0,1.33-0.07,1.62-0.22s0.48-0.34,0.6-0.58s0.17-0.82,0.17-1.75V7.41c0-0.93-0.06-1.52-0.17-1.76s-0.32-0.43-0.6-0.58
			S1.45,4.86,0.66,4.86V4.39h7.5c2.47,0,4.24,0.44,5.32,1.32s1.61,1.98,1.61,3.3c0,1.12-0.35,2.07-1.04,2.87s-1.65,1.34-2.87,1.63
			C10.36,13.71,8.98,13.81,7.02,13.81z M7.02,5.38v7.44c0.28,0.02,0.49,0.03,0.63,0.03c1.03,0,1.83-0.31,2.39-0.92
			s0.84-1.56,0.84-2.85c0-1.28-0.28-2.21-0.84-2.81s-1.39-0.89-2.5-0.89H7.02z"/>
		<path class="st0" d="M21.86,14.82v4.17c0,0.81,0.05,1.31,0.15,1.52c0.1,0.21,0.27,0.38,0.52,0.5s0.71,0.19,1.4,0.19v0.41H16.3
			V21.2c0.69,0,1.16-0.06,1.4-0.19c0.25-0.13,0.42-0.29,0.52-0.5c0.1-0.21,0.15-0.71,0.15-1.52V9.32c0-0.81-0.05-1.31-0.15-1.52
			c-0.1-0.21-0.27-0.38-0.52-0.5s-0.71-0.19-1.4-0.19V6.71h6.92c1.8,0,3.12,0.12,3.96,0.37s1.52,0.71,2.04,1.38
			c0.53,0.67,0.79,1.46,0.79,2.36c0,1.1-0.4,2.01-1.19,2.72c-0.51,0.45-1.21,0.79-2.12,1.02l3.58,5.04c0.47,0.65,0.8,1.06,1,1.22
			c0.3,0.23,0.65,0.35,1.04,0.37v0.41h-4.69l-4.8-6.79H21.86z M21.86,7.51v6.53h0.63c1.02,0,1.78-0.09,2.29-0.28
			c0.51-0.19,0.9-0.52,1.19-1.01c0.29-0.49,0.43-1.12,0.43-1.91c0-1.14-0.27-1.97-0.8-2.52c-0.53-0.54-1.39-0.81-2.56-0.81H21.86z"
			/>
		<path class="st0" d="M40.82,6.5c2.37-0.09,4.3,0.6,5.78,2.08c1.48,1.47,2.22,3.31,2.22,5.53c0,1.89-0.55,3.55-1.66,4.99
			c-1.46,1.9-3.53,2.86-6.21,2.86c-2.68,0-4.75-0.91-6.22-2.72c-1.16-1.44-1.74-3.14-1.74-5.11c0-2.21,0.75-4.06,2.26-5.53
			C36.77,7.11,38.62,6.41,40.82,6.5z M40.95,7.2c-1.36,0-2.4,0.7-3.11,2.09c-0.58,1.14-0.87,2.78-0.87,4.92
			c0,2.54,0.45,4.42,1.34,5.64c0.62,0.85,1.49,1.27,2.61,1.27c0.75,0,1.38-0.18,1.89-0.55c0.64-0.47,1.15-1.22,1.51-2.25
			c0.36-1.03,0.54-2.37,0.54-4.03c0-1.97-0.18-3.44-0.55-4.42c-0.37-0.98-0.83-1.67-1.4-2.07C42.35,7.41,41.69,7.2,40.95,7.2z"/>
		<path class="st0" d="M55.71,14.86v4.13c0,0.81,0.05,1.31,0.15,1.52c0.1,0.21,0.27,0.38,0.53,0.5c0.25,0.12,0.72,0.19,1.39,0.19
			v0.41H50.2V21.2c0.69,0,1.16-0.06,1.4-0.19c0.25-0.13,0.42-0.29,0.52-0.5c0.1-0.21,0.15-0.71,0.15-1.52V9.32
			c0-0.81-0.05-1.31-0.15-1.52c-0.1-0.21-0.27-0.38-0.52-0.5c-0.25-0.12-0.71-0.19-1.4-0.19V6.71h6.49c2.14,0,3.67,0.38,4.6,1.14
			s1.4,1.71,1.4,2.86c0,0.97-0.3,1.79-0.9,2.48c-0.6,0.69-1.43,1.16-2.48,1.41C58.6,14.77,57.4,14.86,55.71,14.86z M55.71,7.57V14
			c0.24,0.01,0.42,0.02,0.55,0.02c0.89,0,1.58-0.27,2.07-0.8c0.48-0.53,0.72-1.35,0.72-2.47c0-1.11-0.24-1.92-0.72-2.43
			s-1.21-0.77-2.16-0.77H55.71z"/>
		<path class="st0" d="M69.51,7.57v6.06h0.3c0.95,0,1.63-0.3,2.05-0.89c0.42-0.59,0.7-1.47,0.81-2.63h0.42v7.8h-0.42
			c-0.09-0.85-0.27-1.55-0.55-2.09c-0.28-0.54-0.61-0.91-0.98-1.09c-0.37-0.19-0.92-0.28-1.63-0.28v4.2c0,0.82,0.03,1.32,0.1,1.5
			c0.07,0.18,0.2,0.33,0.39,0.45c0.19,0.12,0.5,0.18,0.92,0.18h0.89c1.39,0,2.51-0.32,3.35-0.97c0.84-0.64,1.44-1.63,1.81-2.94h0.41
			l-0.67,4.74H63.83V21.2h0.49c0.43,0,0.78-0.08,1.04-0.23c0.19-0.1,0.34-0.28,0.44-0.53c0.08-0.18,0.12-0.64,0.12-1.38v-9.8
			c0-0.67-0.02-1.09-0.05-1.24c-0.07-0.26-0.21-0.45-0.41-0.59c-0.28-0.2-0.66-0.31-1.14-0.31h-0.49V6.71H76.3v4.41h-0.42
			c-0.21-1.08-0.51-1.85-0.9-2.32c-0.38-0.47-0.93-0.81-1.63-1.03c-0.41-0.13-1.18-0.2-2.31-0.2H69.51z"/>
		<path class="st0" d="M84.36,14.82v4.17c0,0.81,0.05,1.31,0.15,1.52c0.1,0.21,0.27,0.38,0.52,0.5s0.71,0.19,1.4,0.19v0.41H78.8
			V21.2c0.69,0,1.16-0.06,1.4-0.19c0.25-0.13,0.42-0.29,0.52-0.5c0.1-0.21,0.15-0.71,0.15-1.52V9.32c0-0.81-0.05-1.31-0.15-1.52
			c-0.1-0.21-0.27-0.38-0.52-0.5s-0.71-0.19-1.4-0.19V6.71h6.92c1.8,0,3.12,0.12,3.96,0.37s1.52,0.71,2.04,1.38
			c0.53,0.67,0.79,1.46,0.79,2.36c0,1.1-0.4,2.01-1.19,2.72c-0.51,0.45-1.21,0.79-2.12,1.02l3.58,5.04c0.47,0.65,0.8,1.06,1,1.22
			c0.3,0.23,0.65,0.35,1.04,0.37v0.41h-4.69l-4.8-6.79H84.36z M84.36,7.51v6.53h0.63c1.02,0,1.78-0.09,2.29-0.28
			c0.51-0.19,0.9-0.52,1.19-1.01c0.29-0.49,0.43-1.12,0.43-1.91c0-1.14-0.27-1.97-0.8-2.52c-0.53-0.54-1.39-0.81-2.56-0.81H84.36z"
			/>
		<path class="st0" d="M108.04,6.71v4.03h-0.4c-0.23-0.93-0.49-1.6-0.78-2.01c-0.29-0.41-0.68-0.73-1.18-0.97
			c-0.28-0.13-0.77-0.2-1.46-0.2h-1.11v11.49c0,0.76,0.04,1.24,0.13,1.43c0.08,0.19,0.25,0.36,0.49,0.5
			c0.25,0.14,0.58,0.21,1.01,0.21h0.49v0.41h-7.8V21.2h0.49c0.43,0,0.78-0.08,1.04-0.23c0.19-0.1,0.34-0.28,0.45-0.53
			c0.08-0.18,0.12-0.64,0.12-1.38V7.57h-1.08c-1,0-1.73,0.21-2.19,0.64c-0.64,0.59-1.04,1.44-1.21,2.54h-0.42V6.71H108.04z"/>
		<path class="st0" d="M124.84,6.71v0.41c-0.49,0.07-0.87,0.21-1.13,0.43c-0.37,0.31-0.94,1.15-1.74,2.52l-3.23,5.39v3.6
			c0,0.77,0.04,1.25,0.12,1.43c0.08,0.19,0.24,0.35,0.48,0.49c0.24,0.14,0.55,0.21,0.95,0.21h0.83v0.41h-8.36V21.2h0.78
			c0.44,0,0.79-0.08,1.04-0.23c0.19-0.1,0.34-0.28,0.45-0.53c0.08-0.18,0.12-0.64,0.12-1.38v-2.99l-3.5-6.38
			c-0.7-1.26-1.19-2-1.47-2.23c-0.29-0.22-0.67-0.34-1.14-0.35V6.71h7.14v0.41h-0.32c-0.43,0-0.73,0.06-0.91,0.19
			c-0.17,0.12-0.26,0.26-0.26,0.4c0,0.26,0.29,0.93,0.88,1.99l2.69,4.93l2.68-4.49c0.67-1.1,1-1.83,1-2.19c0-0.2-0.1-0.36-0.29-0.49
			c-0.25-0.18-0.71-0.29-1.37-0.33V6.71H124.84z"/>
		<path class="st1" d="M150.87,4.39v0.47c-0.32,0.03-0.59,0.11-0.81,0.27s-0.41,0.39-0.58,0.7c-0.05,0.1-0.32,0.76-0.8,1.97
			L143.28,22h-0.5l-4.27-11.1l-4.7,11.1h-0.47l-5.66-14.05c-0.58-1.41-0.98-2.27-1.21-2.56s-0.61-0.47-1.16-0.52V4.39h7.46v0.47
			c-0.6,0.02-1,0.11-1.2,0.27s-0.3,0.37-0.3,0.62c0,0.32,0.21,1,0.62,2.04l3.38,8.35l2.7-6.53l-0.71-1.83c-0.39-1-0.69-1.67-0.9-2
			s-0.46-0.57-0.73-0.72s-0.68-0.22-1.21-0.22V4.39h8.34v0.47c-0.58,0.01-1,0.06-1.26,0.14c-0.18,0.06-0.32,0.16-0.42,0.3
			s-0.15,0.3-0.15,0.48c0,0.19,0.19,0.79,0.57,1.79l3.14,8.15l2.81-7.38c0.3-0.76,0.48-1.28,0.55-1.56s0.1-0.54,0.1-0.77
			c0-0.35-0.12-0.62-0.36-0.82s-0.69-0.31-1.36-0.32V4.39H150.87z"/>
		<path class="st1" d="M158.79,21.23v0.38h-7.27v-0.38h0.46c0.4,0,0.73-0.07,0.97-0.22c0.18-0.1,0.31-0.26,0.41-0.49
			c0.08-0.16,0.11-0.59,0.11-1.29v-9.15c0-0.71-0.04-1.16-0.11-1.33s-0.23-0.33-0.46-0.47c-0.23-0.13-0.54-0.2-0.93-0.2h-0.46V7.7
			h7.27v0.38h-0.46c-0.4,0-0.73,0.07-0.97,0.22c-0.18,0.1-0.32,0.26-0.42,0.49c-0.08,0.16-0.11,0.59-0.11,1.29v9.15
			c0,0.71,0.04,1.16,0.12,1.33c0.08,0.18,0.23,0.33,0.46,0.47c0.23,0.13,0.54,0.2,0.93,0.2H158.79z"/>
		<path class="st1" d="M164.85,15.27v3.9c0,0.75,0.05,1.23,0.14,1.42c0.09,0.2,0.25,0.35,0.49,0.47s0.67,0.17,1.3,0.17v0.38h-7.12
			v-0.38c0.64,0,1.08-0.06,1.31-0.18c0.23-0.12,0.39-0.28,0.48-0.47c0.09-0.19,0.14-0.66,0.14-1.42v-9.02
			c0-0.75-0.05-1.23-0.14-1.42c-0.09-0.2-0.25-0.35-0.49-0.47s-0.67-0.17-1.3-0.17V7.7h6.46c1.68,0,2.91,0.12,3.69,0.35
			s1.42,0.66,1.91,1.29c0.49,0.63,0.74,1.36,0.74,2.2c0,1.03-0.37,1.87-1.11,2.54c-0.47,0.42-1.13,0.74-1.98,0.95l3.34,4.71
			c0.44,0.61,0.75,0.99,0.93,1.14c0.28,0.21,0.6,0.33,0.97,0.35v0.38h-4.38l-4.48-6.34H164.85z M164.85,8.45v6.09h0.58
			c0.95,0,1.66-0.09,2.13-0.26c0.47-0.17,0.84-0.49,1.11-0.94c0.27-0.45,0.4-1.05,0.4-1.78c0-1.06-0.25-1.84-0.74-2.35
			s-1.29-0.76-2.39-0.76H164.85z"/>
		<path class="st1" d="M180.16,8.5v5.66h0.28c0.88,0,1.52-0.28,1.92-0.83s0.65-1.37,0.76-2.45h0.39v7.28h-0.39
			c-0.08-0.79-0.25-1.44-0.52-1.95c-0.26-0.51-0.57-0.85-0.92-1.02c-0.35-0.17-0.85-0.26-1.52-0.26v3.92c0,0.77,0.03,1.23,0.1,1.4
			c0.06,0.17,0.19,0.31,0.36,0.42s0.46,0.16,0.86,0.16h0.83c1.3,0,2.34-0.3,3.12-0.9s1.35-1.52,1.69-2.75h0.38l-0.63,4.42h-12.02
			v-0.38h0.46c0.4,0,0.73-0.07,0.97-0.22c0.18-0.1,0.31-0.26,0.41-0.49c0.08-0.16,0.11-0.59,0.11-1.29v-9.15
			c0-0.63-0.02-1.02-0.05-1.16c-0.07-0.24-0.19-0.42-0.38-0.55c-0.26-0.19-0.62-0.29-1.07-0.29h-0.46V7.7h11.64v4.11h-0.39
			c-0.2-1-0.48-1.73-0.84-2.16c-0.36-0.44-0.87-0.76-1.52-0.96c-0.38-0.12-1.1-0.18-2.15-0.18H180.16z"/>
	</g>
	<rect x="0.58" y="27.09" class="st2" width="187.44" height="1.75"/>
</g>
</svg>
