<?xml version="1.0" encoding="utf-8"?>
<!-- Generator: Adobe Illustrator 23.0.2, SVG Export Plug-In . SVG Version: 6.00 Build 0)  -->
<svg version="1.1" id="Layer_1" xmlns="http://www.w3.org/2000/svg" xmlns:xlink="http://www.w3.org/1999/xlink" x="0px" y="0px"
	 viewBox="0 0 234.17 63.62" style="enable-background:new 0 0 234.17 63.62;" xml:space="preserve">
<style type="text/css">
	.st0{fill:#04EAD0;}
</style>
<g>
	<g>
		<g>
			<path class="st0" d="M108.91,26.98c0,6.36-1.11,10.75-4.33,14.22c-3.15,3.41-8.06,5.37-14.61,5.37c-6.62,0-11.47-1.97-14.68-5.37
				c-3.15-3.47-4.26-7.86-4.26-14.22V0.63h10.68v26.35c0,3.21,0.26,5.7,1.77,7.54c1.44,1.7,3.54,2.82,6.49,2.82
				c2.95,0,5.05-1.11,6.49-2.82c1.51-1.83,1.77-4.33,1.77-7.54V0.63h10.68V26.98z"/>
			<path class="st0" d="M153.29,45.85h-12.71l-11.34-18.87l-3.6,4v14.88h-10.55V0.63h10.55v16.51L139.6,0.63h12.58l-15.92,18.02
				L153.29,45.85z"/>
			<path class="st0" d="M187.64,9.02h-11.66v36.83h-10.62V9.02h-11.67V0.63h33.95V9.02z"/>
			<path class="st0" d="M234.17,45.85h-10.88l-19.86-30.67c0,0,0.2,5.44,0.2,10.22v20.45h-10.35V0.63h11.34l19.4,30.41
				c0,0-0.2-5.11-0.2-9.9V0.63h10.35V45.85z"/>
		</g>
	</g>
	<path class="st0" d="M56.6,0.42H6.48C2.92,0.42,0,3.33,0,6.9v50.13c0,3.57,2.92,6.48,6.48,6.48H56.6c3.56,0,6.48-2.91,6.48-6.48
		V6.9C63.08,3.33,60.17,0.42,56.6,0.42z M57.52,28.87L40.57,56.52c-1.24,2.03-3.91,2.67-5.94,1.42L6.98,40.99
		c-2.03-1.24-2.67-3.91-1.42-5.94L22.51,7.4c1.24-2.02,3.91-2.67,5.94-1.43L56.1,22.93C58.13,24.17,58.77,26.84,57.52,28.87z"/>
	<g>
		<path class="st0" d="M78.06,56.16H75.4v7.34h-1.47v-7.34h-2.64v-1.2h6.77V56.16z"/>
		<path class="st0" d="M87.86,63.5h-1.48v-3.79h-3.81v3.79h-1.48v-8.53h1.48v3.55h3.81v-3.55h1.48V63.5z"/>
		<path class="st0" d="M96.51,59.69H93v2.63h4.1v1.18h-5.58v-8.53h5.54v1.2H93v2.36h3.5V59.69z"/>
		<path class="st0" d="M111.88,63.5h-1.48v-3.79h-3.81v3.79h-1.48v-8.53h1.48v3.55h3.81v-3.55h1.48V63.5z"/>
		<path class="st0" d="M122.35,59.46c0,0.84-0.14,1.57-0.43,2.2c-0.29,0.63-0.7,1.12-1.24,1.45c-0.54,0.34-1.16,0.51-1.85,0.51
			c-0.69,0-1.31-0.17-1.85-0.51c-0.54-0.34-0.96-0.82-1.25-1.44c-0.29-0.63-0.44-1.35-0.45-2.16v-0.48c0-0.83,0.15-1.57,0.44-2.2
			c0.29-0.64,0.71-1.12,1.25-1.46c0.54-0.34,1.15-0.51,1.85-0.51s1.31,0.17,1.85,0.5c0.54,0.33,0.95,0.81,1.25,1.44
			c0.29,0.63,0.44,1.36,0.45,2.19V59.46z M120.87,59.01c0-0.95-0.18-1.67-0.54-2.17c-0.36-0.5-0.86-0.76-1.52-0.76
			c-0.64,0-1.14,0.25-1.5,0.75c-0.36,0.5-0.55,1.21-0.55,2.13v0.49c0,0.94,0.18,1.66,0.55,2.17c0.37,0.51,0.87,0.77,1.52,0.77
			c0.66,0,1.16-0.25,1.51-0.75c0.35-0.5,0.53-1.23,0.53-2.19V59.01z"/>
		<path class="st0" d="M127.66,54.97l2.46,6.54l2.46-6.54h1.92v8.53h-1.48v-2.81l0.15-3.76l-2.52,6.57h-1.06l-2.51-6.57l0.15,3.76
			v2.81h-1.48v-8.53H127.66z"/>
		<path class="st0" d="M143.14,59.69h-3.5v2.63h4.1v1.18h-5.58v-8.53h5.54v1.2h-4.05v2.36h3.5V59.69z"/>
		<path class="st0" d="M158.55,59.46c0,0.84-0.14,1.57-0.43,2.2c-0.29,0.63-0.7,1.12-1.24,1.45c-0.54,0.34-1.16,0.51-1.85,0.51
			c-0.69,0-1.31-0.17-1.85-0.51c-0.54-0.34-0.96-0.82-1.25-1.44c-0.29-0.63-0.44-1.35-0.45-2.16v-0.48c0-0.83,0.15-1.57,0.44-2.2
			c0.29-0.64,0.71-1.12,1.25-1.46c0.54-0.34,1.15-0.51,1.85-0.51c0.7,0,1.31,0.17,1.85,0.5c0.54,0.33,0.95,0.81,1.25,1.44
			c0.29,0.63,0.44,1.36,0.45,2.19V59.46z M157.07,59.01c0-0.95-0.18-1.67-0.54-2.17c-0.36-0.5-0.86-0.76-1.52-0.76
			c-0.64,0-1.14,0.25-1.5,0.75c-0.36,0.5-0.55,1.21-0.55,2.13v0.49c0,0.94,0.18,1.66,0.55,2.17c0.37,0.51,0.87,0.77,1.52,0.77
			c0.66,0,1.16-0.25,1.51-0.75s0.53-1.23,0.53-2.19V59.01z"/>
		<path class="st0" d="M166.85,59.88h-3.43v3.62h-1.48v-8.53h5.42v1.2h-3.94v2.54h3.43V59.88z"/>
		<path class="st0" d="M181.57,54.97v5.7c0,0.91-0.29,1.62-0.87,2.15c-0.58,0.53-1.35,0.79-2.32,0.79c-0.98,0-1.75-0.26-2.33-0.78
			c-0.57-0.52-0.86-1.25-0.86-2.17v-5.7h1.48v5.71c0,0.57,0.14,1.01,0.43,1.31c0.29,0.3,0.71,0.45,1.28,0.45
			c1.14,0,1.71-0.6,1.71-1.8v-5.66H181.57z"/>
		<path class="st0" d="M187.51,59.81l-0.97,1.03v2.66h-1.48v-8.53h1.48v4l0.82-1.01l2.5-2.99h1.79l-3.17,3.78l3.35,4.75h-1.76
			L187.51,59.81z"/>
		<path class="st0" d="M205.24,56.16h-2.66v7.34h-1.47v-7.34h-2.64v-1.2h6.77V56.16z"/>
		<path class="st0" d="M213.25,59.69h-3.5v2.63h4.1v1.18h-5.58v-8.53h5.54v1.2h-4.05v2.36h3.5V59.69z"/>
		<path class="st0" d="M223.47,60.72c-0.09,0.91-0.42,1.62-1.01,2.13c-0.59,0.51-1.37,0.76-2.34,0.76c-0.68,0-1.28-0.16-1.8-0.48
			s-0.92-0.78-1.2-1.37c-0.28-0.59-0.43-1.28-0.44-2.07v-0.8c0-0.8,0.14-1.51,0.43-2.13c0.29-0.61,0.69-1.09,1.23-1.42
			c0.53-0.33,1.15-0.5,1.85-0.5c0.94,0,1.7,0.25,2.27,0.76c0.57,0.51,0.91,1.23,1,2.17h-1.48c-0.07-0.61-0.25-1.06-0.54-1.33
			c-0.29-0.27-0.71-0.41-1.26-0.41c-0.64,0-1.14,0.24-1.49,0.71c-0.35,0.47-0.52,1.16-0.53,2.07v0.76c0,0.92,0.16,1.63,0.5,2.11
			c0.33,0.48,0.81,0.73,1.45,0.73c0.58,0,1.02-0.13,1.31-0.39s0.48-0.7,0.56-1.31H223.47z"/>
		<path class="st0" d="M233.48,63.5H232v-3.79h-3.81v3.79h-1.48v-8.53h1.48v3.55H232v-3.55h1.48V63.5z"/>
	</g>
</g>
</svg>
