<?xml version="1.0" encoding="utf-8"?>
<!-- Generator: Adobe Illustrator 23.0.2, SVG Export Plug-In . SVG Version: 6.00 Build 0)  -->
<svg version="1.1" id="Layer_1" xmlns="http://www.w3.org/2000/svg" xmlns:xlink="http://www.w3.org/1999/xlink" x="0px" y="0px"
	 viewBox="0 0 62 148" style="enable-background:new 0 0 62 148;" xml:space="preserve">
<style type="text/css">
	.st0{fill:#FDD1B1;}
	.st1{fill:#202952;}
	.st2{fill:url(#SVGID_1_);}
	.st3{fill:#FFFFFF;}
	.st4{opacity:0.16;fill:url(#SVGID_2_);}
	.st5{opacity:0.16;fill:url(#SVGID_3_);}
	.st6{fill:#E34862;}
</style>
<g>
	<g>
		<path class="st0" d="M50.7,125.12c0.56,0.21,7.74,0.09,10.73,0.03c0.61-0.01,0.89-0.75,0.45-1.18c-0.74-0.71-2.06-1.53-4.31-1.75
			c-0.98-0.09-1.58-0.41-1.93-0.94c-0.49-0.73-0.51-1.86-0.41-3.33c0.02-0.32,0.05-0.65,0.08-0.99c0.25-3.06-4.36-0.06-4.36-0.06
			s0.01,0.42-0.01,1.05c-0.03,0.9-0.12,2.22-0.37,3.26c-0.04,0.15-0.08,0.3-0.12,0.44C49.88,123.41,49.99,124.85,50.7,125.12z"/>
		<path class="st1" d="M50.7,125.12c0.61,0.23,8.98,0.07,11.38,0.01c0.31-0.01,0.43-0.33,0.29-0.61c-0.48-0.97-1.84-2.49-4.72-2.76
			c-0.98-0.09-1.9-0.48-2.26-1c-1.01,0.06-1.81,0.51-1.79,1.43c0.01,0.54-1.7,0.69-3.03-0.98c-0.04,0.15-0.08,0.3-0.12,0.44
			C49.88,123.41,49.99,124.85,50.7,125.12z"/>
	</g>
	<path class="st1" d="M37.19,70.28c0,0,19.22,12.95,23.27,15.78c4.05,2.83-5.06,33.39-5.06,33.39h-4.86c0,0,1.21-27.93,0-29.14
		c-1.21-1.21-19.91-5.87-22.81-13.56C24.84,69.07,37.19,70.28,37.19,70.28z"/>
	<path class="st1" d="M34.05,78.37c0,0-6.04,29.95-6.31,32.58c-0.26,2.63-5.53,28.22-5.53,28.22h-5.67c0,0,1.21-28.31,1.01-31.7
		c-0.2-3.39,1.21-27.68,2.02-32.33c0.81-4.65,12.55-3.04,12.55-3.04L34.05,78.37z"/>
	<path class="st1" d="M16.03,148.19c1.63-0.24,3.69-3.77,4.47-4.98c0.77-1.2,1.4-4.04,1.4-4.04h-4.89c0,0-0.16,0.39-0.38,0.94
		c-0.47,1.18-1.06,3.14-1.19,3.57C15.2,144.49,14.4,148.44,16.03,148.19z"/>
	
		<linearGradient id="SVGID_1_" gradientUnits="userSpaceOnUse" x1="-1393.2222" y1="82.5973" x2="-1416.9167" y2="57.7245" gradientTransform="matrix(-1 0 0 1 -1392.4052 0)">
		<stop  offset="0" style="stop-color:#B2C9D1"/>
		<stop  offset="1" style="stop-color:#FAFDFF"/>
	</linearGradient>
	<path class="st2" d="M36.18,36.99c-1.82,0.1-18.82,1.21-22.61,4.1c-3.79,2.88,5.95,34.43,5.88,35.03
		c-0.07,0.6,19.58-4.61,19.06-4.96C37.97,70.8,38.62,36.86,36.18,36.99z"/>
	<path class="st3" d="M50.24,5.93H46.8c0,0-2.07,15.99-2.4,17c-0.33,1.01-7.43,13.99-9.44,14.14c-2.01,0.15,2.88,10.44,2.88,10.44
		s10.38-14.46,11.49-20.03S50.24,5.93,50.24,5.93z"/>
	<path class="st3" d="M13.56,41.09c0,0-12.6,15.33-13.51,20.79c-0.91,5.46,15.78,11.69,15.78,11.69l2.02-3.36
		c0,0-9.15-7.27-10.06-7.87c-0.91-0.61,6.04-8.77,6.04-8.77L13.56,41.09z"/>
	<g>
		<path class="st1" d="M31.32,20.28c0,0,1.85-1.73,1.29-4.35c-0.56-2.62-5.84-3.14-8.43-0.68c-4.61,4.36-3.9,2.99-5.71,5.31
			c-3.49,4.46,2.09,8.98,4.61,9.05C25.6,29.67,31.32,20.28,31.32,20.28z"/>
		<path class="st0" d="M24.19,30.01l-0.01,0.34l-0.26,7.3c-0.02,0.69,0.38,1.33,1.02,1.59c0.69,0.28,1.67,0.56,2.82,0.52
			c1-0.03,1.79-0.35,2.34-0.67c0.58-0.34,0.91-1,0.81-1.67l-0.51-3.71l-0.15-1.1c-0.06-0.43-0.36-0.79-0.78-0.93L24.19,30.01z"/>
		
			<linearGradient id="SVGID_2_" gradientUnits="userSpaceOnUse" x1="-1839.2681" y1="141.7337" x2="-1829.1375" y2="158.3392" gradientTransform="matrix(-0.9972 -0.0748 -0.0748 0.9972 -1792.1978 -251.7349)">
			<stop  offset="0" style="stop-color:#FFFFFF"/>
			<stop  offset="1" style="stop-color:#231F20"/>
		</linearGradient>
		<path class="st4" d="M24.19,30.01l-0.01,0.34c1.57,2.8,5.19,4.82,6.43,4.9l-0.46-3.35L24.19,30.01z"/>
		<path class="st0" d="M21.09,27.32c0.62,1.45,1.76,1.71,1.76,1.71s5.26,6.53,8.35,3.57c2.52-2.41,1-9.11,0.36-11.48
			c-0.14-0.53-0.24-0.84-0.24-0.84c-1.2,1.78-8.82,2.5-7.98,4.2c0,0.01,0.01,0.01,0.01,0.02c0.83,1.68,0.4,2.22,0.16,2.48
			c-0.25,0.27-0.65-0.93-1.11-1.21C21.38,25.15,20.58,26.1,21.09,27.32z"/>
		
			<linearGradient id="SVGID_3_" gradientUnits="userSpaceOnUse" x1="-1653.8756" y1="588.2036" x2="-1647.0833" y2="588.2036" gradientTransform="matrix(-0.9418 -0.3362 -0.3362 0.9418 -1329.1823 -1086.4176)">
			<stop  offset="0" style="stop-color:#FFFFFF"/>
			<stop  offset="1" style="stop-color:#231F20"/>
		</linearGradient>
		<path class="st5" d="M23.34,24.48c0,0.01,0.01,0.01,0.01,0.02c0.25-0.44,0.89-0.94,2.43-1.25c2.47-0.49,4.82-1.62,5.78-2.12
			c-0.14-0.53-0.24-0.84-0.24-0.84C30.12,22.07,22.5,22.78,23.34,24.48z"/>
		<path class="st1" d="M23.6,25.07c0,0,1.35,2.98,3.17,3.19c1.82,0.21,5.13-2.24,5.75-2.02c0.63,0.21,1.68,6.04-1.16,6.89
			c-2.84,0.85-5.74-0.12-6.83-3.32c-1.09-3.2-2.3-4.32-2.3-4.32L23.6,25.07z"/>
	</g>
	<path class="st0" d="M46.8,5.93c0,0,1.21-3.39,2.58-3.85c1.37-0.46,3.34-0.76,4.4-1.97c1.06-1.21,1.59,1.21,0.38,2.43
		c-1.21,1.21-3.93,2.76-3.92,3.39C50.25,6.56,46.8,5.93,46.8,5.93z"/>
	<path class="st0" d="M17.63,70.59c0,0,4.59,1.92,5.04,2.98c0.46,1.06-6.83,0-6.83,0L17.63,70.59z"/>
	<polygon class="st3" points="31.56,37.34 30.71,35.93 28.33,38.73 23.98,36.23 23.12,38.35 27.19,41.65 28.41,39.77 29.96,41.43 	
		"/>
	<path class="st6" d="M29.54,39.77c0,0-0.1,1.68-0.46,1.88c0,0,0.01,8.98-1.66,13.61c-1.83,5.06-3.14,5.77-4.74,8.75l-3.16,1.32
		l0.05-2.98c0,0,4.35-5.41,5.72-9.62c0.67-2.06,2.83-11.07,2.83-11.07s-0.64-0.4-0.79-1.12c-0.15-0.72,1.25-1.35,1.25-1.35
		L29.54,39.77z"/>
	<path class="st0" d="M16.64,140.12c0.23,0.01,0.46-0.6,1.87-0.37c1.41,0.23,0.92,0.95,1.42,1.05c0.39,0.07,0.79-0.96,1.17-1.62
		h-4.09C17.01,139.17,16.86,139.57,16.64,140.12z"/>
</g>
</svg>
