<?xml version="1.0" encoding="utf-8"?>
<!-- Generator: Adobe Illustrator 23.0.2, SVG Export Plug-In . SVG Version: 6.00 Build 0)  -->
<svg version="1.1" id="Layer_1" xmlns="http://www.w3.org/2000/svg" xmlns:xlink="http://www.w3.org/1999/xlink" x="0px" y="0px"
	 viewBox="0 0 330 284" style="enable-background:new 0 0 330 284;" xml:space="preserve">
<style type="text/css">
	.st0{opacity:0.22;fill:#9FAAD4;}
	.st1{fill:#FFB600;}
	.st2{fill:#728EFC;}
	.st3{opacity:0.3;fill:#9FAAD4;}
	.st4{fill:url(#SVGID_1_);}
	.st5{fill:#FFFFFF;}
	.st6{fill:url(#SVGID_2_);}
	.st7{opacity:0.25;fill:#091D7B;}
	.st8{fill:#A9E1F2;}
	.st9{opacity:0.48;fill:#FFFFFF;}
	.st10{fill:#E34899;}
	.st11{fill:url(#SVGID_3_);}
	.st12{fill:url(#SVGID_4_);}
	.st13{fill:url(#SVGID_5_);}
	.st14{fill:#091D7B;}
	.st15{fill:url(#SVGID_6_);}
	.st16{fill:url(#SVGID_7_);}
	.st17{fill:url(#SVGID_8_);}
	.st18{fill:url(#SVGID_9_);}
	.st19{fill:#FDD1B1;}
	.st20{opacity:0.15;fill:url(#SVGID_10_);}
	.st21{fill:#202952;}
	.st22{fill:url(#SVGID_11_);}
	.st23{fill:#091D65;}
	.st24{fill:#002B3B;}
	.st25{fill:url(#SVGID_12_);}
	.st26{fill:url(#SVGID_13_);}
	.st27{opacity:0.15;fill:url(#SVGID_14_);}
	.st28{fill:#37193B;}
	.st29{fill:#18203D;}
	.st30{fill:#2E385B;}
	.st31{fill:#435075;}
	.st32{fill:#D0EBF5;}
	.st33{fill:#E974FE;}
	.st34{opacity:0.15;fill:url(#SVGID_15_);}
	.st35{fill:#ED8EFE;}
	.st36{opacity:0.15;fill:url(#SVGID_16_);}
	.st37{fill:url(#SVGID_17_);}
</style>
<g>
	<ellipse class="st0" cx="25.34" cy="270.8" rx="25.63" ry="3.38"/>
	<g>
		<path class="st1" d="M55.35,249.51c0.93,2.06,7.46-2.9,7.46-2.9S53.85,246.21,55.35,249.51z"/>
		<path class="st1" d="M63.24,250.13c-0.63-1.06,2.11-3.77,6.03-4.79c0,0-1.5,2.18-2.21,3.61
			C66.36,250.39,64.21,251.74,63.24,250.13z"/>
		<g>
			<path class="st1" d="M90.02,248.32c-16.8-5.02-27.97-1.38-28.08-1.34l-0.11-0.27c0.11-0.04,11.43-4.35,28.33,0.71L90.02,248.32z"
				/>
		</g>
		<path class="st1" d="M62.89,241c-0.23,1.47,7.11,4.26,7.11,4.26s-1.08-2.77-2.62-4.42C65.83,239.19,63.11,239.57,62.89,241z"/>
		<path class="st1" d="M75.85,245.13c0,0-5.49,2.17-5.69,5.55C69.95,254.05,74.43,250.46,75.85,245.13z"/>
		<path class="st1" d="M81.93,245.95c0,0-7.08,3.07-5.5,6.45C78.02,255.79,81.93,245.95,81.93,245.95z"/>
		<path class="st1" d="M85.09,246.28c0,0-1.84-6.43-5.88-6.37C75.17,239.96,81.59,246.02,85.09,246.28z"/>
		<path class="st1" d="M76.61,245.61c0,0-1.44-6.53-5.47-6.73C67.1,238.69,73.13,245.13,76.61,245.61z"/>
	</g>
	<g>
		<path class="st2" d="M38.65,200.76c-0.27,2.24,7.88,1.4,7.88,1.4S39.08,197.17,38.65,200.76z"/>
		<path class="st2" d="M45.07,205.39c0.01-1.23,3.76-2.13,7.64-0.97c0,0-2.42,1.08-3.76,1.95
			C47.61,207.23,45.06,207.27,45.07,205.39z"/>
		<g>
			<path class="st2" d="M68.91,217.74c-11.76-13.01-23.19-15.69-23.31-15.71l0.05-0.29c0.12,0.02,12.03,2.22,23.85,15.3
				L68.91,217.74z"/>
		</g>
		<path class="st2" d="M49.51,197.4c-0.96,1.14,3.87,7.33,3.87,7.33s0.52-2.93,0.05-5.13C52.96,197.38,50.44,196.29,49.51,197.4z"/>
		<path class="st2" d="M58.44,207.65c0,0-5.82-0.99-7.74,1.79C48.78,212.22,54.47,211.48,58.44,207.65z"/>
		<path class="st2" d="M63.22,211.51c0,0-7.65-1.05-8.05,2.66C54.77,217.89,63.22,211.51,63.22,211.51z"/>
		<path class="st2" d="M65.75,213.43c0,0,1.76-6.45-1.72-8.5C60.55,202.88,62.89,211.39,65.75,213.43z"/>
		<path class="st2" d="M58.84,208.46c0,0,2.16-6.33-1.18-8.59C54.31,197.61,56.12,206.25,58.84,208.46z"/>
	</g>
	<path class="st3" d="M208.93,257.17c0,3.98-26.23,7.2-58.58,7.2c-32.36,0-58.58-3.22-58.58-7.2c0-3.98,26.23-7.2,58.58-7.2
		C182.7,249.97,208.93,253.19,208.93,257.17z"/>
	<g>
		
			<linearGradient id="SVGID_1_" gradientUnits="userSpaceOnUse" x1="4528.3892" y1="-160.3397" x2="4547.5425" y2="-88.5156" gradientTransform="matrix(0.9191 -0.394 0.394 0.9191 -4033.8706 2147.9497)">
			<stop  offset="0" style="stop-color:#84D5E0"/>
			<stop  offset="1" style="stop-color:#57ABEC"/>
		</linearGradient>
		<path class="st4" d="M86.47,259.85c-8.77-0.67-12.64-6.8-8.93-10.06c2.62-2.3,1.22-5.13-11.61-7.31
			c-12.83-2.17-13.28-8.24-11.82-10.22c1.46-1.98,7.18-5.28-1.27-8.31c-8.45-3.02-14.52-9.96-13.01-12.58
			c1.51-2.62,9.95-1.03,17.08,2.92c7.13,3.95,16.13,8.68,14.65,3.7c-1.48-4.98,2.86-7.36,8.64-2.65c5.78,4.71,14.26,18.41,15.39,15
			c1.06-3.18,4.21-5.3,9.09,2.91c4.08,6.87,8.57,19.48,8.57,19.48S95.23,260.52,86.47,259.85z"/>
		<g>
			<path class="st5" d="M113.11,252.19c-25.62-22.03-70.06-39.35-70.5-39.52l0.17-0.44c0.45,0.17,44.96,17.52,70.64,39.6
				L113.11,252.19z"/>
		</g>
		<g>
			<path class="st5" d="M60.91,235.44l-0.23-0.42c0.09-0.05,9.23-4.92,21.44-3.04l-0.07,0.47C70.01,230.59,61,235.39,60.91,235.44z"
				/>
		</g>
		<g>
			<path class="st5" d="M83.54,254.86l-0.34-0.33c0.08-0.09,8.4-8.53,22.7-6.91l-0.05,0.47C91.8,246.49,83.62,254.77,83.54,254.86z"
				/>
		</g>
		<g>
			<path class="st5" d="M83.33,233.21c-3.31-1.97-6.29-13.27-6.41-13.75l0.46-0.12c0.03,0.12,3.05,11.59,6.2,13.46L83.33,233.21z"/>
		</g>
	</g>
	<g>
		
			<linearGradient id="SVGID_2_" gradientUnits="userSpaceOnUse" x1="5871.8184" y1="1200.3798" x2="5890.8159" y2="1271.6208" gradientTransform="matrix(-0.9542 -0.2992 -0.2992 0.9542 6203.1714 802.8272)">
			<stop  offset="0" style="stop-color:#84D5E0"/>
			<stop  offset="1" style="stop-color:#28B5C8"/>
		</linearGradient>
		<path class="st6" d="M224.07,236.91c8.65-1.56,11.89-8.04,7.87-10.91c-2.84-2.03-1.73-4.98,10.82-8.44
			c12.54-3.46,12.38-9.54,10.73-11.36c-1.65-1.82-7.68-4.53,0.42-8.39c8.1-3.86,13.44-11.37,11.67-13.83
			c-1.76-2.45-10-0.02-16.7,4.63s-15.18,10.26-14.2,5.16c0.97-5.1-3.59-7.03-8.87-1.76c-5.27,5.27-12.33,19.75-13.8,16.48
			c-1.38-3.06-4.72-4.85-8.75,3.82c-3.37,7.25-5.37,20.25-5.37,20.25S215.42,238.47,224.07,236.91z"/>
		<g>
			<path class="st5" d="M198.06,232.72l-0.34-0.33c23.32-24.56,64.6-47.03,65.01-47.26l0.23,0.42
				C262.54,185.77,221.33,208.22,198.06,232.72z"/>
		</g>
		<g>
			<path class="st5" d="M247.03,210.05c-0.09-0.04-9.54-3.9-21.34-0.84l-0.12-0.46c11.95-3.1,21.55,0.82,21.64,0.86L247.03,210.05z"
				/>
		</g>
		<g>
			<path class="st5" d="M226.48,231.65c-0.09-0.08-9.05-7.48-22.87-4.48l-0.1-0.46c14.05-3.06,23.19,4.5,23.28,4.58L226.48,231.65z"
				/>
		</g>
		<g>
			<path class="st5" d="M224.5,210.09l-0.28-0.38c2.94-2.18,4.79-13.9,4.8-14.02l0.47,0.07C229.42,196.25,227.6,207.79,224.5,210.09
				z"/>
		</g>
	</g>
	<path class="st0" d="M329.63,281.52c0,1.54-21.24,2.79-47.43,2.79c-26.2,0-47.43-1.25-47.43-2.79c0-1.54,21.24-2.79,47.43-2.79
		C308.4,278.74,329.63,279.98,329.63,281.52z"/>
	<path class="st7" d="M250.15,141.99c0.75,4.76,1.15,9.51,1.22,14.19c0.7,48.79-34.55,91.94-84.16,99.76
		C112.84,264.5,61.82,227.37,53.26,173C44.7,118.63,81.83,67.61,136.2,59.05c46.05-7.25,89.7,18.28,107.17,59.3
		C246.53,125.76,248.84,133.68,250.15,141.99z"/>
	<g>
		<path class="st8" d="M159.98,29.06h33.3c0,0,6.33-0.05,7.57-4.1c0.78-2.54-1.13-5.46-5.21-6.21c-4.6-0.85-5.22-0.9-6.16-4.92
			c-0.94-4.01-2.75-5.36-5.22-5.7c-2.74-0.38-5.21,1.33-7.57,4.28c-1.14,1.42-4.93-1.32-6.62-2.87c-2.13-1.96-7.09-2.02-9.05,2.18
			c-2.21,4.74,1.2,6.83-2.87,8.75c-2.87,1.36-4.06,3.02-4,4.91C154.2,27.26,157.26,29.06,159.98,29.06z"/>
		<path class="st9" d="M165.12,29.06c0,0-3.86-0.51-1.92-3.94c2-3.53,6.96,1.04,8.44-4c1.53-5.21,7.36-6.7,9.4-2.09
			c1.68,3.8,3.79,4.66,9.14,3.75c5.35-0.91,5.34,5.77,2.38,6.28C189.6,29.57,165.12,29.06,165.12,29.06z"/>
	</g>
	<g>
		<path class="st8" d="M247.19,73.24h27.99c0,0,4.35,0.01,5.39-3.39c0.65-2.13,0.02-4.65-3.4-5.28c-3.86-0.72-4.38-0.64-5.38-3.7
			c-0.92-2.81-2.65-4.17-4.73-4.46c-2.3-0.32-3.92,0.69-6.46,3.14c-1.1,1.06-3.13-0.84-4.73-1.94c-1.79-1.23-5.46-0.61-7.19,1.66
			c-2.66,3.5,0.38,5.13-3.05,6.75c-2.42,1.14-2.99,2.71-2.94,4.3C242.76,71.91,244.91,73.24,247.19,73.24z"/>
		<path class="st9" d="M252.82,73.27c-1.29-0.02-2.5-0.73-3.06-1.9c-0.37-0.77-0.47-1.74,0.17-2.88c0.94-1.65,3.35-2.54,4.89-1.76
			c1.31,0.66,2.78,2.15,3.33,0.27c1.28-4.38,5.4-3.95,6.75-2.19c1.14,1.48,0.84,2.65,2.93,3.15c1.18,0.28,1.28-0.72,3.16-1.23
			c5.66-1.53,6.08,6.09,3.59,6.52C272.48,73.61,257.39,73.36,252.82,73.27z"/>
	</g>
	<g>
		<path class="st8" d="M18.21,99.41H46.2c0,0,4.35,0.01,5.39-3.39c0.65-2.13,0.02-4.65-3.4-5.28c-3.86-0.72-4.38-0.64-5.38-3.7
			c-0.92-2.81-2.65-4.17-4.72-4.46c-2.3-0.32-3.92,0.69-6.46,3.14c-1.1,1.06-3.13-0.84-4.73-1.94c-1.79-1.23-5.46-0.61-7.19,1.66
			c-2.66,3.5,0.38,5.13-3.05,6.75c-2.42,1.14-2.99,2.71-2.94,4.3C13.78,98.08,15.93,99.41,18.21,99.41z"/>
		<path class="st9" d="M23.84,99.44c-1.29-0.02-2.5-0.73-3.06-1.9c-0.37-0.77-0.47-1.74,0.17-2.88c0.94-1.65,3.35-2.54,4.89-1.76
			c1.31,0.66,2.78,2.15,3.33,0.27c1.28-4.38,5.4-3.95,6.75-2.19c1.14,1.48,0.84,2.65,2.93,3.15c1.18,0.28,1.28-0.73,3.16-1.23
			c5.66-1.53,6.08,6.09,3.59,6.52C43.49,99.78,28.41,99.53,23.84,99.44z"/>
	</g>
	<path class="st10" d="M244.05,142.95c0.75,4.76,1.15,9.51,1.22,14.19c0.7,48.79-34.55,91.94-84.16,99.76
		c-54.37,8.56-105.39-28.57-113.95-82.94S75.73,68.57,130.1,60.01c46.05-7.25,89.7,18.28,107.17,59.3
		C240.43,126.72,242.74,134.64,244.05,142.95z"/>
	
		<ellipse transform="matrix(0.7071 -0.7071 0.7071 0.7071 -69.3991 149.3685)" class="st5" cx="145.6" cy="158.46" rx="86.29" ry="86.29"/>
	
		<ellipse transform="matrix(0.7071 -0.7071 0.7071 0.7071 -69.3991 149.3685)" class="st10" cx="145.6" cy="158.46" rx="72.91" ry="72.91"/>
	<circle class="st5" cx="145.6" cy="158.46" r="51.63"/>
	
		<ellipse transform="matrix(0.6505 -0.7595 0.7595 0.6505 -69.4597 165.9755)" class="st10" cx="145.6" cy="158.46" rx="30.27" ry="30.27"/>
	
		<ellipse transform="matrix(0.1881 -0.9821 0.9821 0.1881 -37.8171 271.2956)" class="st5" cx="145.19" cy="158.52" rx="26.49" ry="26.49"/>
	<path class="st10" d="M152.12,157.43c0.6,3.83-2.01,7.42-5.84,8.02c-3.83,0.6-7.42-2.01-8.02-5.84c-0.6-3.83,2.01-7.42,5.84-8.02
		C147.92,150.99,151.52,153.6,152.12,157.43z"/>
	<path class="st7" d="M244.05,142.95c0.75,4.76,1.15,9.51,1.22,14.19c-9.4,0.46-18.74-2.54-26.18-8.57l-1.7-1.38
		c-0.52-0.37-1.03-0.76-1.54-1.15l-18.43,4.79c-0.21,0.91-0.91,1.68-1.87,1.94l-27.44,7.13c-1.32,0.34-2.68,0.14-3.84-0.57
		c-0.49-0.3-0.9-0.67-1.25-1.08l-17.28,1.6l16.29-5.99c0.07-0.29,0.16-0.58,0.29-0.85c0.7-1.5,2.01-2.53,3.59-2.83l27.83-5.38
		c0.98-0.19,1.94,0.2,2.53,0.94l18.81-3.64c0.33-0.67,0.68-1.32,1.04-1.97l0.96-1.97c4.2-8.63,11.44-15.31,20.2-18.85
		C240.43,126.72,242.74,134.64,244.05,142.95z"/>
	<g>
		<g>
			<g>
				
					<linearGradient id="SVGID_3_" gradientUnits="userSpaceOnUse" x1="3147.9609" y1="-125.302" x2="3175.9814" y2="-125.302" gradientTransform="matrix(-0.9878 0.1556 0.1556 0.9878 3350.0691 -279.0148)">
					<stop  offset="0" style="stop-color:#A1D5E0"/>
					<stop  offset="1" style="stop-color:#28B5C8"/>
				</linearGradient>
				<path class="st11" d="M196.12,109.06l23.68-21.34l-0.39-8.24l-0.16-3.43c-0.25-5.18-6.46-7.7-10.24-4.15l-1.27,1.19
					c-8.65,8.12-13.08,19.77-12.01,31.58l0.2,2.18l0.19,2.16L196.12,109.06z"/>
				<path class="st7" d="M196.12,109.06l23.68-21.34l-0.39-8.24l-0.16-3.43c-0.25-5.18-6.46-7.7-10.24-4.15l-1.27,1.19
					c-8.65,8.12-13.08,19.77-12.01,31.58l0.2,2.18l0.19,2.16L196.12,109.06z"/>
				
					<linearGradient id="SVGID_4_" gradientUnits="userSpaceOnUse" x1="3148.3489" y1="-122.9775" x2="3176.0593" y2="-122.9775" gradientTransform="matrix(-0.9878 0.1556 0.1556 0.9878 3350.0691 -279.0148)">
					<stop  offset="0" style="stop-color:#A1D5E0"/>
					<stop  offset="1" style="stop-color:#28B5C8"/>
				</linearGradient>
				<path class="st12" d="M196.12,109.03l0,0.03l23.68-21.34l-0.21-7.04c-0.02-0.42-0.08-0.82-0.17-1.2
					c-1.05-4.35-6.58-6.21-10.06-2.95l-1.27,1.19c-8.05,7.56-12.44,18.18-12.15,29.14c0.02,0.74,0.06,1.49,0.12,2.23L196.12,109.03z
					"/>
			</g>
			
				<linearGradient id="SVGID_5_" gradientUnits="userSpaceOnUse" x1="3149.2712" y1="-116.1182" x2="3175.9814" y2="-116.1182" gradientTransform="matrix(-0.9878 0.1556 0.1556 0.9878 3350.0691 -279.0148)">
				<stop  offset="0" style="stop-color:#A1D5E0"/>
				<stop  offset="1" style="stop-color:#28B5C8"/>
			</linearGradient>
			<polygon class="st13" points="196.12,109.06 219.8,87.72 196.12,109.03 			"/>
		</g>
		<polygon class="st14" points="161.01,148.96 157.63,145.45 145.87,160.14 		"/>
		<g>
			<g>
				
					<linearGradient id="SVGID_6_" gradientUnits="userSpaceOnUse" x1="-1880.6732" y1="7138.3828" x2="-1852.6521" y2="7138.3828" gradientTransform="matrix(-0.2027 0.9792 -0.9792 -0.2027 6830.3633 3376.6501)">
					<stop  offset="0" style="stop-color:#A1D5E0"/>
					<stop  offset="1" style="stop-color:#28B5C8"/>
				</linearGradient>
				<path class="st15" d="M198.48,111.96l22.45-22.63l8.21,0.78l3.41,0.33c5.17,0.49,7.38,6.82,3.65,10.43l-1.25,1.21
					c-8.53,8.25-20.37,12.12-32.12,10.48l-2.17-0.3l-2.15-0.3L198.48,111.96z"/>
				<path class="st7" d="M198.48,111.96l22.45-22.63l8.21,0.78l3.41,0.33c5.17,0.49,7.38,6.82,3.65,10.43l-1.25,1.21
					c-8.53,8.25-20.37,12.12-32.12,10.48l-2.17-0.3l-2.15-0.3L198.48,111.96z"/>
				
					<linearGradient id="SVGID_7_" gradientUnits="userSpaceOnUse" x1="-1880.2853" y1="7140.707" x2="-1852.5741" y2="7140.707" gradientTransform="matrix(-0.2027 0.9792 -0.9792 -0.2027 6830.3633 3376.6501)">
					<stop  offset="0" style="stop-color:#A1D5E0"/>
					<stop  offset="1" style="stop-color:#28B5C8"/>
				</linearGradient>
				<path class="st16" d="M198.51,111.96l-0.03,0l22.45-22.63l-0.08-0.13l7.1,0.68c0.42,0.04,0.81,0.12,1.19,0.23
					c4.29,1.26,5.89,6.87,2.46,10.19l-1.25,1.22c-7.93,7.67-18.75,11.56-29.69,10.74c-0.74-0.05-1.48-0.13-2.22-0.23L198.51,111.96z
					"/>
			</g>
			
				<linearGradient id="SVGID_8_" gradientUnits="userSpaceOnUse" x1="-1879.3629" y1="7147.5664" x2="-1852.6521" y2="7147.5664" gradientTransform="matrix(-0.2027 0.9792 -0.9792 -0.2027 6830.3633 3376.6501)">
				<stop  offset="0" style="stop-color:#A1D5E0"/>
				<stop  offset="1" style="stop-color:#28B5C8"/>
			</linearGradient>
			<polygon class="st17" points="198.48,111.96 220.93,89.33 198.51,111.96 			"/>
		</g>
		<path class="st14" d="M158.59,147.9L158.59,147.9c1.41,1.46,3.74,1.47,5.16,0.02l57.73-59.16c0.37-0.38,0.37-0.98,0-1.36l0,0
			c-0.37-0.38-0.97-0.4-1.36-0.05l-61.36,55.4C157.27,144.1,157.19,146.44,158.59,147.9z"/>
		
			<linearGradient id="SVGID_9_" gradientUnits="userSpaceOnUse" x1="3189.0786" y1="-84.7296" x2="3220.8025" y2="-84.7296" gradientTransform="matrix(-0.9878 0.1556 0.1556 0.9878 3350.0691 -279.0148)">
			<stop  offset="0" style="stop-color:#84D5E0"/>
			<stop  offset="1" style="stop-color:#57ABEC"/>
		</linearGradient>
		<path class="st18" d="M158.14,141.43c-1.2,1.08-1.79,2.64-1.61,4.28c0.09,0.84,0.41,1.65,0.91,2.34c0.97,1.32,2.43,2.06,4.03,2.07
			c1.36,0.01,2.63-0.53,3.58-1.5l19.79-20.28c0.98-1,0.98-2.6,0.01-3.61l-2.07-2.15c-0.97-1.01-2.57-1.07-3.61-0.13L158.14,141.43z"
			/>
	</g>
	<g>
		<g>
			<path class="st14" d="M293.91,141.02c3.67,1.26,3.3,1.62,6.99,10.52c3.64,8.79,2.33,13.56,2,14.01
				c-1.01,1.4-10.4,10.45-10.4,10.45l-2.27-3.17c0,0,7.19-8.39,7.35-9.5c0.16-1.11-4.5-13.44-4.45-13.46
				C296.52,148.67,291.81,140.3,293.91,141.02z"/>
			<g>
				<path class="st19" d="M279.58,123.36c0,0-1.01,5.12-0.12,8.52c0.9,3.39,2.91,3.27,2.91,3.87c0,0.6-1.22,6.81-1.22,6.81
					l7.07,1.09c0,0,0.71-6.71,0.69-7.61c-0.02-0.9,2.28-7.02,0.89-9.35C288.41,124.36,279.58,123.36,279.58,123.36z"/>
				<path class="st1" d="M290.13,120.3c-1.3-1.17-3.64-2.88-5.4-2.29c-1.76,0.59-5.25-1.15-6.28,2.09c-0.98,3.07,1.73,4.32,4,4.78
					c2.27,0.46,2.21,1.1,2.23,2.36c0.01,1.26,1.18,0.25,1.94,0.69c0.47,0.27,0.44,2.03-0.72,3.23c-1.16,1.2,0.51,4.31,1.59,4.56
					c1.08,0.25,1.78-0.2,2.61-1.12c2.06-2.28,3.98-4.1,4.35-9.34C294.82,120.02,290.13,120.3,290.13,120.3z"/>
				
					<linearGradient id="SVGID_10_" gradientUnits="userSpaceOnUse" x1="5371.6504" y1="812.7441" x2="5374.731" y2="812.7441" gradientTransform="matrix(-0.9959 -0.09 -0.09 0.9959 5708.1221 -190.4155)">
					<stop  offset="0" style="stop-color:#FFFFFF"/>
					<stop  offset="1" style="stop-color:#000000"/>
				</linearGradient>
				<path class="st20" d="M285.03,133.92c-0.78,0.18-1.51,1.55-2.78,1.61l-0.06,1.4C282.2,136.93,286.95,133.48,285.03,133.92z"/>
			</g>
			<path class="st5" d="M280.92,139.91l0.96-1.9c0,0,3.83-1.07,6.82,0l0.45,2.62L280.92,139.91z"/>
			<g>
				<path class="st19" d="M294.34,240.24c-0.84,0.69-0.34,2.05,0.74,2.05h4.49c0.8,0,1.9-0.64,1.69-2.69
					c-0.01-0.13-0.02-0.26-0.03-0.39c-0.08-1-0.08-2.17-0.05-3.14c0.03-1.15,0.09-2.02,0.09-2.02l-3.42-2.06l-0.68-0.41
					c0,0,0.02,0.14,0.05,0.39c0.1,0.76,0.29,2.52,0.22,4.11c-0.05,1.07-0.22,2.05-0.61,2.61c-0.13,0.18-0.28,0.31-0.46,0.39
					C295.47,239.45,294.81,239.85,294.34,240.24z"/>
				<path class="st21" d="M293.19,241.67c-0.13,0.3,0.09,0.62,0.41,0.62h5.96c0.8,0,1.9-0.64,1.69-2.69
					c-0.01-0.13-0.02-0.26-0.03-0.39c0.06-0.39-0.92-0.81-3.27,0.12c-0.51,0.2-0.03-1.04-0.75-1.02c-0.37,0.01-0.45,0.47-0.6,0.6
					c-0.08,0.07-0.17,0.12-0.26,0.16C294.25,239.96,293.48,241.01,293.19,241.67z"/>
			</g>
			<linearGradient id="SVGID_11_" gradientUnits="userSpaceOnUse" x1="280.8005" y1="203.9485" x2="301.8568" y2="203.9485">
				<stop  offset="0" style="stop-color:#5E74CF"/>
				<stop  offset="1" style="stop-color:#728EFC"/>
			</linearGradient>
			<path class="st22" d="M280.8,185.03l15.52,51.3h5.54c0,0-4.21-26.2-4.91-32.38c-0.55-4.88-2.22-26.2-5.62-32.38l-10.53,1.11
				V185.03z"/>
			<g>
				<path class="st19" d="M274.59,242.19c-0.49,0.19-6.73,0.08-9.34,0.02c-0.53-0.01-0.78-0.66-0.39-1.03
					c0.64-0.62,1.79-1.34,3.75-1.52c0.85-0.08,1.37-0.36,1.68-0.82c0.43-0.64,0.32-3.12,0.23-4.4c-0.02-0.27,0.57-0.66,0.54-0.96
					c-0.22-2.67,3.78,0.4,3.78,0.4s-0.31,0.68-0.3,1.22c0.03,0.78-0.07,2.77,0.16,3.68c0.03,0.13,0.07,0.26,0.11,0.38
					C275.3,240.7,275.2,241.95,274.59,242.19z"/>
				<path class="st21" d="M274.59,242.19c-0.53,0.2-7.81,0.06-9.9,0.01c-0.27-0.01-0.37-0.29-0.25-0.53c0.42-0.84,1.6-2.16,4.11-2.4
					c0.85-0.08,1.66-0.42,1.96-0.87c0.88,0.05,1.58,0.44,1.56,1.24c-0.01,0.47,1.48,0.6,2.64-0.85c0.03,0.13,0.07,0.26,0.11,0.38
					C275.3,240.7,275.2,241.95,274.59,242.19z"/>
			</g>
			<path class="st2" d="M275.42,172.36c0,0-5.03,19.04-5.66,34.08c-0.63,15.04,0.28,29.88,0.28,29.88h5.38c0,0,1.88-14.65,4.79-28.1
				c2.39-11.07,6.81-21.34,7.24-23.63c0.95-5.07,0.17-13.02,0.17-13.02L275.42,172.36z"/>
			<path class="st14" d="M273.12,141.41c8.63-3.32,20.2-1.62,22.64,0.21c2.69,2.01-2.45,16.97-2.69,22.2
				c-0.24,5.22,0.06,12.89,0.06,12.89s-16.37,1.7-18.94,0.66c0,0,1.07-5.55,0-14.81C273.12,153.29,269.59,142.77,273.12,141.41z"/>
			<path class="st14" d="M277.24,140.22c0,0-2.27,0.8-5.65-0.86c-3.38-1.67-8.32-9.12-8.32-9.12l-3.24-14.23l-3.53-0.09
				c0,0,1.11,16.87,2.06,19.48c0.95,2.61,12.67,17.08,14.31,19C274.51,156.33,277.24,140.22,277.24,140.22z"/>
			<path class="st19" d="M260.03,116.01c0,0,0.45-3.41,0-3.85c-0.45-0.44-2.43-0.12-3.14,0.47c-0.71,0.59-0.4,3.29-0.4,3.29
				L260.03,116.01z"/>
		</g>
		<g>
			<path class="st14" d="M318.39,246.14h-70.77c-1.04,0-1.88-0.84-1.88-1.88v-2.12h74.54v2.12
				C320.27,245.29,319.43,246.14,318.39,246.14z"/>
			<path class="st14" d="M247.24,203.63c-0.83,0-1.5,0.67-1.5,1.5l0,0v38.78l1.31,1.67v-38.95c0-0.83,0.67-1.5,1.5-1.5h7.76v38.78
				l1.31,1.67v-40.45H267v38.78l1.31,1.67v-40.45h9.26v38.78l1.31,1.67v-40.45h8.26v38.78l1.31,1.67v-40.45h9.26v38.78l1.31,1.67
				v-40.45h9.38v38.78l1.31,1.67v-40.45h7.76c0.83,0,1.5,0.67,1.5,1.5v37.28l1.31,0.13v-38.91l0,0c0-0.83-0.67-1.5-1.5-1.5H247.24z"
				/>
			<path class="st14" d="M320.39,273.04h-73.9c-0.56,0-1.01-0.45-1.01-1.01v-0.23c0-0.56,0.45-1.01,1.01-1.01h73.9
				c0.56,0,1.01,0.45,1.01,1.01v0.23C321.39,272.59,320.94,273.04,320.39,273.04z"/>
			<path class="st14" d="M250.22,273.04c-2.48,0-4.48,1.9-4.48,4.24s2,4.24,4.48,4.24c2.47,0,4.48-1.9,4.48-4.24
				S252.69,273.04,250.22,273.04z M250.22,279.07c-1.04,0-1.89-0.8-1.89-1.79c0-0.99,0.84-1.79,1.89-1.79c1.04,0,1.88,0.8,1.88,1.79
				C252.1,278.27,251.26,279.07,250.22,279.07z"/>
			<path class="st14" d="M316.92,273.04c-2.48,0-4.48,1.9-4.48,4.24s2,4.24,4.48,4.24c2.47,0,4.48-1.9,4.48-4.24
				S319.39,273.04,316.92,273.04z M316.92,279.07c-1.04,0-1.89-0.8-1.89-1.79c0-0.99,0.84-1.79,1.89-1.79c1.04,0,1.88,0.8,1.88,1.79
				C318.8,278.27,317.96,279.07,316.92,279.07z"/>
			<g>
				<path class="st14" d="M310.48,272.61l-54.94-26.65c-0.43-0.21-0.61-0.73-0.4-1.17l0.09-0.18c0.21-0.43,0.73-0.61,1.17-0.4
					l54.94,26.66c0.43,0.21,0.61,0.73,0.4,1.17l-0.09,0.18C311.44,272.64,310.91,272.82,310.48,272.61z"/>
				<path class="st14" d="M255.55,270.88l54.92-26.69c0.43-0.21,0.96-0.03,1.17,0.4l0.09,0.18c0.21,0.43,0.03,0.96-0.4,1.17
					l-54.92,26.69c-0.43,0.21-0.96,0.03-1.17-0.4l-0.09-0.18C254.94,271.62,255.12,271.09,255.55,270.88z"/>
			</g>
		</g>
	</g>
	<g>
		<g>
			<path class="st19" d="M83.09,82.65c-0.63,0.07-7.93-1.94-10.97-2.79c-0.62-0.17-0.71-1-0.15-1.32c0.94-0.54,2.51-1.03,4.86-0.65
				c1.02,0.16,1.72-0.01,2.22-0.45c0.7-0.62,1.32-3.57,1.6-5.1c0.06-0.33,0.87-0.61,0.93-0.97c0.55-3.2,4.32,1.62,4.32,1.62
				s-0.57,0.71-0.72,1.35c-0.21,0.93-0.91,3.23-0.93,4.37c0,0.17,0,0.33,0.01,0.48C84.38,81.12,83.88,82.56,83.09,82.65z"/>
			<path class="st21" d="M83.09,82.65c-0.68,0.08-9.19-2.29-11.64-2.98c-0.31-0.09-0.35-0.45-0.14-0.7
				c0.74-0.86,2.54-2.06,5.55-1.58c1.02,0.16,2.07,0.01,2.57-0.43c1.01,0.33,1.72,1,1.46,1.93c-0.15,0.55,1.56,1.16,3.36-0.2
				c0,0.17,0,0.33,0.01,0.48C84.38,81.12,83.88,82.56,83.09,82.65z"/>
		</g>
		<path class="st23" d="M124.07,51.35c0,0-22.3-9.64-29.85-8.04c-7.54,1.6-8.79,10.58-14.55,30.66l6.66,1.97l9.82-21.06l32,5.31
			L124.07,51.35z"/>
		<path class="st24" d="M114.37,11.46l-0.47-1.21c0,0,0.22-1.42-0.52-3.56c-0.73-2.14-1.64-3.86-2.83-5.19
			c-1.85-2.07-4.34-0.8-5.87,0.9c-1.03,1.15-3.03-0.33-7.48,3.13c-3.35,2.6-0.7,7.05,3.09,5.37c4.3-1.91,10.14,2.44,10.14,2.44
			l3.46-0.5L114.37,11.46z"/>
		<path class="st19" d="M103.85,9.21c2.04,1.03,3.86,1.78,3.37,0.42c-0.23-0.64-0.32-1.04,0.05-1.49c0.49-0.59,1.85-0.67,2.28,0.31
			c0.76,1.74,1.4,2.48,2.11,2.57c0.13,0.02,0.27,0.04,0.41,0.07c0.72,0.15,1.46-0.2,1.83-0.84l0,0l4.76,4.66L114,20.56l-2.66-3.47
			c-0.17,0.21-0.36,0.4-0.57,0.56c-2.01,1.5-7.45-3-10.48-6.77C100.3,10.88,102.99,8.77,103.85,9.21z"/>
		<polygon class="st5" points="119.17,14.86 117.38,13.65 113.39,19.76 114.01,20.88 		"/>
		<g>
			<path class="st19" d="M84.09,91.06c-0.63,0.07-7.93-1.94-10.97-2.79c-0.62-0.17-0.71-1-0.15-1.32c0.94-0.54,2.51-1.03,4.86-0.65
				c1.02,0.16,1.72-0.01,2.22-0.45c0.7-0.62,1.32-3.57,1.6-5.1c0.06-0.33,0.87-0.61,0.93-0.97c0.55-3.2,4.32,1.62,4.32,1.62
				s-0.57,0.71-0.72,1.35c-0.21,0.93-0.91,3.23-0.93,4.37c0,0.17,0,0.33,0.01,0.48C85.38,89.53,84.88,90.97,84.09,91.06z"/>
			<path class="st21" d="M84.09,91.06c-0.68,0.08-9.19-2.29-11.64-2.98c-0.31-0.09-0.35-0.45-0.14-0.7
				c0.74-0.86,2.54-2.06,5.55-1.58c1.02,0.16,2.07,0.01,2.57-0.43c1.01,0.33,1.72,1,1.46,1.93c-0.15,0.55,1.56,1.16,3.36-0.2
				c0,0.17,0,0.33,0.01,0.48C85.38,89.53,84.88,90.97,84.09,91.06z"/>
		</g>
		<path class="st14" d="M135.13,50.26l4.58,6.09c0,0,1.45,10.88-9.72,13.01c-11.16,2.13-30.58-9.59-30.58-9.59L86.9,85.17
			l-5.84-1.58c0,0,6.83-30.31,10.47-35.04c3.65-4.74,31.62,5.44,31.85,6.07C123.62,55.24,135.13,50.26,135.13,50.26z"/>
		<g>
			<polygon points="104.22,38.2 104.29,38.71 102.43,39.25 			"/>
			<polygon points="92.91,38.64 92.51,38.09 91.76,40.42 			"/>
			<polygon points="84.87,28 84.24,28.09 84.23,28.84 			"/>
			<path d="M84.06,48.09c0,0-0.34,0.12-0.58-0.35c-0.24-0.48,1.07-1.75,1.07-1.75l1.41,0.93L84.06,48.09z"/>
			<path d="M83.48,47.74l8.92-9.02l-7.43-10.33c-0.27-0.38-0.82-0.42-1.14-0.09l-7.7,7.79c-0.34,0.35-0.39,0.89-0.1,1.29
				L83.48,47.74z"/>
			<path d="M83.99,47.66l11.51-0.68c0.28-0.02,0.55-0.14,0.74-0.34l7.92-8.19c0.17-0.17,0.03-0.46-0.2-0.44l-11.05,0.63L83.99,47.66
				z"/>
			<path d="M84.06,48.09l11.5-0.68c0.28-0.02,0.55-0.14,0.74-0.34l7.92-8.19c0.17-0.17,0.03-0.46-0.2-0.44l-11.05,0.63L84.06,48.09z
				"/>
			<path d="M84.41,47.24L92.55,39c0.21-0.21,0.23-0.53,0.06-0.77l-7.14-9.92c-0.27-0.38-0.82-0.42-1.14-0.09l-7.7,7.79
				c-0.34,0.35-0.39,0.89-0.1,1.29l7.11,9.87C83.83,47.43,84.19,47.46,84.41,47.24z"/>
			
				<linearGradient id="SVGID_12_" gradientUnits="userSpaceOnUse" x1="3504.8767" y1="-196.6323" x2="3519.4185" y2="-196.6323" gradientTransform="matrix(-0.9897 0.1434 0.1434 0.9897 3588.6919 -271.3936)">
				<stop  offset="0" style="stop-color:#9CDBF0"/>
				<stop  offset="1" style="stop-color:#F0F3F5"/>
			</linearGradient>
			<path class="st25" d="M92,38.57l-7.09-9.85l-0.09-0.01l-7.69,7.79c-0.11,0.11-0.12,0.28-0.03,0.4l6.97,9.69L92,38.57z"/>
		</g>
		<path class="st19" d="M98,40.6c0,0-3.9-1.06-4.84-0.64c-0.94,0.42-2.61,3.77-2.17,3.81c0.43,0.03,2.24-1.04,2.75-1.12
			c0.51-0.07,4.24,0.87,4.24,0.87L98,40.6z"/>
		
			<linearGradient id="SVGID_13_" gradientUnits="userSpaceOnUse" x1="3460.1462" y1="-192.2554" x2="3481.1985" y2="-192.2554" gradientTransform="matrix(-0.9897 0.1434 0.1434 0.9897 3588.6919 -271.3936)">
			<stop  offset="0" style="stop-color:#5E74CF"/>
			<stop  offset="1" style="stop-color:#728EFC"/>
		</linearGradient>
		<path class="st26" d="M114,20.56c0,0,2.52-4.57,4.66-5.65c2.14-1.07,11.12,1.96,16.1,17.2c3.56,10.89,4.95,24.24,4.95,24.24
			l-10.86-0.75c-3.17-0.22-5.92-2.27-7.02-5.25c-1.69-4.58-4.18-11.13-5.53-13.93C114.11,31.89,114,20.56,114,20.56z"/>
		<path class="st2" d="M120.39,17.37c0,0-5.27-2.18-6.34,5.04c-1.06,7.22-0.64,18.73-0.64,18.73s-9.89-0.56-10.95-0.54
			c-1.74,0.04-3.82,0.01-3.82,0.01L98.6,44.7c0,0,21.37,3.93,21.81,1.85c0.58-2.7,3.17-12.72,3.19-18.98
			C123.61,20.78,122.04,17.99,120.39,17.37z"/>
		
			<linearGradient id="SVGID_14_" gradientUnits="userSpaceOnUse" x1="3480.6396" y1="-214.2133" x2="3482.6584" y2="-214.2133" gradientTransform="matrix(-0.9897 0.1434 0.1434 0.9897 3588.6919 -271.3936)">
			<stop  offset="0" style="stop-color:#FFFFFF"/>
			<stop  offset="1" style="stop-color:#000000"/>
		</linearGradient>
		<path class="st27" d="M111.34,17.09c0,0,0.75-2.54,0.97-3.49c0.22-0.96,1.63,1.71-0.06,4.68L111.34,17.09z"/>
		<polygon class="st5" points="98.64,40.61 98,40.6 97.9,44.05 98.6,44.2 		"/>
	</g>
	<g>
		<path class="st19" d="M30.17,142.19c0,0-1.81-2.69-2.47-3.28c-0.67-0.59-2.02-1.99-0.38-3.23c1.64-1.24,3.33-2.03,3.95-1.21
			c0.62,0.82,1.51,6.44,1.51,6.44L30.17,142.19z"/>
		<path class="st14" d="M21.01,141.18c0,0-0.77,4.35,2.16,6.72c3.37,2.73-1.03,5.27-5.7,5.5c-4.67,0.23-9.01-1.51-13-2.17
			c-3.99-0.66-5.84-1.92-3.69-4.95c2.14-3.03,4.03-6.65,4.32-9.01c0.3-2.36,0.35-6.17,4.88-7.13c4.52-0.96,3.83-2.92,6.78-3.58
			c4-0.89,6.23,4.08,2.73,6.87C16.03,136.16,21.01,141.18,21.01,141.18z"/>
		<path class="st28" d="M31.92,256.64v12.58h2.11v-3.43c0,0,1.62,3.28,2.63,3.43c0.65,0.1,3.2,0.07,5.3,0.04
			c0.54-0.01,0.72-0.72,0.25-0.98c-1.92-1.09-4.71-2.19-5.32-5.4c-0.53-2.78-0.78-6.41-0.78-6.41L31.92,256.64z"/>
		<path class="st28" d="M6.98,256.33l-1.22,12.35c-0.03,0.31,0.21,0.58,0.53,0.58h5.95c0.32,0,0.56-0.28,0.52-0.6
			c-0.09-0.73-1.36-2.07-1.71-3.45c-0.76-3.03-0.3-9.32-0.3-9.32L6.98,256.33z"/>
		<path class="st21" d="M6.47,181.13c0,0-4.15,6.35-2.82,23.78c1.33,17.44,1.28,18.32,1.28,18.32l1.09,34.28c0,0,3.1,0.74,4.88,0
			l6.06-54.84c0,0,7.54,18.04,9.16,22.03c1.63,3.99,0,14.55,5.47,33.13c0,0,3.25,0.77,5.32,0c0,0,0.3-32.75-1.18-38.18
			c-1.48-5.44-10.28-33.7-11.79-36.93C22.41,179.5,6.47,181.13,6.47,181.13z"/>
		<g>
			<path class="st21" d="M33.61,131.21l2.25,4.12l-3.23,1.46l-7.77,3.5l-0.01-0.01c-0.41,0.22-1.04-0.16-1.42-0.86
				c-0.38-0.69-0.36-1.44,0.05-1.66l0-0.01l7.15-4.63L33.61,131.21z"/>
			<path class="st29" d="M33.61,131.21l2.25,4.12l-3.23,1.46c-0.54-0.29-1.08-0.84-1.47-1.57c-0.4-0.73-0.57-1.48-0.52-2.09
				L33.61,131.21z"/>
			<path class="st21" d="M40.23,126.39l3.27,5.99l-2.49,1.17l-6.37,3l-0.02,0.01l-0.11,0.05l-0.01-0.02
				c-0.8,0.3-1.97-0.43-2.68-1.74c-0.71-1.3-0.7-2.68-0.01-3.2l-0.01-0.01l0.1-0.06c0.01,0,0.01-0.01,0.01-0.01l0.01,0l5.96-3.73
				L40.23,126.39z"/>
			<path class="st29" d="M40.23,126.39l3.27,5.99l-2.49,1.17c-0.87-0.36-1.77-1.22-2.4-2.39c-0.64-1.17-0.87-2.39-0.71-3.31
				L40.23,126.39z"/>
			<path class="st21" d="M48.27,120.82l4.27,7.83l-3.29,1.61l-5.63,2.75l-0.04,0.02c-1.14,0.62-2.93-0.45-3.99-2.4
				c-1.06-1.95-1-4.04,0.14-4.66c0.02-0.01,0.03-0.01,0.05-0.02l0-0.01l5.37-3.24L48.27,120.82z"/>
			<path class="st2" d="M47.83,120.76c-1.34,0.73-1.41,3.18-0.16,5.46c1.25,2.29,3.34,3.55,4.68,2.82l0,0l8.71-4.75l-4.52-8.29
				L47.83,120.76z"/>
			<path class="st29" d="M48.27,120.82l4.27,7.83l-3.29,1.61c-1.19-0.19-2.57-1.33-3.48-3c-0.91-1.68-1.12-3.44-0.63-4.55
				L48.27,120.82z"/>
			<path class="st21" d="M47.04,121.19c-1.34,0.73-1.41,3.18-0.16,5.46c1.25,2.29,3.34,3.55,4.68,2.82l0,0l8.71-4.75l-4.52-8.29
				L47.04,121.19z"/>
			<path class="st30" d="M60.43,119.25c-1.04-1.9-2.6-3.17-3.94-3.34l-0.2-0.36l-1.04,0.57c-1.48,0.81-1.56,3.52-0.18,6.05
				c1.38,2.54,3.7,3.94,5.18,3.13l1.04-0.57l-0.2-0.36C61.68,123.16,61.46,121.16,60.43,119.25z"/>
			<path class="st31" d="M61.47,118.68c1.38,2.54,1.3,5.25-0.18,6.05c-1.48,0.81-3.8-0.6-5.18-3.13c-1.38-2.54-1.3-5.25,0.18-6.05
				C57.77,114.74,60.09,116.15,61.47,118.68z"/>
			<path class="st32" d="M60.59,119.18c1.05,1.92,1.09,3.91,0.1,4.45c-0.99,0.54-2.65-0.58-3.69-2.49c-1.05-1.92-1.09-3.91-0.1-4.45
				C57.9,116.14,59.55,117.26,60.59,119.18z"/>
		</g>
		<path class="st33" d="M6.01,182.21c0.64,0.73,1.37,1.33,2.15,1.83c2.82,1.79,6.38,2.21,9.42,2.21c3.88,0,6.47-2.46,6.47-2.46
			s-1.2-9.55-1.3-12.12c-0.1-2.56,2.86-5.89,2.56-7.88c-0.84-5.56-4.83-10.54-4.83-10.54c-7.98-2.86-14.48,0-14.48,0
			s0.17,2.62,0.47,5.91c0.37,4.13,0.94,9.31,1.6,11.72C9.26,175.22,6.01,182.21,6.01,182.21z"/>
		
			<linearGradient id="SVGID_15_" gradientUnits="userSpaceOnUse" x1="966.3568" y1="171.8512" x2="975.3499" y2="171.8512" gradientTransform="matrix(-1 0 0 1 981.3622 0)">
			<stop  offset="0" style="stop-color:#FFFFFF"/>
			<stop  offset="1" style="stop-color:#000000"/>
		</linearGradient>
		<path class="st34" d="M6.01,182.21c0.64,0.73,1.37,1.33,2.15,1.83l2.38,0.5c0,0,7.39-11.89,3.15-14.05
			c-4.23-2.16-6.25-6.99-7.09-11.33H6.49c0.37,4.13,0.94,9.31,1.6,11.72C9.26,175.22,6.01,182.21,6.01,182.21z"/>
		<polygon class="st5" points="11.07,184.54 22.3,184.54 30.69,170 19.46,170 		"/>
		<path class="st19" d="M19.57,177.32c0,0,2.11-0.5,3.14-0.74c0.81-0.18,1.92-0.44,1.85,0c-0.07,0.44-1.42,0.68-1.39,0.92
			c0.03,0.25,2.09,0,3.65-0.78c1.55-0.78,0.37,2.81-2.51,3.03c-2.88,0.22-5.47-0.52-5.47-0.52L19.57,177.32z"/>
		<path class="st35" d="M6.01,153.25c5.12,1.08-1.28,19.31,0,20.49c1.28,1.18,14.14,3.25,14.14,3.25l-0.45,2.96
			c0,0-15.86-0.01-18.81-3.64C-1.67,173.15,2.65,152.54,6.01,153.25z"/>
		<path class="st33" d="M18.23,152.58c0,0,6.19,0.89,10.68,2.74c4.49,1.85,6.11,1.36,5.95,0.78c-0.17-0.58-5.45-14.13-5.45-14.13
			l3.58-1.62c0,0,7.59,14.67,8.17,17.88c0.58,3.2-2.21,5.62-6.52,5.24s-12.87-3.13-12.87-3.13L18.23,152.58z"/>
		<path class="st19" d="M11.1,152.08c1.62,2.87,6.88,3.04,6.91,0.44c0.01-1.28-0.19-3.11-0.4-4.64c-0.22-1.57-0.44-2.81-0.44-2.81
			s-5.91-4.51-5.76-2.14C11.55,145.3,11.1,152.08,11.1,152.08z"/>
		
			<linearGradient id="SVGID_16_" gradientUnits="userSpaceOnUse" x1="963.7571" y1="145.0676" x2="969.9596" y2="145.0676" gradientTransform="matrix(-1 0 0 1 981.3622 0)">
			<stop  offset="0" style="stop-color:#FFFFFF"/>
			<stop  offset="1" style="stop-color:#000000"/>
		</linearGradient>
		<path class="st36" d="M11.41,142.93c1.03,3.3,4.72,4.57,6.2,4.96c-0.22-1.57-0.44-2.81-0.44-2.81S11.26,140.57,11.41,142.93z"/>
		<path class="st19" d="M19.26,133.6c0,0,4.93,8.52,1.53,11.52c-3.4,3-7.29-1.47-7.98-1.99c-0.69-0.52-2.84-0.08-3.32-1.41
			c-0.48-1.33,0.66-1.68,1.3-1.53c0.64,0.15,1.77,0.25,0.74-1.72c-1.03-1.97,2.71-1.86,4.38-2.71
			C17.58,134.92,19.26,133.6,19.26,133.6z"/>
		<path class="st19" d="M29.13,140.7c0,0-2.16-1.68-2.59-2.53c-0.43-0.85-0.51-1.62,0.6-0.72c1.11,0.9,1.99,1.5,1.99,1.5V140.7z"/>
		<path class="st19" d="M29.73,133.72c0,0-1.2,1.68-2.04,2.06c-0.84,0.38-1.59,0.55-1.63,0.32c-0.05-0.23,0.3-1.35,1.84-2.09
			C29.43,133.25,29.81,133.6,29.73,133.72z"/>
	</g>
	<g>
		<path class="st14" d="M242.93,223.71c-0.1,2.25-8,0.07-8,0.07S243.1,220.09,242.93,223.71z"/>
		<path class="st14" d="M235.82,227.21c0.2-1.22-3.35-2.73-7.37-2.22c0,0,2.2,1.47,3.39,2.54
			C233.02,228.6,235.52,229.06,235.82,227.21z"/>
		<g>
			<path class="st14" d="M210.27,235.43c13.75-10.88,25.47-11.63,25.59-11.63l0-0.29c-0.12,0-12.23,0.19-26.06,11.13L210.27,235.43z
				"/>
		</g>
		<path class="st14" d="M232.78,218.59c0.76,1.28-5.03,6.58-5.03,6.58s-0.02-2.97,0.8-5.07C229.38,218,232.04,217.34,232.78,218.59z
			"/>
		<path class="st14" d="M222.26,227.22c0,0,5.9-0.01,7.34,3.05C231.04,233.32,225.55,231.65,222.26,227.22z"/>
		<path class="st14" d="M216.91,230.23c0,0,7.71,0.23,7.49,3.96C224.18,237.93,216.91,230.23,216.91,230.23z"/>
		<path class="st14" d="M214.1,231.7c0,0-0.67-6.65,3.11-8.09C220.98,222.17,217.25,230.17,214.1,231.7z"/>
		<path class="st14" d="M221.74,227.95c0,0-1.08-6.6,2.59-8.27S224.79,226.22,221.74,227.95z"/>
	</g>
	<g>
		
			<linearGradient id="SVGID_17_" gradientUnits="userSpaceOnUse" x1="5863.2397" y1="1239.6057" x2="5918.3301" y2="1290.2637" gradientTransform="matrix(-0.9542 -0.2992 -0.2992 0.9542 6203.1714 802.8272)">
			<stop  offset="0" style="stop-color:#84D5E0"/>
			<stop  offset="1" style="stop-color:#57ABEC"/>
		</linearGradient>
		<path class="st37" d="M169.67,242.2c5.38-6.56,12.83-16.1,19.86-16.18c7.04-0.08,7.17,4.84,6.38,6.88
			c-0.79,2.04,3.39-0.61,12.61-2.3c9.22-1.68,15.46,0.79,17.62,2.63c3.73,3.17,2.06,4.61,0.18,7.68
			c-1.88,3.07,17.41,6.71,19.45,11.38s-5.76,8.16-13.21,5.67c-7.45-2.49-9.97-1.75-8.49,1.3c1.48,3.06-1.71,9.83-13.52,2.77
			c-11.81-7.06-17.26-8.18-15.92-4.17c1.33,4.01,2.1,8.37-7.61,5.78c-9.71-2.59-19.51-8.26-23.18-7.27
			C160.45,257.3,164.36,248.68,169.67,242.2z"/>
		<g>
			<path class="st5" d="M164.03,256.54l-0.36-0.3c11.25-13.46,32.26-13.62,47.91-11.38c16.92,2.42,31.38,8.07,31.52,8.13l-0.17,0.44
				c-0.14-0.06-14.56-5.7-31.42-8.1C195.98,243.1,175.14,243.25,164.03,256.54z"/>
		</g>
		<g>
			<path class="st5" d="M216.64,257.63c-0.05-0.11-5.04-10.69-14.56-13.26l0.12-0.46c9.74,2.63,14.81,13.41,14.86,13.52
				L216.64,257.63z"/>
		</g>
		<g>
			<path class="st5" d="M199.99,244.28l-0.01-0.48c8.57-0.18,19.18-8.16,19.29-8.24l0.29,0.38
				C219.46,236.02,208.72,244.1,199.99,244.28z"/>
		</g>
		<g>
			<path class="st5" d="M177.72,247.23l-0.27-0.39c8.82-6.18,9.51-13.94,9.52-14.02l0.47,0.04
				C187.43,232.93,186.72,240.92,177.72,247.23z"/>
		</g>
	</g>
</g>
</svg>
