<?xml version="1.0" encoding="utf-8"?>
<!-- Generator: Adobe Illustrator 23.0.2, SVG Export Plug-In . SVG Version: 6.00 Build 0)  -->
<svg version="1.1" id="Layer_1" xmlns="http://www.w3.org/2000/svg" xmlns:xlink="http://www.w3.org/1999/xlink" x="0px" y="0px"
	 viewBox="0 0 339 276" style="enable-background:new 0 0 339 276;" xml:space="preserve">
<style type="text/css">
	.st0{fill:#6ECEDB;}
	.st1{fill:#28B5C8;}
	.st2{opacity:0.22;fill:#9FAAD4;}
	.st3{opacity:0.2;fill:#091D7B;}
	.st4{fill:#57ABEC;}
	.st5{fill:#FFB600;}
	.st6{fill:#728EFC;}
	.st7{fill:#202952;}
	.st8{fill:#FDD1B1;}
	.st9{fill:#37193B;}
	.st10{fill:#18203D;}
	.st11{fill:#2E385B;}
	.st12{fill:#435075;}
	.st13{fill:#D0EBF5;}
	.st14{fill:#E974FE;}
	.st15{opacity:0.15;fill:url(#SVGID_1_);}
	.st16{fill:#FFFFFF;}
	.st17{opacity:0.15;fill:url(#SVGID_2_);}
	.st18{fill:#E34899;}
	.st19{opacity:0.15;fill:url(#SVGID_3_);}
	.st20{opacity:0.15;fill:url(#SVGID_4_);}
	.st21{opacity:0.15;fill:url(#SVGID_5_);}
	.st22{opacity:0.21;fill:url(#SVGID_6_);}
	.st23{opacity:0.3;fill:url(#SVGID_7_);}
	.st24{fill:#8ED2E8;}
	.st25{fill:#DCF4FE;}
	.st26{fill:#2E2E2E;}
	.st27{fill:#091D7B;}
	.st28{fill:none;}
	.st29{fill:#E8AF95;}
	.st30{fill:#333147;}
	.st31{opacity:0.7;fill:#FFB600;}
	.st32{opacity:0.38;fill:#F4FBFE;}
	.st33{fill:#88CDE3;}
	.st34{fill:#CDF2F7;}
	.st35{opacity:0.29;fill:#FFFFFF;}
	.st36{opacity:0.15;fill:url(#SVGID_8_);}
	.st37{opacity:0.15;fill:url(#SVGID_9_);}
	.st38{opacity:0.15;fill:url(#SVGID_10_);}
	.st39{opacity:0.15;fill:url(#SVGID_11_);}
	.st40{opacity:0.15;fill:url(#SVGID_12_);}
</style>
<g>
	<path class="st0" d="M48.57,198.48l-4.15-4.46c-1.79,0.79-3.48,1.72-5.07,2.79l1.57,5.91c-1.61,1.24-3.06,2.66-4.36,4.2l-5.83-1.79
		c-1.13,1.56-2.13,3.22-2.99,4.95l4.3,4.33c-0.76,1.86-1.33,3.8-1.68,5.81l-5.96,1.37c-0.2,1.9-0.23,3.83-0.1,5.78l5.88,1.59
		c0.14,1,0.32,1.98,0.57,2.98c0.25,0.99,0.54,1.95,0.89,2.9l-4.46,4.15c0.8,1.79,1.72,3.48,2.79,5.07l5.91-1.57
		c1.24,1.61,2.65,3.07,4.2,4.36l-1.79,5.83c1.56,1.13,3.22,2.13,4.95,2.99l4.32-4.3c1.87,0.76,3.81,1.33,5.81,1.68l1.37,5.96
		c1.9,0.2,3.83,0.23,5.78,0.1l1.59-5.88c0.99-0.14,1.98-0.32,2.97-0.57c1-0.25,1.96-0.54,2.9-0.89l4.15,4.46
		c1.79-0.79,3.48-1.72,5.07-2.79l-1.57-5.91c1.61-1.24,3.07-2.65,4.35-4.19l5.84,1.79c1.13-1.56,2.13-3.22,2.99-4.95l-4.3-4.32
		c0.76-1.86,1.33-3.81,1.68-5.81l5.96-1.37c0.2-1.9,0.23-3.83,0.1-5.78l-5.88-1.59c-0.14-1-0.32-1.98-0.57-2.97
		c-0.25-1-0.54-1.96-0.89-2.9l4.46-4.15c-0.8-1.79-1.72-3.48-2.79-5.07l-5.91,1.57c-1.24-1.61-2.66-3.06-4.19-4.35l1.79-5.84
		c-1.56-1.13-3.22-2.13-4.95-2.99l-4.33,4.3c-1.86-0.76-3.8-1.33-5.81-1.68l-1.37-5.96c-1.9-0.2-3.83-0.23-5.78-0.1l-1.59,5.88
		c-0.99,0.14-1.98,0.32-2.98,0.57C50.48,197.84,49.52,198.13,48.57,198.48z M54.76,210.88c7.86-1.95,15.81,2.85,17.76,10.71
		c1.95,7.85-2.85,15.8-10.71,17.75c-7.85,1.95-15.8-2.85-17.75-10.7C42.11,220.77,46.91,212.82,54.76,210.88z"/>
	<path class="st1" d="M52.83,203.09c-12.16,3.01-19.58,15.31-16.56,27.48c3.01,12.16,15.31,19.58,27.47,16.56
		c12.17-3.01,19.58-15.31,16.57-27.48C77.3,207.49,65,200.07,52.83,203.09z M54.76,210.88c7.86-1.95,15.81,2.85,17.76,10.71
		c1.95,7.85-2.85,15.8-10.71,17.75c-7.85,1.95-15.8-2.85-17.75-10.7C42.11,220.77,46.91,212.82,54.76,210.88z"/>
	<ellipse class="st2" cx="86.16" cy="273.04" rx="22.34" ry="2.93"/>
	<path class="st2" d="M339.24,267.82c0,1.62-10,2.93-22.34,2.93c-12.34,0-22.34-1.31-22.34-2.93s10-2.93,22.34-2.93
		C329.23,264.89,339.24,266.2,339.24,267.82z"/>
	<ellipse class="st2" cx="194.57" cy="273.26" rx="22.34" ry="2.93"/>
	<path class="st3" d="M283.83,170.03l-25.19,0.03c-2.45,0-4.26,2.26-3.76,4.66c0.56,2.69,1.59,5.28,3.01,7.67
		c0.83,1.39,1.28,2.92,1.28,4.52c0,6.42-7.31,11.63-16.34,11.63c-9.02,0-16.34-5.2-16.34-11.63c0-1.61,0.46-3.13,1.28-4.52
		c1.42-2.39,2.45-4.98,3.01-7.67c0.5-2.4-1.31-4.66-3.76-4.66l-25.23-0.03c-2.53,0-4.58,2.04-4.58,4.57l-0.03,25.24
		c0,2.44-2.25,4.23-4.64,3.74c-2.7-0.56-5.3-1.59-7.7-3.02c-1.39-0.83-2.92-1.28-4.52-1.28c-6.42,0-11.63,7.31-11.63,16.34
		c0,9.02,5.2,16.34,11.63,16.34c1.61,0,3.13-0.46,4.52-1.28c2.4-1.42,4.99-2.46,7.7-3.02c2.39-0.49,4.63,1.3,4.64,3.74l0.03,25.24
		c0,1.17,0.45,2.23,1.17,3.04c-4.41,0.44-6.95,0.97-6.95,1.53c0,1.62,20.44,2.19,46.53,2.19c26.09,0,42.67-1.07,47.57-2.88
		c1.28-0.47,2.85-1.39,2.85-3.89v-82.02C288.41,172.08,286.36,170.03,283.83,170.03z"/>
	<path class="st3" d="M82.45,146.18l2.14-81.99c0.07-2.53,2.17-4.52,4.69-4.46l82,2.14c2.52,0.07,4.52,2.16,4.46,4.69l-0.63,25.24
		c-0.06,2.44,2.14,4.29,4.54,3.86c2.71-0.49,5.34-1.46,7.77-2.82c1.41-0.79,2.95-1.21,4.56-1.16c6.42,0.17,11.43,7.61,11.2,16.63
		c-0.23,9.02-5.63,16.19-12.05,16.03c-1.61-0.04-3.12-0.54-4.49-1.4c-2.36-1.49-4.93-2.59-7.61-3.22c-2.37-0.56-4.66,1.18-4.73,3.62
		l-0.68,25.23c-0.07,2.53-2.17,4.52-4.7,4.45l-25.22-0.68c-2.45-0.07-4.2-2.37-3.64-4.76c0.63-2.68,1.73-5.24,3.21-7.59
		c0.86-1.37,1.36-2.88,1.4-4.49c0.17-6.42-7.01-11.81-16.03-12.05c-9.02-0.24-16.47,4.78-16.63,11.2c-0.04,1.61,0.37,3.14,1.16,4.56
		c1.36,2.43,2.32,5.04,2.81,7.74c0.44,2.41-1.43,4.62-3.88,4.56l-25.18-0.63C84.38,150.81,82.39,148.71,82.45,146.18z"/>
	<path class="st3" d="M166.69,227.63c-2.75,0.55-5.38,1.6-7.82,3.04c-1.39,0.83-2.92,1.28-4.52,1.28c-6.42,0-11.63-7.31-11.63-16.34
		c0-9.02,5.2-16.34,11.63-16.34c1.61,0,3.13,0.46,4.52,1.28c2.4,1.43,5.01,2.46,7.71,3.02c2.38,0.49,4.61-1.3,4.62-3.72l0.03-25.29
		c0-2.51-2.03-4.55-4.54-4.56l-25.25-0.07c-2.44-0.01-4.24-2.26-3.74-4.65c0.56-2.68,1.58-5.25,2.99-7.63
		c0.83-1.39,1.28-2.92,1.28-4.52c0-6.42-7.31-11.63-16.34-11.63c-9.02,0-16.34,5.21-16.34,11.63c0,1.6,0.46,3.13,1.28,4.52
		c1.41,2.37,2.44,4.94,3.01,7.62c0.5,2.39-1.3,4.65-3.74,4.66l-25.24,0.08c-2.51,0.01-4.54,2.05-4.54,4.56v82.08
		c0,1.16,0.44,2.22,1.15,3.02c-4.43,0.45-6.99,0.97-6.99,1.53c0,1.62,20.73,2.19,46.83,2.19s43.25,0,47.07-2.88
		c2.49-1.87,3.11-4.93,3.11-6.84l-0.03-22.31C171.2,228.98,169.03,227.16,166.69,227.63z"/>
	<path class="st3" d="M211.8,125.97c-1.6,0.16-3.16-0.13-4.63-0.81c-2.54-1.18-5.23-1.94-7.98-2.22c-2.41-0.25-4.46,1.76-4.21,4.17
		l2.55,25.16c0.25,2.5,2.48,4.32,4.98,4.07l25.13-2.5c2.43-0.24,4.45,1.81,4.2,4.24c-0.28,2.72-1.04,5.38-2.2,7.89
		c-0.68,1.47-0.98,3.03-0.81,4.63c0.65,6.39,8.46,10.82,17.43,9.91c8.98-0.92,15.72-6.84,15.07-13.23c-0.16-1.6-0.77-3.07-1.74-4.37
		c-1.64-2.22-2.93-4.67-3.77-7.27c-0.75-2.33,0.82-4.76,3.25-5.01l25.1-2.64c2.5-0.26,4.31-2.5,4.06-5l-8.35-81.65
		c-0.26-2.5-2.49-4.33-5-4.07l-81.63,8.35c-2.51,0.26-4.33,2.5-4.07,5l2.6,25.14c0.25,2.37,2.59,3.97,4.87,3.26
		c2.67-0.83,5.19-2.14,7.47-3.82c1.3-0.96,2.77-1.57,4.37-1.74c6.39-0.65,12.31,6.09,13.23,15.07
		C222.62,117.51,218.19,125.31,211.8,125.97z"/>
	<path class="st1" d="M283.82,174.61v82.02c0,2.53-2.05,4.58-4.58,4.58h-82.03c-2.53,0-4.57-2.05-4.58-4.57l-0.03-25.24
		c0-2.44-2.25-4.23-4.64-3.74c-2.7,0.56-5.3,1.59-7.7,3.02c-1.39,0.83-2.92,1.28-4.52,1.28c-6.42,0-11.63-7.31-11.63-16.34
		c0-9.02,5.2-16.34,11.63-16.34c1.61,0,3.13,0.46,4.52,1.28c2.4,1.42,4.99,2.46,7.7,3.02c2.39,0.49,4.63-1.3,4.64-3.74l0.03-25.24
		c0-2.53,2.05-4.57,4.58-4.57l25.23,0.03c2.45,0,4.26,2.26,3.76,4.66c-0.56,2.69-1.59,5.28-3.01,7.67
		c-0.83,1.39-1.28,2.92-1.28,4.52c0,6.42,7.31,11.63,16.34,11.63c9.02,0,16.34-5.2,16.34-11.63c0-1.61-0.46-3.13-1.28-4.52
		c-1.42-2.39-2.45-4.98-3.01-7.67c-0.5-2.4,1.31-4.66,3.76-4.66l25.19-0.03C281.77,170.03,283.82,172.08,283.82,174.61z"/>
	<path class="st4" d="M77.86,146.18L80,64.19c0.07-2.53,2.17-4.52,4.69-4.46l82,2.14c2.52,0.07,4.52,2.16,4.46,4.69l-0.63,25.24
		c-0.06,2.44,2.14,4.29,4.54,3.86c2.71-0.49,5.34-1.46,7.77-2.82c1.41-0.79,2.95-1.21,4.56-1.16c6.42,0.17,11.43,7.61,11.2,16.63
		c-0.23,9.02-5.63,16.19-12.05,16.03c-1.61-0.04-3.12-0.54-4.49-1.4c-2.36-1.49-4.93-2.59-7.61-3.22c-2.37-0.56-4.67,1.18-4.73,3.62
		l-0.68,25.23c-0.07,2.53-2.17,4.52-4.7,4.45l-25.22-0.68c-2.45-0.07-4.2-2.37-3.64-4.76c0.63-2.68,1.73-5.24,3.21-7.59
		c0.86-1.37,1.36-2.88,1.4-4.49c0.17-6.42-7.01-11.81-16.03-12.05c-9.02-0.24-16.47,4.78-16.63,11.2c-0.04,1.61,0.37,3.14,1.16,4.56
		c1.36,2.43,2.32,5.04,2.81,7.74c0.44,2.41-1.43,4.62-3.88,4.56l-25.18-0.63C79.79,150.81,77.79,148.71,77.86,146.18z"/>
	<path class="st5" d="M149.76,199.28c1.61,0,3.13,0.46,4.52,1.28c2.4,1.43,5.01,2.46,7.71,3.02c2.38,0.49,4.61-1.29,4.62-3.72
		l0.03-25.29c0-2.51-2.03-4.55-4.54-4.56l-25.25-0.07c-2.44-0.01-4.24-2.26-3.74-4.65c0.56-2.68,1.58-5.25,2.99-7.63
		c0.83-1.39,1.28-2.92,1.28-4.52c0-6.42-7.31-11.63-16.34-11.63s-16.34,5.21-16.34,11.63c0,1.6,0.46,3.13,1.28,4.52
		c1.41,2.37,2.44,4.94,3.01,7.62c0.5,2.39-1.3,4.65-3.74,4.66l-25.24,0.08c-2.51,0.01-4.54,2.05-4.54,4.56v82.08
		c0,2.52,2.04,4.56,4.56,4.56h82.06c2.52,0,4.56-2.04,4.56-4.56l-0.03-25.28c0-2.38-2.18-4.21-4.51-3.74
		c-2.75,0.55-5.38,1.6-7.82,3.04c-1.39,0.83-2.92,1.28-4.52,1.28c-6.42,0-11.63-7.31-11.63-16.34
		C138.13,206.6,143.34,199.28,149.76,199.28z"/>
	<path class="st6" d="M207.21,125.97c-1.6,0.16-3.16-0.13-4.63-0.81c-2.54-1.18-5.23-1.94-7.98-2.22c-2.41-0.25-4.46,1.76-4.21,4.17
		l2.55,25.16c0.25,2.5,2.48,4.32,4.98,4.07l25.13-2.5c2.43-0.24,4.45,1.81,4.2,4.24c-0.28,2.72-1.04,5.38-2.2,7.89
		c-0.68,1.47-0.98,3.03-0.82,4.63c0.65,6.39,8.46,10.82,17.43,9.91c8.98-0.92,15.72-6.84,15.07-13.23c-0.16-1.6-0.77-3.07-1.74-4.37
		c-1.64-2.22-2.93-4.67-3.77-7.27c-0.75-2.33,0.82-4.76,3.25-5.01l25.1-2.64c2.5-0.26,4.31-2.5,4.06-5l-8.35-81.65
		c-0.26-2.5-2.49-4.33-5-4.07l-81.63,8.35c-2.51,0.26-4.33,2.5-4.07,5l2.6,25.14c0.25,2.37,2.59,3.97,4.87,3.26
		c2.67-0.83,5.19-2.14,7.47-3.82c1.3-0.96,2.77-1.57,4.37-1.74c6.39-0.65,12.31,6.09,13.23,15.07
		C218.03,117.51,213.6,125.31,207.21,125.97z"/>
	<g>
		<path class="st7" d="M44.96,150.54c-0.44,6.01,5.95,9.36,9.84,6.73c3.9-2.63,3.9-3.85,11.21-3.19c7.31,0.66,9.45-8.02,9.55-10.07
			c0.1-2.05,5.49-8.79,5.49-8.79s4.45-3.11-1.4-6.62c-5.85-3.51-13.32,0.78-15.29,5.95C62.41,139.72,45.55,142.64,44.96,150.54z"/>
		<path class="st8" d="M93.4,141.07c0,0-1.87-2.78-2.55-3.39c-0.69-0.61-2.09-2.06-0.4-3.33c1.69-1.28,3.44-2.1,4.08-1.25
			c0.64,0.85,1.56,6.65,1.56,6.65L93.4,141.07z"/>
		<path class="st9" d="M95.21,259.3v12.99h2.18v-3.54c0,0,1.67,3.38,2.71,3.54c0.67,0.1,3.3,0.07,5.47,0.04
			c0.55-0.01,0.74-0.74,0.26-1.02c-1.98-1.13-4.86-2.26-5.5-5.57c-0.55-2.87-0.8-6.62-0.8-6.62L95.21,259.3z"/>
		<path class="st9" d="M69.44,258.98l-1.26,12.76c-0.03,0.32,0.22,0.6,0.54,0.6h6.15c0.33,0,0.58-0.29,0.54-0.62
			c-0.1-0.75-1.41-2.14-1.76-3.56c-0.78-3.13-0.31-9.63-0.31-9.63L69.44,258.98z"/>
		<path class="st7" d="M68.91,181.29c0,0-4.29,6.56-2.91,24.57c1.37,18.01,1.32,18.93,1.32,18.93l1.12,35.41c0,0,3.21,0.76,5.04,0
			l6.26-56.65c0,0,7.78,18.64,9.46,22.76c1.68,4.12,0,15.03,5.65,34.23c0,0,3.36,0.8,5.5,0c0,0,0.31-33.83-1.22-39.45
			c-1.53-5.62-10.62-34.82-12.18-38.15C85.38,179.61,68.91,181.29,68.91,181.29z"/>
		<g>
			<path class="st7" d="M96.95,129.72l2.32,4.26l-3.34,1.51l-8.02,3.62l-0.01-0.01c-0.42,0.23-1.07-0.17-1.47-0.88
				c-0.39-0.72-0.37-1.49,0.05-1.72l0-0.01l7.39-4.78L96.95,129.72z"/>
			<path class="st10" d="M96.95,129.72l2.32,4.26l-3.34,1.51c-0.56-0.3-1.11-0.87-1.52-1.62c-0.41-0.75-0.59-1.53-0.54-2.16
				L96.95,129.72z"/>
			<path class="st7" d="M103.79,124.74l3.37,6.19l-2.57,1.21l-6.58,3.09l-0.02,0.01l-0.11,0.05l-0.01-0.02
				c-0.83,0.31-2.03-0.45-2.76-1.79c-0.73-1.34-0.72-2.77-0.01-3.3l-0.01-0.01l0.11-0.07c0.01,0,0.01-0.01,0.01-0.02l0.01,0
				l6.16-3.85L103.79,124.74z"/>
			<path class="st10" d="M103.79,124.74l3.37,6.19l-2.57,1.21c-0.89-0.37-1.82-1.26-2.48-2.47c-0.66-1.21-0.9-2.47-0.73-3.42
				L103.79,124.74z"/>
			<path class="st7" d="M112.09,118.98l4.41,8.09l-3.4,1.67l-5.82,2.84l-0.05,0.03c-1.18,0.64-3.03-0.47-4.12-2.48
				c-1.1-2.02-1.03-4.17,0.15-4.82c0.02-0.01,0.03-0.01,0.05-0.02l0-0.01l5.54-3.34L112.09,118.98z"/>
			<path class="st6" d="M111.64,118.92c-1.38,0.75-1.46,3.28-0.17,5.65c1.29,2.36,3.45,3.67,4.84,2.92l0,0l9-4.9l-4.67-8.57
				L111.64,118.92z"/>
			<path class="st10" d="M112.09,118.98l4.41,8.09l-3.4,1.67c-1.23-0.2-2.65-1.37-3.6-3.1c-0.95-1.73-1.16-3.56-0.65-4.7
				L112.09,118.98z"/>
			<path class="st7" d="M110.82,119.36c-1.38,0.75-1.46,3.28-0.17,5.65c1.29,2.36,3.45,3.67,4.84,2.92l0,0l9-4.9l-4.67-8.57
				L110.82,119.36z"/>
			<path class="st11" d="M124.65,117.37c-1.07-1.97-2.69-3.27-4.08-3.45l-0.2-0.37l-1.08,0.59c-1.53,0.83-1.61,3.63-0.18,6.25
				c1.43,2.62,3.83,4.07,5.36,3.24l1.08-0.59l-0.2-0.37C125.95,121.4,125.72,119.33,124.65,117.37z"/>
			<path class="st12" d="M125.73,116.78c1.43,2.62,1.35,5.42-0.18,6.25c-1.53,0.83-3.93-0.62-5.36-3.24
				c-1.43-2.62-1.35-5.42,0.18-6.26C121.9,112.71,124.3,114.16,125.73,116.78z"/>
			<path class="st13" d="M124.82,117.29c1.08,1.98,1.12,4.04,0.1,4.6c-1.03,0.56-2.73-0.59-3.81-2.58c-1.08-1.98-1.12-4.04-0.1-4.6
				C122.04,114.15,123.74,115.31,124.82,117.29z"/>
		</g>
		<path class="st14" d="M68.44,182.41c0.66,0.75,1.41,1.37,2.22,1.89c2.91,1.85,6.59,2.28,9.73,2.28c4.01,0,6.69-2.54,6.69-2.54
			s-1.24-9.87-1.34-12.52c-0.1-2.65,2.95-6.09,2.64-8.14c-0.86-5.75-4.99-10.89-4.99-10.89c-8.24-2.95-14.96,0-14.96,0
			s0.18,2.7,0.49,6.11c0.38,4.26,0.97,9.62,1.65,12.11C71.8,175.18,68.44,182.41,68.44,182.41z"/>
		
			<linearGradient id="SVGID_1_" gradientUnits="userSpaceOnUse" x1="959.6337" y1="171.705" x2="968.9242" y2="171.705" gradientTransform="matrix(-1 0 0 1 1037.3622 0)">
			<stop  offset="0" style="stop-color:#FFFFFF"/>
			<stop  offset="1" style="stop-color:#000000"/>
		</linearGradient>
		<path class="st15" d="M68.44,182.41c0.66,0.75,1.41,1.37,2.22,1.89l2.46,0.52c0,0,7.63-12.28,3.26-14.52
			c-4.37-2.23-6.46-7.22-7.33-11.7h-0.12c0.38,4.26,0.97,9.62,1.65,12.11C71.8,175.18,68.44,182.41,68.44,182.41z"/>
		<polygon class="st16" points="73.66,184.81 85.26,184.81 93.93,169.79 82.33,169.79 		"/>
		<path class="st8" d="M82.44,177.36c0,0,2.18-0.52,3.24-0.76c0.84-0.19,1.98-0.46,1.91,0c-0.08,0.46-1.47,0.7-1.44,0.95
			c0.03,0.26,2.16,0,3.77-0.8c1.6-0.8,0.38,2.9-2.59,3.13c-2.98,0.23-5.65-0.53-5.65-0.53L82.44,177.36z"/>
		<path class="st14" d="M68.77,152.48c5.29,1.12-1.65,19.96-0.33,21.18c1.32,1.22,14.61,3.36,14.61,3.36l-0.46,3.05
			c0,0-16.38-0.01-19.44-3.77c-2.28-2.81,0.72-18.77,3.81-22.67C67.46,153.01,68.29,152.38,68.77,152.48z"/>
		<path class="st14" d="M81.06,151.79c0,0,6.4,0.92,11.03,2.83c4.63,1.91,6.32,1.4,6.14,0.81c-0.17-0.59-5.63-14.6-5.63-14.6
			l3.7-1.67c0,0,7.84,15.16,8.44,18.47c0.6,3.31-2.28,5.81-6.73,5.41c-4.45-0.39-13.3-3.23-13.3-3.23L81.06,151.79z"/>
		<path class="st8" d="M73.69,151.28c1.67,2.96,7.11,3.14,7.13,0.45c0.01-1.32-0.2-3.21-0.42-4.79c-0.22-1.62-0.45-2.91-0.45-2.91
			s-6.11-4.66-5.95-2.21C74.16,144.27,73.69,151.28,73.69,151.28z"/>
		
			<linearGradient id="SVGID_2_" gradientUnits="userSpaceOnUse" x1="956.7294" y1="145.6639" x2="963.137" y2="145.6639" gradientTransform="matrix(-1 0 0 1 1037.3622 0)">
			<stop  offset="0" style="stop-color:#FFFFFF"/>
			<stop  offset="1" style="stop-color:#000000"/>
		</linearGradient>
		<path class="st17" d="M74.23,143.46c1.07,3.41,4.88,4.72,6.4,5.12c-0.22-1.62-0.45-2.91-0.45-2.91S74.08,141.02,74.23,143.46z"/>
		<path class="st8" d="M82.34,133.82c0,0,4.17,10.08,0.92,12.16c-3.84,2.46-6.6-1.31-7.59-2.31c-0.63-0.63-2.93-0.08-3.43-1.45
			c-0.49-1.37,0.68-1.73,1.34-1.58c0.66,0.16,1.83,0.26,0.76-1.78c-1.07-2.04,2.8-1.92,4.53-2.8
			C80.61,135.18,82.34,133.82,82.34,133.82z"/>
		<path class="st8" d="M92.32,139.52c0,0-2.23-1.74-2.68-2.62c-0.45-0.88-0.52-1.67,0.62-0.74c1.14,0.93,2.06,1.55,2.06,1.55V139.52
			z"/>
		<path class="st8" d="M92.94,132.31c0,0-1.24,1.73-2.11,2.13c-0.87,0.4-1.64,0.56-1.69,0.33c-0.05-0.24,0.31-1.39,1.9-2.16
			C92.63,131.83,93.03,132.19,92.94,132.31z"/>
	</g>
	<g>
		<path class="st18" d="M172.42,47.62c-0.53,3.38-12.17,10.41-14.63,11.86c-0.3,0.18-0.46,0.27-0.46,0.27l-0.61-0.38l-1.09-0.67
			l-2.25-1.38l11.44-9.88c0.25-0.24,0.29-0.62,0.09-0.9l-5.27-8.59c-0.3-0.55-1.13-0.44-1.25,0.18l-2.23,10.42L155.04,49l-8.66,3.51
			l-9.78-3.96l-2.23-10.42c-0.13-0.61-0.96-0.73-1.25-0.18l-5.27,8.59c-0.2,0.28-0.16,0.66,0.09,0.9l11.44,9.88l-3.96,2.43
			c0,0-14.5-8.34-15.09-12.13c-0.59-3.79,9.44-20.39,15.26-22.84c2.33-0.98,4.29-1.59,5.81-1.98c2.27-0.57,3.54-0.63,3.54-0.63
			l0.41,1.19l1.03,3.02l0.89-2.61l0.54-1.6c0,0,3.54,0.17,9.36,2.61c1.91,0.8,4.27,3.14,6.56,6.04c2.21,2.79,4.35,6.12,5.96,9.12
			C171.5,43.31,172.63,46.27,172.42,47.62z"/>
		<path class="st13" d="M144.95,22.17l0.41,1.19c-2.44-0.47-3.95-0.56-3.95-0.56v0C143.68,22.23,144.95,22.17,144.95,22.17z"/>
		<linearGradient id="SVGID_3_" gradientUnits="userSpaceOnUse" x1="152.2639" y1="25.4625" x2="174.9343" y2="31.2357">
			<stop  offset="0" style="stop-color:#FFFFFF"/>
			<stop  offset="1" style="stop-color:#000000"/>
		</linearGradient>
		<path class="st19" d="M163.73,30.81c-5.96-4.02-12.13-6.05-16.46-7.05l0.54-1.6c0,0,3.54,0.17,9.36,2.61
			C159.08,25.58,161.44,27.91,163.73,30.81z"/>
		<linearGradient id="SVGID_4_" gradientUnits="userSpaceOnUse" x1="160.3658" y1="45.7065" x2="174.7285" y2="73.3055">
			<stop  offset="0" style="stop-color:#FFFFFF"/>
			<stop  offset="1" style="stop-color:#000000"/>
		</linearGradient>
		<path class="st20" d="M172.42,47.62c-0.53,3.38-12.17,10.41-14.63,11.86l-1.07-0.11l-1.68-0.18l0.59-0.5l2.86-2.44
			c0,0,12.32-7.21,11.21-16.32C171.5,43.31,172.63,46.27,172.42,47.62z"/>
		<linearGradient id="SVGID_5_" gradientUnits="userSpaceOnUse" x1="98.262" y1="2.8127" x2="204.7145" y2="105.6745">
			<stop  offset="0" style="stop-color:#FFFFFF"/>
			<stop  offset="1" style="stop-color:#000000"/>
		</linearGradient>
		<path class="st21" d="M155.04,49l-8.66,3.51l-9.78-3.96l-2.23-10.42c0,0,6.18,9.16,18.46,10.5
			C153.71,48.72,154.44,48.85,155.04,49z"/>
		<path class="st8" d="M149.84,16.19v6.99c0,1.91-1.54,3.46-3.45,3.46h-0.01c-1.91,0-3.45-1.55-3.45-3.46v-6.99H149.84z"/>
		<linearGradient id="SVGID_6_" gradientUnits="userSpaceOnUse" x1="179.7471" y1="22.5282" x2="87.4904" y2="13.6464">
			<stop  offset="0" style="stop-color:#FFFFFF"/>
			<stop  offset="0.6599" style="stop-color:#6E6B6C"/>
			<stop  offset="1" style="stop-color:#231F20"/>
		</linearGradient>
		<path class="st22" d="M142.93,16.68l0.2-0.49h6.71v6.92c-3.34-0.36-5.73-2.28-6.91-3.46V16.68z"/>
		<path class="st7" d="M153.09,7.34c0,1.78-0.86,3.78-1.9,5.06c-1.35,1.65-2.51,2.32-4.8,2.32c-2.3,0-3.25,0.03-4.61-1.62
			c-1.05-1.27-2.16-3.98-2.16-5.76c0-4.07,2.7-7.37,6.77-7.37C150.45-0.04,153.09,3.26,153.09,7.34z"/>
		<path class="st8" d="M151.92,7.34v7c0,2.94-2.48,5.32-5.53,5.32c-3.06,0-5.53-2.38-5.53-5.32v-7H151.92z"/>
		<path class="st4" d="M159.53,46.06V60.3c0,0.75-0.61,1.35-1.35,1.35h-23.6c-0.74,0-1.35-0.6-1.35-1.35V46.06
			c0-0.75,0.61-1.35,1.35-1.35h23.6C158.92,44.71,159.53,45.31,159.53,46.06z"/>
		<linearGradient id="SVGID_7_" gradientUnits="userSpaceOnUse" x1="164.8911" y1="38.0269" x2="130.402" y2="68.1521">
			<stop  offset="0" style="stop-color:#FFFFFF"/>
			<stop  offset="1" style="stop-color:#000000"/>
		</linearGradient>
		<path class="st23" d="M159.53,53.78v6.51c0,0.75-0.61,1.35-1.35,1.35h-14.66l-7.13-16.93h18.63L159.53,53.78z"/>
		<rect x="134.17" y="61.58" class="st24" width="24.77" height="0.91"/>
		<path class="st25" d="M149.46,53.18c0,1.7-1.38,3.08-3.08,3.08c-1.7,0-3.08-1.38-3.08-3.08c0-1.7,1.38-3.08,3.08-3.08
			C148.08,50.1,149.46,51.48,149.46,53.18z"/>
		<path class="st26" d="M161.47,75.7c0,2.34-0.84,11.36-2.78,11.7c-0.83,0.14-1.55-6.56-2.53-10.03c-0.06-0.22-0.14-0.43-0.23-0.63
			c-1.08-2.42-3.95-2.95-4.83-3.06c-0.16-0.02-0.26-0.02-0.26-0.02l0.22-0.09l5.52-2.13c0,0,1.41,0.55,2.71,1.43
			C160.42,73.62,161.47,74.61,161.47,75.7z"/>
		<path class="st8" d="M158.28,78.22c-0.28-1.92-1.46-2.24-2.35-1.48c-1.08-2.42-3.95-2.95-4.83-3.06l-0.03-0.11l5.52-2.13
			c0,0,1.41,0.55,2.71,1.43C159.74,76.28,158.61,80.49,158.28,78.22z"/>
		<path class="st26" d="M156.9,70.9l-2.93,5.12l-26.76-13.52c-0.01,0-0.01,0-0.01,0l-0.01-0.01l-3.67-1.85
			c-0.26-0.1-0.52-0.22-0.76-0.38c-2.28-1.41-2.98-4.4-1.57-6.67c1.4-2.28,4.39-2.98,6.67-1.58c0.25,0.15,0.47,0.33,0.68,0.52
			l23.14,14.99L156.9,70.9z"/>
		<path class="st26" d="M142.5,73.66c0,0-0.67,0.04-1.54,0.29c-1.35,0.39-3.18,1.31-3.77,3.42v0c-0.98,3.47-1.7,10.17-2.53,10.03
			c-1.94-0.34-2.78-9.36-2.78-11.7c0-1.28,1.45-2.43,2.76-3.21c1.1-0.66,2.11-1.05,2.11-1.05l4.65,1.8L142.5,73.66z"/>
		<path class="st8" d="M141.41,73.23l-0.44,0.72c-1.35,0.39-3.18,1.31-3.77,3.42c-0.6-0.17-1.37-0.1-2.15,0.7
			c-1.66,1.71-0.29-2.58-0.4-5.58c1.1-0.66,2.11-1.05,2.11-1.05L141.41,73.23z"/>
		<path class="st26" d="M170.35,60.26c2.28-1.41,2.98-4.39,1.57-6.67c-1.41-2.28-4.39-2.98-6.67-1.57
			c-0.25,0.15-0.47,0.33-0.68,0.52L136.2,70.9l2.93,5.12l30.45-15.38C169.84,60.53,170.1,60.41,170.35,60.26z"/>
		<line class="st27" x1="159.73" y1="61" x2="159.73" y2="61.51"/>
		<polyline class="st28" points="159.73,58.6 159.73,42.73 159.73,40.33 159.73,39.82 		"/>
		<path class="st29" d="M151.92,7.34v1.28c-0.49-0.3-1.18-0.43-2.08,0.03c-2.03,1.05-4.17,0.89-6.01-0.1
			c-1.41-0.76-2.21-0.93-2.98-0.29V7.34H151.92z"/>
		<path class="st7" d="M140.85,8.82c0,0-0.24-1.78,1.4-1.49c1.64,0.29,4.42,2.02,6.83,1.01c2.4-1.01,2.84,0,2.84,0
			s1.55,0.25,0.92-1.22c-0.63-1.47-2.07-2.78-3.93-2.49c-1.85,0.29-5.86,1.43-6.78,1.43c-0.93,0-2.32,0.64-2.32,0.64L140.85,8.82z"
			/>
		<path class="st30" d="M139.37,14.2h1.12c0.2,0,0.36-0.16,0.36-0.36V9.18c0-0.2-0.16-0.36-0.36-0.36h-1.12
			c-0.2,0-0.36,0.16-0.36,0.36v4.66C139.01,14.04,139.17,14.2,139.37,14.2z"/>
		<path class="st30" d="M152.28,14.2h1.12c0.2,0,0.36-0.16,0.36-0.36V9.18c0-0.2-0.16-0.36-0.36-0.36h-1.12
			c-0.2,0-0.36,0.16-0.36,0.36v4.66C151.92,14.04,152.08,14.2,152.28,14.2z"/>
		<path class="st30" d="M150.14,16.66h-2.8v-0.17h2.8c1.44,0,2.61-1.17,2.61-2.61v-0.39h0.17v0.39
			C152.92,15.41,151.67,16.66,150.14,16.66z"/>
		<path class="st30" d="M146.94,17.05h0.8c0.1,0,0.19-0.08,0.19-0.19v-0.58c0-0.1-0.08-0.19-0.19-0.19h-0.8
			c-0.1,0-0.19,0.08-0.19,0.19v0.58C146.75,16.97,146.83,17.05,146.94,17.05z"/>
	</g>
	<g>
		<polygon class="st7" points="302.25,267.82 300.77,267.82 257.96,171.46 259.46,171.51 		"/>
		<polygon class="st7" points="331.67,267.82 330.19,267.82 287.34,171.38 288.81,171.36 		"/>
		<g>
			<polygon class="st7" points="296.67,258.59 326.83,258.59 326.17,257.1 296.01,257.1 			"/>
		</g>
		<g>
			<polygon class="st7" points="289.97,243.51 320.13,243.51 319.47,242.02 289.31,242.02 			"/>
		</g>
		<g>
			<polygon class="st7" points="283.28,228.44 313.43,228.44 312.77,226.95 282.62,226.95 			"/>
		</g>
		<g>
			<polygon class="st7" points="276.58,213.37 306.74,213.37 306.08,211.88 275.92,211.88 			"/>
		</g>
		<g>
			<polygon class="st7" points="269.88,198.29 300.04,198.29 299.38,196.81 269.22,196.81 			"/>
		</g>
		<g>
			<polygon class="st7" points="263.19,183.22 293.35,183.22 292.68,181.73 262.53,181.73 			"/>
		</g>
	</g>
	<g>
		<path class="st4" d="M172.6,263.09L172.6,263.09c-1.34-6.53,2.86-12.91,9.39-14.25l1.54-0.32c5.67-1.17,11.22,2.49,12.39,8.16
			l0.63,3.09c1.17,5.67-2.49,11.22-8.16,12.39l-1.54,0.32C180.32,273.82,173.94,269.62,172.6,263.09z"/>
		<path class="st31" d="M221.5,275L221.5,275c0,0-0.01,0-0.01,0c-1.08-0.37-2.13-0.81-3.14-1.32c-9.78-3.59-20.84-3.39-20.84-3.39
			l-4.86-23.64c4.35-0.89,8.7-3.57,12.23-6.32c2.05-1.59,3.82-3.21,5.18-4.53c3.51-4.39,8.51-7.63,14.45-8.85
			c13.49-2.78,26.68,5.91,29.46,19.41c2.47,12.01-4.15,23.79-15.15,28.19c-1.35,0.54-2.78,0.97-4.26,1.27
			C230.05,276.74,225.57,276.38,221.5,275z"/>
		<path class="st32" d="M238.5,274.64c-15.98-1.58-29.7-13.46-32.88-30.03c-0.3-1.55-0.49-3.1-0.59-4.63
			c2.07-1.57,3.87-3.16,5.24-4.46c3.57-4.34,8.62-7.51,14.57-8.65c13.53-2.6,26.6,6.27,29.2,19.8
			C256.34,258.71,249.56,270.39,238.5,274.64z"/>
		<g>
			<path class="st5" d="M185.71,259.64l-0.22-1.08l36.9-7.59c-0.2-1.5-0.28-3.53,0.17-5.52c0.59-2.55,2.81-3.74,4.63-3.76
				c1.98-0.03,3.53,1.18,4.04,3.15c0.44,1.7-0.37,3.6-1.4,4.6c-0.97,0.94-2.2,1.58-3.57,1.86l-2.61,0.54
				c0.13,0.73,0.26,1.17,0.26,1.19l-1.06,0.3c-0.02-0.06-0.15-0.53-0.29-1.27L185.71,259.64z M230.2,245.25
				c-0.01-0.04-0.02-0.09-0.03-0.13c-0.38-1.48-1.49-2.35-2.96-2.33c-1.4,0.02-3.12,0.94-3.57,2.91c-0.41,1.79-0.33,3.65-0.16,5.05
				l2.56-0.53c1.17-0.24,2.21-0.78,3.03-1.58C229.82,247.92,230.45,246.5,230.2,245.25z"/>
			<path class="st5" d="M186.23,262.16l-0.22-1.08l36.85-7.58c-0.17-0.74-0.23-1.22-0.24-1.28l1.09-0.14c0,0.01,0.06,0.48,0.23,1.19
				l2.61-0.54c1.37-0.28,2.76-0.18,4.02,0.3c1.34,0.51,2.84,1.94,3.1,3.67c0.31,2.01-0.64,3.73-2.47,4.49
				c-1.68,0.7-4.2,0.48-5.74-1.63c-1.21-1.65-1.93-3.55-2.34-5.01L186.23,262.16z M232.56,256.75c-0.26-1.25-1.4-2.3-2.38-2.67
				c-1.06-0.4-2.24-0.49-3.41-0.25l-2.56,0.53c0.39,1.36,1.06,3.1,2.14,4.58c1.2,1.63,3.14,1.8,4.43,1.26
				c1.36-0.56,2.03-1.8,1.8-3.31C232.58,256.84,232.57,256.79,232.56,256.75z"/>
		</g>
		<path class="st33" d="M197.5,272.81c-0.57,0.12-1.14-0.01-1.6-0.31c-0.45-0.3-0.79-0.77-0.91-1.35l-5-24.32
			c-0.24-1.15,0.5-2.27,1.65-2.51c0.3-0.06,0.59-0.06,0.87,0c0.26,0.06,0.51,0.16,0.73,0.3c0.45,0.3,0.79,0.77,0.91,1.35l5,24.32
			c0.18,0.85-0.19,1.69-0.86,2.16C198.07,272.63,197.8,272.75,197.5,272.81z"/>
		<path class="st34" d="M198.3,272.46c-0.26-0.05-0.51-0.16-0.73-0.3c-0.45-0.3-0.79-0.77-0.91-1.35l-5-24.32
			c-0.17-0.85,0.19-1.69,0.86-2.16c0.26,0.06,0.51,0.16,0.73,0.3c0.45,0.3,0.79,0.77,0.91,1.35l5,24.32
			C199.33,271.15,198.97,271.99,198.3,272.46z"/>
		<path class="st33" d="M191.14,271.95l-5-24.32c-0.24-1.15,0.5-2.27,1.65-2.51h0c1.15-0.24,2.27,0.5,2.51,1.65l5,24.32
			c0.24,1.15-0.5,2.27-1.65,2.51h0C192.5,273.84,191.37,273.1,191.14,271.95z"/>
		<path class="st33" d="M187.36,272.73l-5-24.32c-0.24-1.15,0.5-2.27,1.65-2.51l0,0c1.15-0.24,2.27,0.5,2.51,1.65l5,24.32
			c0.24,1.15-0.5,2.27-1.65,2.51l0,0C188.72,274.62,187.6,273.88,187.36,272.73z"/>
		<path class="st35" d="M231.32,234c-5.56,1.08-9.47,4.97-8.75,8.69c0.72,3.72,5.81,5.86,11.37,4.78c5.55-1.08,9.47-4.97,8.75-8.69
			C241.97,235.07,236.88,232.93,231.32,234z"/>
		<path class="st35" d="M245.9,245.27c-1.91,0.37-3.15,2.22-2.78,4.12c0.37,1.91,2.22,3.15,4.12,2.78c1.91-0.37,3.15-2.22,2.78-4.12
			C249.65,246.15,247.81,244.9,245.9,245.27z"/>
		<path class="st34" d="M194.45,273.26c-0.26-0.05-0.51-0.16-0.73-0.3c-0.45-0.3-0.79-0.77-0.91-1.35l-5-24.32
			c-0.17-0.85,0.19-1.69,0.86-2.16c0.26,0.06,0.51,0.16,0.73,0.3c0.45,0.3,0.79,0.77,0.91,1.35l5,24.32
			C195.48,271.95,195.12,272.79,194.45,273.26z"/>
		<path class="st34" d="M190.67,274.04c-0.26-0.05-0.51-0.16-0.73-0.3c-0.45-0.3-0.79-0.77-0.91-1.35l-5-24.32
			c-0.17-0.85,0.19-1.69,0.86-2.16c0.26,0.06,0.51,0.16,0.73,0.3c0.45,0.3,0.79,0.77,0.91,1.35l5,24.32
			C191.7,272.73,191.34,273.57,190.67,274.04z"/>
	</g>
	<path class="st0" d="M228.93,5.36l-1.46-2.11c-0.79,0.22-1.55,0.51-2.28,0.85l0.29,2.56c-0.75,0.42-1.44,0.92-2.07,1.49l-2.32-1.1
		c-0.57,0.58-1.09,1.21-1.55,1.88l1.53,2.06c-0.43,0.73-0.79,1.51-1.05,2.32l-2.57,0.21c-0.2,0.78-0.33,1.59-0.39,2.41l2.36,1.02
		c0,0.42,0.02,0.84,0.06,1.28c0.04,0.43,0.11,0.85,0.19,1.26l-2.11,1.46c0.22,0.8,0.51,1.56,0.85,2.28l2.56-0.29
		c0.42,0.75,0.92,1.44,1.49,2.07l-1.1,2.32c0.58,0.57,1.22,1.09,1.88,1.55l2.07-1.53c0.73,0.43,1.51,0.78,2.32,1.05l0.21,2.57
		c0.78,0.2,1.59,0.33,2.41,0.39l1.02-2.36c0.42,0,0.85-0.01,1.28-0.06c0.43-0.04,0.85-0.11,1.26-0.19l1.46,2.11
		c0.79-0.22,1.55-0.51,2.28-0.85l-0.29-2.56c0.75-0.42,1.44-0.92,2.07-1.48l2.32,1.1c0.57-0.58,1.09-1.21,1.55-1.88l-1.53-2.06
		c0.43-0.73,0.78-1.51,1.05-2.32l2.56-0.21c0.2-0.78,0.33-1.58,0.39-2.41l-2.36-1.02c0-0.42-0.01-0.85-0.06-1.27
		c-0.04-0.43-0.11-0.85-0.19-1.26l2.11-1.46c-0.22-0.79-0.5-1.56-0.85-2.28l-2.55,0.29c-0.42-0.75-0.92-1.44-1.49-2.07l1.1-2.32
		c-0.58-0.57-1.21-1.09-1.88-1.55l-2.06,1.53c-0.73-0.43-1.51-0.79-2.32-1.05l-0.21-2.57c-0.78-0.2-1.58-0.33-2.4-0.39l-1.03,2.36
		c-0.42,0-0.84,0.01-1.27,0.06C229.76,5.21,229.34,5.27,228.93,5.36z M230.84,11.77c2.92-0.29,5.52,1.85,5.8,4.77
		c0.29,2.92-1.85,5.51-4.77,5.8c-2.92,0.29-5.52-1.84-5.8-4.76C225.79,14.66,227.92,12.06,230.84,11.77z"/>
	<path class="st1" d="M230.59,7.37c-5.32,0.52-9.22,5.26-8.69,10.58c0.52,5.32,5.26,9.21,10.58,8.69c5.32-0.52,9.22-5.26,8.69-10.58
		C240.65,10.74,235.91,6.85,230.59,7.37z M231.01,11.73c2.92-0.29,5.52,1.85,5.8,4.77s-1.85,5.51-4.77,5.8
		c-2.92,0.29-5.52-1.84-5.8-4.76C225.96,14.61,228.1,12.02,231.01,11.73z"/>
	<path class="st0" d="M15.77,159.83l-1.95-2.82c-1.06,0.3-2.07,0.68-3.04,1.14l0.39,3.41c-1,0.56-1.92,1.22-2.76,1.98l-3.1-1.47
		c-0.75,0.78-1.45,1.62-2.06,2.51l2.04,2.75c-0.57,0.97-1.05,2.01-1.41,3.1l-3.42,0.28c-0.26,1.04-0.44,2.11-0.53,3.21l3.14,1.36
		c0,0.56,0.02,1.13,0.08,1.7c0.06,0.57,0.14,1.13,0.25,1.68l-2.82,1.95c0.3,1.06,0.68,2.08,1.14,3.04l3.41-0.39
		c0.56,1,1.23,1.92,1.98,2.77l-1.47,3.09c0.78,0.76,1.62,1.45,2.51,2.06l2.76-2.04c0.97,0.57,2.01,1.04,3.09,1.4l0.28,3.42
		c1.04,0.26,2.11,0.44,3.21,0.53l1.36-3.14c0.56,0,1.13-0.02,1.7-0.07c0.57-0.06,1.13-0.14,1.68-0.26l1.95,2.82
		c1.06-0.3,2.07-0.68,3.04-1.14l-0.39-3.41c1-0.56,1.92-1.22,2.76-1.98l3.09,1.47c0.76-0.78,1.45-1.62,2.06-2.51l-2.04-2.75
		c0.57-0.97,1.04-2.01,1.41-3.1l3.42-0.28c0.27-1.04,0.44-2.11,0.53-3.21l-3.14-1.36c0-0.56-0.02-1.13-0.07-1.7
		c-0.06-0.58-0.15-1.13-0.26-1.68l2.82-1.95c-0.29-1.06-0.67-2.07-1.14-3.04l-3.41,0.39c-0.57-0.99-1.23-1.92-1.98-2.77l1.47-3.09
		c-0.78-0.76-1.62-1.45-2.51-2.06l-2.75,2.04c-0.98-0.58-2.01-1.05-3.09-1.41l-0.28-3.42c-1.04-0.26-2.11-0.44-3.2-0.53l-1.37,3.14
		c-0.56,0-1.13,0.02-1.7,0.07C16.88,159.63,16.32,159.72,15.77,159.83z M18.31,168.39c3.89-0.38,7.35,2.46,7.74,6.35
		c0.38,3.89-2.46,7.35-6.35,7.73s-7.35-2.46-7.73-6.35C11.58,172.23,14.42,168.77,18.31,168.39z"/>
	<path class="st1" d="M17.98,162.52c-7.1,0.7-12.29,7.01-11.59,14.11c0.7,7.09,7.01,12.28,14.11,11.59
		c7.1-0.7,12.29-7.01,11.59-14.11C31.39,167.02,25.08,161.83,17.98,162.52z M18.55,168.33c3.89-0.38,7.35,2.46,7.74,6.35
		c0.38,3.89-2.46,7.35-6.35,7.73c-3.89,0.38-7.35-2.46-7.73-6.35C11.81,172.17,14.66,168.71,18.55,168.33z"/>
	<linearGradient id="SVGID_8_" gradientUnits="userSpaceOnUse" x1="301.0265" y1="124.9598" x2="301.0265" y2="167.629">
		<stop  offset="0" style="stop-color:#FFFFFF"/>
		<stop  offset="1" style="stop-color:#000000"/>
	</linearGradient>
	<path class="st36" d="M296.07,122.53c0,0,2.45-1.93,2.88,0c0.43,1.93-2.85,26.02,7.04,28.71c0,0-7.02-0.38-8.28-1.29
		C297.71,149.95,296.02,124.95,296.07,122.53z"/>
	<linearGradient id="SVGID_9_" gradientUnits="userSpaceOnUse" x1="329.0408" y1="117.9526" x2="317.6118" y2="146.5253">
		<stop  offset="0" style="stop-color:#FFFFFF"/>
		<stop  offset="1" style="stop-color:#000000"/>
	</linearGradient>
	<path class="st37" d="M321.9,130.65l0.94-6.11c0,0,3.02,9.47,1.96,12.91C324.8,137.45,322.71,131.14,321.9,130.65z"/>
	<linearGradient id="SVGID_10_" gradientUnits="userSpaceOnUse" x1="327.8615" y1="134.642" x2="316.1344" y2="163.9598">
		<stop  offset="0" style="stop-color:#FFFFFF"/>
		<stop  offset="1" style="stop-color:#000000"/>
	</linearGradient>
	<polygon class="st38" points="316.9,150.54 328.62,144.25 317.4,152.2 	"/>
	<linearGradient id="SVGID_11_" gradientUnits="userSpaceOnUse" x1="94.1206" y1="162.64" x2="94.3309" y2="160.135">
		<stop  offset="0" style="stop-color:#FFFFFF"/>
		<stop  offset="1" style="stop-color:#000000"/>
	</linearGradient>
	<path class="st39" d="M87.76,160.73c0,0-1.45-2.47,3.75,0c5.2,2.47,9.35,2.14,9.35,2.14S99.33,163.99,87.76,160.73z"/>
	<path class="st8" d="M271.73,107.4c0,0,0.32-2.29,0.05-3.37c-0.27-1.07-0.56-2.09-0.92-2.68c-0.36-0.59-0.42,0.54-0.36,1.66
		c0.05,1.13-0.13,1.05-0.7,0.09c-0.57-0.96-1.54-2.39-1.75-2.93c-0.21-0.54-1-1.96-1.14-1.71c-0.14,0.25,0.18,1.43,0.29,2.18
		c0.11,0.75-0.57,1.48-0.71,2.27c-0.14,0.8,0,2.19,0.96,3.44c0.96,1.25,1.99,2.6,1.99,2.6L271.73,107.4z"/>
	<g>
		<path class="st7" d="M321.37,114.57c0,0,5.89,5.45,8.63,13.34c2.74,7.89,3.83,11.17,1.92,13.5c-1.92,2.33-14.51,10.79-14.51,10.79
			l-2.18-3.94c0,0,9.58-8.89,9.58-10.81c0-1.92-5.75-12.04-5.75-12.04L321.37,114.57z"/>
		<g>
			<path class="st8" d="M313.7,113.87l-7.72,0.32c0,0,0.37-3.58,0.3-5.32c-0.07-1.65,0.1-2.99,0.1-2.99s2.79-1.64,4.8-2.3
				c1.25-0.41,2.2-0.44,1.99,0.55C312.63,106.71,313.7,113.87,313.7,113.87z"/>
			<path class="st5" d="M311.03,103.94c0,0,1.05,2.49,2.1,2.81c0,0,6.27-5.17,6.27-8.51c0-3.49-3.02-4.41-3.02-4.41
				s-2.72-6.39-5.49-7.13c-3.34-0.9-6.97,0.3-5.1,6.74C307.62,99.71,311.03,103.94,311.03,103.94z"/>
			
				<linearGradient id="SVGID_12_" gradientUnits="userSpaceOnUse" x1="-1132.7938" y1="75.9706" x2="-1136.6738" y2="93.3485" gradientTransform="matrix(0.989 0.1482 -0.1482 0.989 1441.2793 195.165)">
				<stop  offset="0" style="stop-color:#FFFFFF"/>
				<stop  offset="1" style="stop-color:#000000"/>
			</linearGradient>
			<path class="st40" d="M311.19,103.59c-0.04,0.11-0.1,0.22-0.16,0.34c-1.55,2.89-3.49,4.3-4.74,4.94c-0.07-1.65,0.1-2.99,0.1-2.99
				S309.18,104.25,311.19,103.59z"/>
			<path class="st8" d="M305.74,93.15c0,0-5.11,7.33-3.44,11.68c1.67,4.35,7.18,0.99,7.98-0.6c0,0,2.05-0.01,2.59-1.76
				c0.54-1.75-1.8-1.85-1.8-1.85S306.28,96.94,305.74,93.15z"/>
		</g>
		<g>
			<path class="st8" d="M287.3,212.87c-0.63,0.24-8.66,0.1-12.01,0.03c-0.68-0.01-1-0.84-0.51-1.32c0.83-0.8,2.3-1.72,4.82-1.96
				c1.09-0.1,1.76-0.46,2.16-1.05c0.55-0.82,0.57-2.09,0.46-3.73c-0.02-0.35-0.05-0.72-0.08-1.11c-0.28-3.43,4.88-0.06,4.88-0.06
				s-0.01,0.48,0.01,1.17c0.03,1.01,0.13,2.48,0.42,3.65c0.04,0.17,0.09,0.34,0.14,0.49C288.22,210.95,288.09,212.56,287.3,212.87z"
				/>
			<path class="st7" d="M287.3,212.87c-0.68,0.26-10.04,0.07-12.74,0.02c-0.35-0.01-0.48-0.37-0.33-0.68
				c0.54-1.08,2.06-2.78,5.28-3.09c1.09-0.1,2.13-0.54,2.53-1.12c1.13,0.07,2.03,0.57,2.01,1.6c-0.01,0.61,1.9,0.78,3.4-1.1
				c0.04,0.17,0.09,0.34,0.14,0.49C288.22,210.95,288.09,212.56,287.3,212.87z"/>
		</g>
		<g>
			<path class="st8" d="M317.53,228.31c-0.63,0.24-8.66,0.1-12.01,0.03c-0.68-0.01-1-0.84-0.51-1.32c0.83-0.8,2.3-1.72,4.82-1.96
				c1.09-0.1,1.76-0.46,2.16-1.05c0.55-0.82,0.57-2.09,0.46-3.73c-0.02-0.35-0.05-0.72-0.08-1.11c-0.28-3.43,4.88-0.06,4.88-0.06
				s-0.01,0.48,0.01,1.17c0.03,1.01,0.13,2.48,0.42,3.65c0.04,0.17,0.09,0.34,0.14,0.49C318.45,226.39,318.32,228,317.53,228.31z"/>
			<path class="st7" d="M317.53,228.31c-0.68,0.26-10.04,0.07-12.74,0.02c-0.35-0.01-0.48-0.37-0.33-0.68
				c0.54-1.08,2.06-2.78,5.28-3.09c1.09-0.1,2.13-0.54,2.53-1.12c1.13,0.07,2.03,0.57,2.01,1.6c-0.01,0.61,1.9,0.78,3.4-1.1
				c0.04,0.17,0.09,0.34,0.14,0.49C318.45,226.39,318.32,228,317.53,228.31z"/>
		</g>
		<path class="st27" d="M315.77,147.16c0,0,4.11,11.36,3.97,17.38c-0.14,6.02-2.33,24.9-2.33,26.55s0.41,30.38,0.41,30.38h-5.95
			c0,0-4.86-29.15-4.58-31.2c0.27-2.05-1.37-27.78-1.37-27.78l2.81-14.23L315.77,147.16z"/>
		<path class="st27" d="M313.03,149.22c0,0,0,8.89-8.76,15.87s-16.02,13.14-16.29,14.09c-0.27,0.96-0.01,25.31-0.01,25.31h-6.71
			c0,0-3.46-27.76-3.32-30.5c0.14-2.74,19.76-24.05,19.76-24.05L313.03,149.22z"/>
		<path class="st7" d="M321.37,114.57c-2.55-2.92-17.82-3.03-22.75-2.49c-4.93,0.55-16.6,5.66-16.6,5.66l-9.67-10.23l-3.12,2.03
			c0,0,8.96,14.41,12.61,15.14c3.65,0.73,13.96-2.55,14.23-2.14c0.27,0.41-0.19,28.31,0.46,28.71c10.93,6.58,22.87,3.86,22.87,3.86
			s2.26-22.85,2.8-26.28C322.75,125.41,324.24,117.86,321.37,114.57z"/>
		<path class="st4" d="M314.18,112.34c0,0-0.38-1.73-0.8-1.87c-0.42-0.14-6.63-0.65-7.13-0.36c-0.5,0.29-0.97,1.73-0.97,1.73
			S312.87,112.52,314.18,112.34z"/>
		<polygon class="st4" points="271.81,106.61 272.35,107.51 269.56,109.33 268.95,108.33 		"/>
	</g>
</g>
</svg>
